<?xml version="1.0" encoding="UTF-8" standalone="no"?>
<!-- Created with Inkscape (http://www.inkscape.org/) -->

<svg
   xmlns:dc="http://purl.org/dc/elements/1.1/"
   xmlns:cc="http://creativecommons.org/ns#"
   xmlns:rdf="http://www.w3.org/1999/02/22-rdf-syntax-ns#"
   xmlns:svg="http://www.w3.org/2000/svg"
   xmlns="http://www.w3.org/2000/svg"
   xmlns:sodipodi="http://sodipodi.sourceforge.net/DTD/sodipodi-0.dtd"
   xmlns:inkscape="http://www.inkscape.org/namespaces/inkscape"
   width="116.83965mm"
   height="47.970722mm"
   viewBox="0 0 116.83965 47.970722"
   version="1.1"
   id="svg308"
   inkscape:version="0.92.3 (2405546, 2018-03-11)"
   sodipodi:docname="tess.svg">
  <defs
     id="defs302" />
  <sodipodi:namedview
     id="base"
     pagecolor="#ffffff"
     bordercolor="#666666"
     borderopacity="1.0"
     inkscape:pageopacity="0.0"
     inkscape:pageshadow="2"
     inkscape:zoom="1.979899"
     inkscape:cx="261.69205"
     inkscape:cy="30.378354"
     inkscape:document-units="mm"
     inkscape:current-layer="layer1"
     showgrid="false"
     fit-margin-top="0"
     fit-margin-left="0"
     fit-margin-right="0"
     fit-margin-bottom="0"
     inkscape:window-width="1919"
     inkscape:window-height="1172"
     inkscape:window-x="1"
     inkscape:window-y="0"
     inkscape:window-maximized="1" />
  <metadata
     id="metadata305">
    <rdf:RDF>
      <cc:Work
         rdf:about="">
        <dc:format>image/svg+xml</dc:format>
        <dc:type
           rdf:resource="http://purl.org/dc/dcmitype/StillImage" />
        <dc:title></dc:title>
      </cc:Work>
    </rdf:RDF>
  </metadata>
  <g
     inkscape:label="Layer 1"
     inkscape:groupmode="layer"
     id="layer1"
     transform="translate(-37.964106,-23.928329)">
    <g
       id="g12"
       transform="matrix(0.35277777,0,0,-0.35277777,37.964106,71.906106)">
      <g
         id="g14"
         transform="translate(0,136)">
        <path
           d="M 15.887,-113.609 H 120.789 V -8.707 H 15.887 Z"
           style="fill:none;stroke:#000000;stroke-width:1.049016;stroke-linecap:butt;stroke-linejoin:miter;stroke-miterlimit:10;stroke-dasharray:none;stroke-opacity:1"
           id="path16"
           inkscape:connector-curvature="0" />
      </g>
      <g
         id="g18"
         transform="translate(0,136)">
        <path
           d="m 36.867,-92.629 h 62.942 v 62.941 H 36.867 Z"
           style="fill:#ffffff;fill-opacity:1;fill-rule:nonzero;stroke:#000000;stroke-width:1.049016;stroke-linecap:butt;stroke-linejoin:miter;stroke-miterlimit:10;stroke-dasharray:none;stroke-opacity:1"
           id="path20"
           inkscape:connector-curvature="0" />
      </g>
      <path
         d="m 40.098,74.84 h 0.695 v 4.777 h -0.695 z"
         style="fill:#000000;fill-opacity:1;fill-rule:nonzero;stroke:none"
         id="path22"
         inkscape:connector-curvature="0" />
      <path
         d="m 42.09,79.617 h 0.695 v -4.254 h 2.344 V 74.84 H 42.09 v 4.777"
         style="fill:#000000;fill-opacity:1;fill-rule:nonzero;stroke:none"
         id="path24"
         inkscape:connector-curvature="0" />
      <path
         d="m 46.098,75.363 h 1.043 v 3.735 l -1.129,-0.262 v 0.519 l 1.164,0.262 h 0.66 v -4.254 h 1.039 V 74.84 h -2.777 v 0.523"
         style="fill:#000000;fill-opacity:1;fill-rule:nonzero;stroke:none"
         id="path26"
         inkscape:connector-curvature="0" />
      <path
         d="m 63.703,98.445 h 0.695 v 4.774 h -0.695 z"
         style="fill:#000000;fill-opacity:1;fill-rule:nonzero;stroke:none"
         id="path28"
         inkscape:connector-curvature="0" />
      <path
         d="m 65.691,103.219 h 0.696 v -4.254 h 2.343 v -0.52 h -3.039 v 4.774"
         style="fill:#000000;fill-opacity:1;fill-rule:nonzero;stroke:none"
         id="path30"
         inkscape:connector-curvature="0" />
      <path
         d="m 70.914,102.785 c -0.316,0 -0.555,-0.16 -0.715,-0.488 -0.16,-0.324 -0.238,-0.813 -0.238,-1.465 0,-0.652 0.078,-1.141 0.238,-1.469 0.16,-0.324 0.399,-0.484 0.715,-0.484 0.32,0 0.559,0.16 0.719,0.484 0.16,0.328 0.238,0.817 0.238,1.469 0,0.652 -0.078,1.141 -0.238,1.465 -0.16,0.328 -0.399,0.488 -0.719,0.488 m 0,0.524 c 0.535,0 0.945,-0.215 1.227,-0.637 0.285,-0.422 0.425,-1.035 0.425,-1.84 0,-0.805 -0.14,-1.418 -0.425,-1.84 -0.282,-0.426 -0.692,-0.637 -1.227,-0.637 -0.535,0 -0.941,0.211 -1.223,0.637 -0.285,0.422 -0.425,1.035 -0.425,1.84 0,0.805 0.14,1.418 0.425,1.84 0.282,0.422 0.688,0.637 1.223,0.637"
         style="fill:#000000;fill-opacity:1;fill-rule:nonzero;stroke:none"
         id="path32"
         inkscape:connector-curvature="0" />
      <path
         d="m 2.219,79.184 c -0.469,0 -0.84,-0.176 -1.114,-0.528 -0.273,-0.347 -0.41,-0.824 -0.41,-1.429 0,-0.602 0.137,-1.079 0.41,-1.426 0.274,-0.352 0.645,-0.524 1.114,-0.524 0.465,0 0.836,0.172 1.105,0.524 0.274,0.347 0.41,0.824 0.41,1.426 0,0.605 -0.136,1.082 -0.41,1.429 -0.269,0.352 -0.64,0.528 -1.105,0.528 m 0,0.519 c 0.668,0 1.207,-0.223 1.609,-0.672 C 4.227,78.582 4.43,77.98 4.43,77.227 4.43,76.477 4.227,75.875 3.828,75.426 3.426,74.977 2.887,74.754 2.219,74.754 1.543,74.754 1.008,74.977 0.605,75.426 0.203,75.871 0,76.473 0,77.227 c 0,0.753 0.203,1.355 0.605,1.804 0.403,0.449 0.938,0.672 1.614,0.672"
         style="fill:#000000;fill-opacity:1;fill-rule:nonzero;stroke:none"
         id="path34"
         inkscape:connector-curvature="0" />
      <path
         d="M 5.555,79.617 H 6.246 V 75.363 H 8.594 V 74.84 H 5.555 v 4.777"
         style="fill:#000000;fill-opacity:1;fill-rule:nonzero;stroke:none"
         id="path36"
         inkscape:connector-curvature="0" />
      <path
         d="m 10.773,79.184 c -0.316,0 -0.554,-0.164 -0.714,-0.489 C 9.902,78.371 9.82,77.879 9.82,77.227 c 0,-0.649 0.082,-1.137 0.239,-1.465 0.16,-0.324 0.398,-0.485 0.714,-0.485 0.321,0 0.559,0.161 0.719,0.485 0.16,0.328 0.238,0.816 0.238,1.465 0,0.652 -0.078,1.144 -0.238,1.468 -0.16,0.325 -0.398,0.489 -0.719,0.489 m 0.004,0.519 c 0.535,0 0.942,-0.211 1.223,-0.633 0.285,-0.422 0.426,-1.039 0.426,-1.843 0,-0.801 -0.141,-1.415 -0.426,-1.84 -0.281,-0.422 -0.688,-0.633 -1.223,-0.633 -0.535,0 -0.945,0.211 -1.226,0.633 -0.285,0.425 -0.426,1.039 -0.426,1.84 0,0.804 0.141,1.421 0.426,1.843 0.281,0.422 0.691,0.633 1.226,0.633"
         style="fill:#000000;fill-opacity:1;fill-rule:nonzero;stroke:none"
         id="path38"
         inkscape:connector-curvature="0" />
      <path
         d="m 126.5,79.184 c -0.465,0 -0.836,-0.176 -1.109,-0.528 -0.274,-0.347 -0.411,-0.824 -0.411,-1.429 0,-0.602 0.137,-1.079 0.411,-1.426 0.273,-0.352 0.644,-0.524 1.109,-0.524 0.469,0 0.836,0.172 1.109,0.524 0.274,0.347 0.411,0.824 0.411,1.426 0,0.605 -0.137,1.082 -0.411,1.429 -0.273,0.352 -0.64,0.528 -1.109,0.528 m 0,0.519 c 0.672,0 1.211,-0.223 1.609,-0.672 0.403,-0.449 0.606,-1.051 0.606,-1.804 0,-0.75 -0.203,-1.352 -0.606,-1.801 -0.398,-0.449 -0.937,-0.672 -1.609,-0.672 -0.672,0 -1.211,0.223 -1.613,0.672 -0.403,0.445 -0.602,1.047 -0.602,1.801 0,0.753 0.199,1.355 0.602,1.804 0.402,0.449 0.941,0.672 1.613,0.672"
         style="fill:#000000;fill-opacity:1;fill-rule:nonzero;stroke:none"
         id="path40"
         inkscape:connector-curvature="0" />
      <path
         d="m 129.836,79.617 h 0.695 v -4.254 h 2.344 V 74.84 h -3.039 v 4.777"
         style="fill:#000000;fill-opacity:1;fill-rule:nonzero;stroke:none"
         id="path42"
         inkscape:connector-curvature="0" />
      <path
         d="m 134.25,75.363 h 2.312 V 74.84 h -3.066 v 0.523 c 0.246,0.254 0.578,0.602 1,1.032 0.418,0.433 0.684,0.714 0.793,0.839 0.203,0.235 0.348,0.434 0.43,0.594 0.082,0.164 0.125,0.328 0.125,0.484 0,0.258 -0.094,0.465 -0.274,0.629 -0.179,0.161 -0.41,0.243 -0.699,0.243 -0.203,0 -0.418,-0.043 -0.648,-0.133 -0.227,-0.082 -0.469,-0.215 -0.727,-0.391 v 0.695 c 0.266,0.118 0.516,0.204 0.746,0.262 0.231,0.059 0.442,0.086 0.633,0.086 0.508,0 0.91,-0.125 1.211,-0.371 0.301,-0.25 0.449,-0.582 0.449,-1 0,-0.195 -0.035,-0.383 -0.113,-0.559 -0.074,-0.179 -0.211,-0.386 -0.41,-0.625 -0.055,-0.062 -0.227,-0.242 -0.524,-0.539 -0.293,-0.297 -0.707,-0.714 -1.238,-1.246"
         style="fill:#000000;fill-opacity:1;fill-rule:nonzero;stroke:none"
         id="path44"
         inkscape:connector-curvature="0" />
      <path
         d="m 63.559,134.258 c -0.465,0 -0.836,-0.176 -1.11,-0.528 -0.273,-0.347 -0.41,-0.824 -0.41,-1.429 0,-0.602 0.137,-1.078 0.41,-1.426 0.274,-0.352 0.645,-0.527 1.11,-0.527 0.468,0 0.839,0.175 1.109,0.527 0.273,0.348 0.41,0.824 0.41,1.426 0,0.605 -0.137,1.082 -0.41,1.429 -0.27,0.352 -0.641,0.528 -1.109,0.528 m 0,0.519 c 0.671,0 1.211,-0.222 1.609,-0.672 0.402,-0.449 0.605,-1.05 0.605,-1.804 0,-0.754 -0.203,-1.352 -0.605,-1.801 -0.398,-0.449 -0.938,-0.672 -1.609,-0.672 -0.672,0 -1.211,0.223 -1.614,0.668 -0.402,0.449 -0.601,1.051 -0.601,1.805 0,0.754 0.199,1.355 0.601,1.804 0.403,0.45 0.942,0.672 1.614,0.672"
         style="fill:#000000;fill-opacity:1;fill-rule:nonzero;stroke:none"
         id="path46"
         inkscape:connector-curvature="0" />
      <path
         d="m 66.895,134.691 h 0.695 v -4.257 h 2.348 v -0.52 h -3.043 v 4.777"
         style="fill:#000000;fill-opacity:1;fill-rule:nonzero;stroke:none"
         id="path48"
         inkscape:connector-curvature="0" />
      <path
         d="m 72.609,132.539 c 0.336,-0.066 0.598,-0.203 0.789,-0.418 0.188,-0.211 0.286,-0.476 0.286,-0.789 0,-0.477 -0.164,-0.848 -0.485,-1.109 -0.324,-0.266 -0.781,-0.395 -1.375,-0.395 -0.199,0 -0.402,0.02 -0.617,0.063 -0.211,0.047 -0.426,0.109 -0.652,0.199 v 0.605 c 0.175,-0.113 0.367,-0.203 0.574,-0.261 0.207,-0.055 0.422,-0.086 0.648,-0.086 0.395,0 0.696,0.082 0.903,0.25 0.203,0.168 0.308,0.41 0.308,0.726 0,0.293 -0.093,0.52 -0.285,0.688 -0.187,0.164 -0.449,0.246 -0.785,0.246 h -0.492 v 0.523 h 0.515 c 0.282,0 0.497,0.063 0.649,0.188 0.148,0.125 0.222,0.304 0.222,0.539 0,0.242 -0.074,0.426 -0.23,0.554 -0.156,0.129 -0.375,0.196 -0.664,0.196 -0.168,0 -0.352,-0.024 -0.547,-0.067 -0.195,-0.039 -0.406,-0.105 -0.641,-0.195 v 0.609 c 0.235,0.055 0.458,0.102 0.665,0.129 0.203,0.028 0.398,0.043 0.582,0.043 0.472,0 0.843,-0.109 1.121,-0.328 0.273,-0.219 0.41,-0.511 0.41,-0.883 0,-0.257 -0.078,-0.476 -0.235,-0.656 -0.156,-0.176 -0.375,-0.301 -0.664,-0.371"
         style="fill:#000000;fill-opacity:1;fill-rule:nonzero;stroke:none"
         id="path50"
         inkscape:connector-curvature="0" />
      <path
         d="m 64.609,18.34 c -0.464,0 -0.836,-0.176 -1.113,-0.524 -0.273,-0.351 -0.41,-0.828 -0.41,-1.433 0,-0.598 0.137,-1.074 0.41,-1.426 0.277,-0.348 0.649,-0.523 1.113,-0.523 0.465,0 0.836,0.175 1.11,0.523 0.273,0.352 0.406,0.828 0.406,1.426 0,0.605 -0.133,1.082 -0.406,1.433 -0.274,0.348 -0.645,0.524 -1.11,0.524 m 0,0.519 c 0.672,0 1.207,-0.222 1.61,-0.671 0.402,-0.446 0.601,-1.047 0.601,-1.805 0,-0.75 -0.199,-1.352 -0.601,-1.801 -0.403,-0.445 -0.938,-0.672 -1.61,-0.672 -0.671,0 -1.211,0.223 -1.613,0.672 -0.402,0.445 -0.605,1.047 -0.605,1.801 0,0.758 0.203,1.359 0.605,1.805 0.402,0.449 0.942,0.671 1.613,0.671"
         style="fill:#000000;fill-opacity:1;fill-rule:nonzero;stroke:none"
         id="path52"
         inkscape:connector-curvature="0" />
      <path
         d="m 67.945,18.773 h 0.696 V 14.52 h 2.343 v -0.524 h -3.039 v 4.777"
         style="fill:#000000;fill-opacity:1;fill-rule:nonzero;stroke:none"
         id="path54"
         inkscape:connector-curvature="0" />
      <path
         d="m 71.953,14.52 h 1.043 v 3.734 l -1.129,-0.262 v 0.524 l 1.164,0.257 h 0.657 V 14.52 h 1.042 v -0.524 h -2.777 v 0.524"
         style="fill:#000000;fill-opacity:1;fill-rule:nonzero;stroke:none"
         id="path56"
         inkscape:connector-curvature="0" />
      <path
         d="m 60.801,1.324 h -0.098 c -0.789,0 -1.406,0.215 -1.848,0.653 -0.441,0.433 -0.66,1.039 -0.66,1.816 0,0.773 0.219,1.383 0.66,1.82 0.438,0.442 1.043,0.66 1.817,0.66 0.777,0 1.387,-0.218 1.82,-0.652 0.438,-0.437 0.653,-1.047 0.653,-1.828 0,-0.539 -0.118,-1.004 -0.352,-1.395 -0.234,-0.386 -0.57,-0.679 -1.012,-0.875 l 0.985,-1.07 h -1.18 l -0.785,0.871 m -0.133,4.082 c -0.371,0 -0.656,-0.14 -0.863,-0.422 C 59.602,4.703 59.5,4.309 59.5,3.797 59.5,3.277 59.598,2.879 59.797,2.605 60,2.328 60.289,2.191 60.668,2.191 c 0.375,0 0.664,0.141 0.867,0.422 0.207,0.282 0.309,0.676 0.309,1.184 0,0.512 -0.102,0.906 -0.309,1.187 -0.203,0.282 -0.492,0.422 -0.867,0.422"
         style="fill:#000000;fill-opacity:1;fill-rule:nonzero;stroke:none"
         id="path58"
         inkscape:connector-curvature="0" />
      <path
         d="m 64.082,2.824 v 2.235 h 1.129 V 4.691 c 0,-0.199 0,-0.445 -0.004,-0.746 -0.004,-0.3 -0.004,-0.5 -0.004,-0.597 0,-0.293 0.008,-0.504 0.024,-0.637 0.015,-0.129 0.043,-0.223 0.082,-0.281 0.05,-0.078 0.117,-0.137 0.195,-0.176 0.082,-0.043 0.176,-0.063 0.281,-0.063 0.254,0 0.453,0.094 0.598,0.282 0.144,0.187 0.219,0.445 0.219,0.781 V 5.059 H 67.73 V 1.41 H 66.602 V 1.93 C 66.422,1.723 66.234,1.57 66.035,1.469 65.84,1.371 65.621,1.324 65.383,1.324 c -0.422,0 -0.746,0.129 -0.969,0.383 -0.223,0.258 -0.332,0.629 -0.332,1.117"
         style="fill:#000000;fill-opacity:1;fill-rule:nonzero;stroke:none"
         id="path60"
         inkscape:connector-curvature="0" />
      <path
         d="m 70.48,3.059 c -0.253,0 -0.441,-0.039 -0.57,-0.121 -0.129,-0.083 -0.191,-0.204 -0.191,-0.364 0,-0.148 0.051,-0.262 0.152,-0.344 0.106,-0.085 0.246,-0.125 0.43,-0.125 0.226,0 0.418,0.079 0.574,0.235 0.156,0.156 0.234,0.351 0.234,0.586 V 3.059 H 70.48 M 72.238,3.5 V 1.41 H 71.109 V 1.93 C 70.953,1.719 70.773,1.566 70.578,1.469 70.383,1.371 70.145,1.324 69.863,1.324 c -0.375,0 -0.683,0.11 -0.918,0.332 -0.238,0.219 -0.355,0.504 -0.355,0.856 0,0.429 0.144,0.742 0.433,0.941 0.293,0.203 0.75,0.301 1.372,0.301 h 0.714 v 0.098 c 0,0.175 -0.074,0.304 -0.218,0.386 C 70.75,4.32 70.523,4.363 70.219,4.363 69.973,4.363 69.742,4.34 69.531,4.297 69.316,4.254 69.121,4.188 68.938,4.102 v 0.867 c 0.242,0.058 0.484,0.101 0.726,0.133 0.242,0.027 0.488,0.043 0.731,0.043 0.648,0 1.121,-0.129 1.406,-0.387 C 72.094,4.5 72.238,4.082 72.238,3.5"
         style="fill:#000000;fill-opacity:1;fill-rule:nonzero;stroke:none"
         id="path62"
         inkscape:connector-curvature="0" />
      <path
         d="m 75.902,4.535 v 1.91 h 1.129 V 1.41 H 75.902 V 1.93 C 75.738,1.723 75.559,1.566 75.363,1.469 75.168,1.371 74.941,1.324 74.684,1.324 c -0.457,0 -0.832,0.176 -1.125,0.535 -0.289,0.356 -0.438,0.813 -0.438,1.375 0,0.559 0.149,1.02 0.438,1.375 0.293,0.356 0.668,0.536 1.125,0.536 0.254,0 0.48,-0.051 0.675,-0.149 0.2,-0.098 0.379,-0.254 0.543,-0.461 M 75.117,2.191 c 0.254,0 0.449,0.09 0.582,0.266 0.137,0.18 0.203,0.438 0.203,0.777 0,0.34 -0.066,0.598 -0.203,0.774 -0.133,0.18 -0.328,0.269 -0.582,0.269 -0.25,0 -0.445,-0.089 -0.578,-0.269 C 74.406,3.832 74.34,3.574 74.34,3.234 c 0,-0.339 0.066,-0.597 0.199,-0.777 0.133,-0.176 0.328,-0.266 0.578,-0.266"
         style="fill:#000000;fill-opacity:1;fill-rule:nonzero;stroke:none"
         id="path64"
         inkscape:connector-curvature="0" />
      <path
         d="M 81.043,4.883 V 4.016 c -0.246,0.117 -0.481,0.203 -0.711,0.261 -0.227,0.055 -0.441,0.086 -0.644,0.086 -0.219,0 -0.379,-0.027 -0.485,-0.086 -0.105,-0.058 -0.156,-0.144 -0.156,-0.261 0,-0.098 0.043,-0.172 0.125,-0.223 0.086,-0.055 0.238,-0.09 0.453,-0.117 L 79.84,3.648 c 0.578,-0.074 0.965,-0.199 1.164,-0.367 0.199,-0.172 0.301,-0.441 0.301,-0.804 0,-0.383 -0.141,-0.672 -0.426,-0.864 -0.281,-0.195 -0.707,-0.289 -1.266,-0.289 -0.238,0 -0.484,0.02 -0.738,0.063 -0.254,0.043 -0.516,0.109 -0.785,0.195 v 0.871 c 0.234,-0.117 0.476,-0.203 0.722,-0.262 0.25,-0.058 0.5,-0.086 0.754,-0.086 0.231,0 0.403,0.032 0.52,0.094 0.117,0.063 0.176,0.153 0.176,0.278 0,0.101 -0.043,0.179 -0.125,0.23 -0.082,0.051 -0.246,0.09 -0.489,0.117 l -0.214,0.028 c -0.528,0.062 -0.899,0.183 -1.114,0.359 -0.211,0.176 -0.316,0.441 -0.316,0.797 0,0.387 0.133,0.672 0.394,0.855 0.262,0.188 0.664,0.282 1.207,0.282 0.215,0 0.438,-0.024 0.672,-0.063 0.235,-0.043 0.489,-0.109 0.766,-0.199"
         style="fill:#000000;fill-opacity:1;fill-rule:nonzero;stroke:none"
         id="path66"
         inkscape:connector-curvature="0" />
      <path
         d="m 11.41,19.559 c -0.582,-0.715 -1.019,-1.391 -1.305,-2.036 -0.289,-0.64 -0.429,-1.257 -0.429,-1.855 0,-0.34 0.039,-0.68 0.125,-1.016 0.082,-0.336 0.207,-0.668 0.375,-0.996 H 9.648 C 9.453,14.023 9.305,14.387 9.211,14.738 9.113,15.09 9.066,15.43 9.066,15.77 c 0,0.64 0.149,1.273 0.45,1.902 0.3,0.633 0.75,1.262 1.355,1.887 h 0.539"
         style="fill:#000000;fill-opacity:1;fill-rule:nonzero;stroke:none"
         id="path68"
         inkscape:connector-curvature="0" />
      <path
         d="m 13.805,19.387 c 0.437,0 0.773,-0.145 1.007,-0.434 0.231,-0.285 0.348,-0.699 0.348,-1.238 0,-0.41 -0.055,-0.817 -0.164,-1.219 -0.109,-0.402 -0.262,-0.766 -0.461,-1.086 -0.199,-0.32 -0.433,-0.562 -0.707,-0.726 -0.269,-0.164 -0.57,-0.246 -0.898,-0.246 -0.426,0 -0.754,0.144 -0.985,0.433 -0.23,0.289 -0.347,0.703 -0.347,1.234 0,0.407 0.058,0.813 0.168,1.215 0.113,0.407 0.265,0.77 0.464,1.086 0.2,0.321 0.434,0.563 0.7,0.731 0.269,0.168 0.558,0.25 0.875,0.25 m -0.028,-0.524 c -0.168,0 -0.332,-0.043 -0.484,-0.129 -0.152,-0.086 -0.289,-0.211 -0.414,-0.379 -0.203,-0.277 -0.367,-0.628 -0.488,-1.046 -0.121,-0.418 -0.184,-0.848 -0.184,-1.289 0,-0.352 0.066,-0.618 0.195,-0.793 0.133,-0.18 0.325,-0.27 0.578,-0.27 0.18,0 0.344,0.043 0.497,0.129 0.152,0.086 0.289,0.211 0.41,0.379 0.207,0.277 0.367,0.625 0.484,1.047 0.121,0.418 0.18,0.847 0.18,1.289 0,0.351 -0.063,0.617 -0.196,0.797 -0.128,0.179 -0.324,0.265 -0.578,0.265"
         style="fill:#000000;fill-opacity:1;fill-rule:nonzero;stroke:none"
         id="path70"
         inkscape:connector-curvature="0" />
      <path
         d="m 16.043,15.305 h 0.68 l -0.11,-0.547 -0.75,-1.016 h -0.425 l 0.519,1.016 0.086,0.547"
         style="fill:#000000;fill-opacity:1;fill-rule:nonzero;stroke:none"
         id="path72"
         inkscape:connector-curvature="0" />
      <path
         d="m 20.195,19.387 c 0.442,0 0.778,-0.145 1.008,-0.434 0.235,-0.285 0.352,-0.699 0.352,-1.238 0,-0.41 -0.055,-0.817 -0.164,-1.219 -0.11,-0.402 -0.262,-0.766 -0.461,-1.086 -0.2,-0.32 -0.438,-0.562 -0.707,-0.726 -0.274,-0.164 -0.571,-0.246 -0.903,-0.246 -0.422,0 -0.75,0.144 -0.98,0.433 -0.231,0.289 -0.348,0.703 -0.348,1.234 0,0.407 0.055,0.813 0.168,1.215 0.11,0.407 0.266,0.77 0.465,1.086 0.199,0.321 0.434,0.563 0.699,0.731 0.266,0.168 0.559,0.25 0.871,0.25 M 20.172,18.863 C 20,18.863 19.84,18.82 19.688,18.734 19.535,18.648 19.395,18.523 19.273,18.355 19.066,18.078 18.902,17.727 18.781,17.309 18.66,16.891 18.602,16.461 18.602,16.02 c 0,-0.352 0.062,-0.618 0.195,-0.793 0.129,-0.18 0.324,-0.27 0.578,-0.27 0.176,0 0.344,0.043 0.492,0.129 0.153,0.086 0.293,0.211 0.414,0.379 0.203,0.277 0.367,0.625 0.485,1.047 0.121,0.418 0.179,0.847 0.179,1.289 0,0.351 -0.066,0.617 -0.195,0.797 -0.133,0.179 -0.324,0.265 -0.578,0.265"
         style="fill:#000000;fill-opacity:1;fill-rule:nonzero;stroke:none"
         id="path74"
         inkscape:connector-curvature="0" />
      <path
         d="m 21.395,13.656 c 0.585,0.711 1.019,1.391 1.308,2.032 0.285,0.644 0.43,1.261 0.43,1.859 0,0.34 -0.043,0.68 -0.125,1.015 -0.078,0.333 -0.203,0.668 -0.367,0.997 h 0.519 c 0.195,-0.371 0.34,-0.735 0.434,-1.082 0.097,-0.344 0.144,-0.688 0.144,-1.024 0,-0.644 -0.148,-1.281 -0.449,-1.918 -0.301,-0.633 -0.754,-1.262 -1.351,-1.879 h -0.543"
         style="fill:#000000;fill-opacity:1;fill-rule:nonzero;stroke:none"
         id="path76"
         inkscape:connector-curvature="0" />
      <path
         d="m 115.789,19.559 c -0.586,-0.715 -1.019,-1.391 -1.309,-2.036 -0.285,-0.64 -0.429,-1.257 -0.429,-1.855 0,-0.34 0.043,-0.68 0.125,-1.016 0.086,-0.336 0.211,-0.668 0.379,-0.996 h -0.528 c -0.199,0.367 -0.343,0.731 -0.441,1.082 -0.094,0.352 -0.145,0.692 -0.145,1.032 0,0.64 0.153,1.273 0.45,1.902 0.3,0.633 0.754,1.262 1.359,1.887 h 0.539"
         style="fill:#000000;fill-opacity:1;fill-rule:nonzero;stroke:none"
         id="path78"
         inkscape:connector-curvature="0" />
      <path
         d="m 115.992,15.043 h 1.028 l 0.695,3.734 -1.164,-0.261 0.109,0.523 1.172,0.262 h 0.641 l -0.828,-4.258 h 1.058 l -0.105,-0.52 h -2.707 l 0.101,0.52"
         style="fill:#000000;fill-opacity:1;fill-rule:nonzero;stroke:none"
         id="path80"
         inkscape:connector-curvature="0" />
      <path
         d="m 120.422,15.305 h 0.68 l -0.11,-0.547 -0.754,-1.016 h -0.426 l 0.52,1.016 0.09,0.547"
         style="fill:#000000;fill-opacity:1;fill-rule:nonzero;stroke:none"
         id="path82"
         inkscape:connector-curvature="0" />
      <path
         d="m 124.574,19.387 c 0.438,0 0.774,-0.145 1.008,-0.434 0.23,-0.285 0.348,-0.699 0.348,-1.238 0,-0.41 -0.055,-0.817 -0.164,-1.219 -0.11,-0.402 -0.262,-0.766 -0.457,-1.086 -0.204,-0.32 -0.438,-0.562 -0.711,-0.726 -0.27,-0.164 -0.571,-0.246 -0.899,-0.246 -0.426,0 -0.754,0.144 -0.984,0.433 -0.231,0.289 -0.344,0.703 -0.344,1.234 0,0.407 0.055,0.813 0.164,1.215 0.113,0.407 0.266,0.77 0.465,1.086 0.199,0.321 0.434,0.563 0.699,0.731 0.27,0.168 0.559,0.25 0.875,0.25 m -0.027,-0.524 c -0.168,0 -0.328,-0.043 -0.485,-0.129 -0.152,-0.086 -0.289,-0.211 -0.414,-0.379 -0.203,-0.277 -0.367,-0.628 -0.488,-1.046 -0.121,-0.418 -0.183,-0.848 -0.183,-1.289 0,-0.352 0.066,-0.618 0.195,-0.793 0.133,-0.18 0.324,-0.27 0.578,-0.27 0.18,0 0.344,0.043 0.496,0.129 0.152,0.086 0.289,0.211 0.41,0.379 0.207,0.277 0.367,0.625 0.485,1.047 0.121,0.418 0.179,0.847 0.179,1.289 0,0.351 -0.062,0.617 -0.195,0.797 -0.129,0.179 -0.324,0.265 -0.578,0.265"
         style="fill:#000000;fill-opacity:1;fill-rule:nonzero;stroke:none"
         id="path84"
         inkscape:connector-curvature="0" />
      <path
         d="m 125.773,13.656 c 0.582,0.711 1.02,1.391 1.305,2.032 0.289,0.644 0.43,1.261 0.43,1.859 0,0.34 -0.039,0.68 -0.121,1.015 -0.082,0.333 -0.203,0.668 -0.371,0.997 h 0.519 c 0.195,-0.371 0.344,-0.735 0.438,-1.082 0.097,-0.344 0.144,-0.688 0.144,-1.024 0,-0.644 -0.152,-1.281 -0.453,-1.918 -0.301,-0.633 -0.75,-1.262 -1.352,-1.879 h -0.539"
         style="fill:#000000;fill-opacity:1;fill-rule:nonzero;stroke:none"
         id="path86"
         inkscape:connector-curvature="0" />
      <path
         d="m 11.57,135.477 c -0.586,-0.715 -1.019,-1.395 -1.308,-2.036 -0.285,-0.64 -0.43,-1.261 -0.43,-1.859 0,-0.34 0.043,-0.676 0.125,-1.012 0.086,-0.336 0.211,-0.668 0.379,-1 H 9.805 c -0.196,0.371 -0.34,0.731 -0.438,1.082 -0.094,0.352 -0.144,0.696 -0.144,1.032 0,0.64 0.152,1.277 0.449,1.906 0.301,0.629 0.754,1.258 1.359,1.887 h 0.539"
         style="fill:#000000;fill-opacity:1;fill-rule:nonzero;stroke:none"
         id="path88"
         inkscape:connector-curvature="0" />
      <path
         d="m 13.961,135.301 c 0.441,0 0.777,-0.145 1.008,-0.43 0.234,-0.289 0.347,-0.703 0.347,-1.242 0,-0.406 -0.054,-0.813 -0.164,-1.219 -0.105,-0.402 -0.257,-0.765 -0.457,-1.082 -0.199,-0.32 -0.437,-0.562 -0.707,-0.73 -0.273,-0.164 -0.57,-0.246 -0.902,-0.246 -0.422,0 -0.75,0.144 -0.981,0.433 -0.23,0.289 -0.347,0.703 -0.347,1.238 0,0.407 0.054,0.809 0.168,1.215 0.109,0.407 0.265,0.766 0.465,1.086 0.199,0.321 0.429,0.563 0.699,0.727 0.265,0.168 0.558,0.25 0.871,0.25 m -0.023,-0.52 c -0.172,0 -0.333,-0.043 -0.485,-0.129 -0.152,-0.086 -0.293,-0.214 -0.414,-0.379 -0.207,-0.281 -0.371,-0.628 -0.492,-1.046 -0.121,-0.422 -0.18,-0.852 -0.18,-1.293 0,-0.348 0.063,-0.614 0.195,-0.793 0.129,-0.18 0.325,-0.266 0.579,-0.266 0.175,0 0.343,0.043 0.492,0.125 0.152,0.086 0.289,0.215 0.414,0.383 0.203,0.277 0.363,0.625 0.484,1.043 0.121,0.418 0.18,0.851 0.18,1.293 0,0.351 -0.066,0.613 -0.195,0.793 -0.133,0.179 -0.325,0.269 -0.578,0.269"
         style="fill:#000000;fill-opacity:1;fill-rule:nonzero;stroke:none"
         id="path90"
         inkscape:connector-curvature="0" />
      <path
         d="m 16.203,131.219 h 0.68 l -0.11,-0.547 -0.75,-1.016 h -0.429 l 0.523,1.016 0.086,0.547"
         style="fill:#000000;fill-opacity:1;fill-rule:nonzero;stroke:none"
         id="path92"
         inkscape:connector-curvature="0" />
      <path
         d="m 18.168,130.961 h 1.023 l 0.696,3.734 -1.16,-0.261 0.109,0.519 1.172,0.262 h 0.64 l -0.828,-4.254 h 1.055 l -0.102,-0.523 h -2.711 l 0.106,0.523"
         style="fill:#000000;fill-opacity:1;fill-rule:nonzero;stroke:none"
         id="path94"
         inkscape:connector-curvature="0" />
      <path
         d="m 21.555,129.57 c 0.582,0.715 1.019,1.391 1.304,2.035 0.289,0.641 0.43,1.262 0.43,1.856 0,0.344 -0.039,0.68 -0.121,1.016 -0.082,0.335 -0.203,0.668 -0.371,1 h 0.519 c 0.196,-0.375 0.344,-0.735 0.438,-1.082 0.098,-0.348 0.144,-0.692 0.144,-1.028 0,-0.64 -0.152,-1.281 -0.453,-1.914 -0.3,-0.633 -0.75,-1.262 -1.351,-1.883 h -0.539"
         style="fill:#000000;fill-opacity:1;fill-rule:nonzero;stroke:none"
         id="path96"
         inkscape:connector-curvature="0" />
      <path
         d="m 116.836,135.477 c -0.582,-0.715 -1.02,-1.395 -1.305,-2.036 -0.289,-0.64 -0.433,-1.261 -0.433,-1.859 0,-0.34 0.043,-0.676 0.125,-1.012 0.086,-0.336 0.211,-0.668 0.379,-1 h -0.528 c -0.195,0.371 -0.344,0.731 -0.437,1.082 -0.098,0.352 -0.145,0.696 -0.145,1.032 0,0.64 0.149,1.277 0.449,1.906 0.301,0.629 0.75,1.258 1.356,1.887 h 0.539"
         style="fill:#000000;fill-opacity:1;fill-rule:nonzero;stroke:none"
         id="path98"
         inkscape:connector-curvature="0" />
      <path
         d="m 117.043,130.961 h 1.023 l 0.696,3.734 -1.16,-0.261 0.109,0.519 1.172,0.262 h 0.64 l -0.832,-4.254 h 1.059 l -0.102,-0.523 h -2.71 l 0.105,0.523"
         style="fill:#000000;fill-opacity:1;fill-rule:nonzero;stroke:none"
         id="path100"
         inkscape:connector-curvature="0" />
      <path
         d="m 121.469,131.219 h 0.679 l -0.109,-0.547 -0.75,-1.016 h -0.426 l 0.52,1.016 0.086,0.547"
         style="fill:#000000;fill-opacity:1;fill-rule:nonzero;stroke:none"
         id="path102"
         inkscape:connector-curvature="0" />
      <path
         d="m 123.434,130.961 h 1.027 l 0.695,3.734 -1.164,-0.261 0.11,0.519 1.171,0.262 h 0.641 l -0.828,-4.254 h 1.059 l -0.102,-0.523 h -2.711 l 0.102,0.523"
         style="fill:#000000;fill-opacity:1;fill-rule:nonzero;stroke:none"
         id="path104"
         inkscape:connector-curvature="0" />
      <path
         d="m 126.82,129.57 c 0.586,0.715 1.02,1.395 1.309,2.035 0.285,0.641 0.43,1.262 0.43,1.856 0,0.344 -0.043,0.68 -0.125,1.016 -0.079,0.335 -0.204,0.668 -0.368,1 h 0.52 c 0.195,-0.375 0.34,-0.735 0.437,-1.082 0.094,-0.348 0.141,-0.692 0.141,-1.028 0,-0.64 -0.148,-1.281 -0.449,-1.914 -0.301,-0.633 -0.754,-1.262 -1.352,-1.883 h -0.543"
         style="fill:#000000;fill-opacity:1;fill-rule:nonzero;stroke:none"
         id="path106"
         inkscape:connector-curvature="0" />
      <g
         id="g108"
         transform="translate(0,136)">
        <path
           d="m 246.672,-8.707 73.43,-104.902 H 173.238 Z"
           style="fill:none;stroke:#000000;stroke-width:1.049016;stroke-linecap:butt;stroke-linejoin:miter;stroke-miterlimit:10;stroke-dasharray:none;stroke-opacity:1"
           id="path110"
           inkscape:connector-curvature="0" />
      </g>
      <g
         id="g112"
         transform="translate(0,136)">
        <path
           d="m 246.672,-40.18 41.961,-58.742 h -83.922 z"
           style="fill:none;stroke:#000000;stroke-width:1.049016;stroke-linecap:butt;stroke-linejoin:miter;stroke-miterlimit:10;stroke-dasharray:none;stroke-opacity:1"
           id="path114"
           inkscape:connector-curvature="0" />
      </g>
      <path
         d="m 243.082,60.68 h 0.695 v 4.777 h -0.695 z"
         style="fill:#000000;fill-opacity:1;fill-rule:nonzero;stroke:none"
         id="path116"
         inkscape:connector-curvature="0" />
      <path
         d="m 245.074,65.457 h 0.696 v -4.258 h 2.343 V 60.68 h -3.039 v 4.777"
         style="fill:#000000;fill-opacity:1;fill-rule:nonzero;stroke:none"
         id="path118"
         inkscape:connector-curvature="0" />
      <path
         d="m 250.297,65.02 c -0.317,0 -0.555,-0.161 -0.715,-0.489 -0.16,-0.324 -0.238,-0.812 -0.238,-1.465 0,-0.652 0.078,-1.14 0.238,-1.464 0.16,-0.325 0.398,-0.489 0.715,-0.489 0.316,0 0.558,0.164 0.715,0.489 0.16,0.324 0.242,0.812 0.242,1.464 0,0.653 -0.082,1.141 -0.242,1.465 -0.157,0.328 -0.399,0.489 -0.715,0.489 m 0,0.523 c 0.535,0 0.941,-0.211 1.226,-0.637 0.282,-0.422 0.426,-1.035 0.426,-1.84 0,-0.804 -0.144,-1.418 -0.426,-1.839 -0.285,-0.422 -0.691,-0.633 -1.226,-0.633 -0.535,0 -0.945,0.211 -1.227,0.633 -0.281,0.421 -0.422,1.035 -0.422,1.839 0,0.805 0.141,1.418 0.422,1.84 0.282,0.426 0.692,0.637 1.227,0.637"
         style="fill:#000000;fill-opacity:1;fill-rule:nonzero;stroke:none"
         id="path120"
         inkscape:connector-curvature="0" />
      <path
         d="m 196.285,79.184 c -0.465,0 -0.836,-0.176 -1.113,-0.528 -0.274,-0.347 -0.41,-0.824 -0.41,-1.429 0,-0.602 0.136,-1.079 0.41,-1.426 0.277,-0.352 0.648,-0.524 1.113,-0.524 0.465,0 0.836,0.172 1.11,0.524 0.273,0.347 0.406,0.824 0.406,1.426 0,0.605 -0.133,1.082 -0.406,1.429 -0.274,0.352 -0.645,0.528 -1.11,0.528 m 0,0.519 c 0.672,0 1.207,-0.223 1.61,-0.672 0.402,-0.449 0.601,-1.051 0.601,-1.804 0,-0.75 -0.199,-1.352 -0.601,-1.801 -0.403,-0.449 -0.938,-0.672 -1.61,-0.672 -0.672,0 -1.211,0.223 -1.613,0.672 -0.402,0.445 -0.606,1.047 -0.606,1.801 0,0.753 0.204,1.355 0.606,1.804 0.402,0.449 0.941,0.672 1.613,0.672"
         style="fill:#000000;fill-opacity:1;fill-rule:nonzero;stroke:none"
         id="path122"
         inkscape:connector-curvature="0" />
      <path
         d="m 199.621,79.617 h 0.695 v -4.254 h 2.344 V 74.84 h -3.039 v 4.777"
         style="fill:#000000;fill-opacity:1;fill-rule:nonzero;stroke:none"
         id="path124"
         inkscape:connector-curvature="0" />
      <path
         d="m 204.844,79.184 c -0.317,0 -0.559,-0.164 -0.715,-0.489 -0.16,-0.324 -0.242,-0.816 -0.242,-1.468 0,-0.649 0.082,-1.137 0.242,-1.465 0.156,-0.324 0.398,-0.485 0.715,-0.485 0.316,0 0.554,0.161 0.715,0.485 0.16,0.328 0.242,0.816 0.242,1.465 0,0.652 -0.082,1.144 -0.242,1.468 -0.161,0.325 -0.399,0.489 -0.715,0.489 m 0,0.519 c 0.535,0 0.941,-0.211 1.226,-0.633 0.282,-0.422 0.422,-1.039 0.422,-1.843 0,-0.801 -0.14,-1.415 -0.422,-1.84 -0.285,-0.422 -0.691,-0.633 -1.226,-0.633 -0.535,0 -0.946,0.211 -1.227,0.633 -0.281,0.425 -0.422,1.039 -0.422,1.84 0,0.804 0.141,1.421 0.422,1.843 0.281,0.422 0.692,0.633 1.227,0.633"
         style="fill:#000000;fill-opacity:1;fill-rule:nonzero;stroke:none"
         id="path126"
         inkscape:connector-curvature="0" />
      <path
         d="m 242.941,18.34 c -0.464,0 -0.836,-0.176 -1.109,-0.524 -0.273,-0.351 -0.414,-0.828 -0.414,-1.433 0,-0.598 0.141,-1.074 0.414,-1.426 0.273,-0.348 0.645,-0.523 1.109,-0.523 0.469,0 0.836,0.175 1.11,0.523 0.273,0.352 0.406,0.828 0.406,1.426 0,0.605 -0.133,1.082 -0.406,1.433 -0.274,0.348 -0.641,0.524 -1.11,0.524 m 0,0.519 c 0.672,0 1.207,-0.222 1.61,-0.671 0.402,-0.446 0.601,-1.047 0.601,-1.805 0,-0.75 -0.199,-1.352 -0.601,-1.801 -0.403,-0.445 -0.938,-0.672 -1.61,-0.672 -0.671,0 -1.211,0.223 -1.613,0.672 -0.402,0.445 -0.605,1.047 -0.605,1.801 0,0.758 0.203,1.359 0.605,1.805 0.402,0.449 0.942,0.671 1.613,0.671"
         style="fill:#000000;fill-opacity:1;fill-rule:nonzero;stroke:none"
         id="path128"
         inkscape:connector-curvature="0" />
      <path
         d="m 246.277,18.773 h 0.696 V 14.52 h 2.343 v -0.524 h -3.039 v 4.777"
         style="fill:#000000;fill-opacity:1;fill-rule:nonzero;stroke:none"
         id="path130"
         inkscape:connector-curvature="0" />
      <path
         d="m 250.285,14.52 h 1.043 v 3.734 l -1.129,-0.262 v 0.524 l 1.164,0.257 h 0.66 V 14.52 h 1.039 v -0.524 h -2.777 v 0.524"
         style="fill:#000000;fill-opacity:1;fill-rule:nonzero;stroke:none"
         id="path132"
         inkscape:connector-curvature="0" />
      <path
         d="m 290.148,79.184 c -0.464,0 -0.836,-0.176 -1.113,-0.528 -0.273,-0.347 -0.41,-0.824 -0.41,-1.429 0,-0.602 0.137,-1.079 0.41,-1.426 0.277,-0.352 0.649,-0.524 1.113,-0.524 0.465,0 0.836,0.172 1.106,0.524 0.273,0.347 0.41,0.824 0.41,1.426 0,0.605 -0.137,1.082 -0.41,1.429 -0.27,0.352 -0.641,0.528 -1.106,0.528 m 0,0.519 c 0.672,0 1.207,-0.223 1.61,-0.672 0.402,-0.449 0.601,-1.051 0.601,-1.804 0,-0.75 -0.199,-1.352 -0.601,-1.801 -0.403,-0.449 -0.938,-0.672 -1.61,-0.672 -0.675,0 -1.21,0.223 -1.613,0.672 -0.402,0.445 -0.605,1.047 -0.605,1.801 0,0.753 0.203,1.355 0.605,1.804 0.403,0.449 0.938,0.672 1.613,0.672"
         style="fill:#000000;fill-opacity:1;fill-rule:nonzero;stroke:none"
         id="path134"
         inkscape:connector-curvature="0" />
      <path
         d="m 293.484,79.617 h 0.692 v -4.254 h 2.347 V 74.84 h -3.039 v 4.777"
         style="fill:#000000;fill-opacity:1;fill-rule:nonzero;stroke:none"
         id="path136"
         inkscape:connector-curvature="0" />
      <path
         d="m 297.895,75.363 h 2.312 V 74.84 h -3.062 v 0.523 c 0.242,0.254 0.574,0.602 0.996,1.032 0.421,0.433 0.683,0.714 0.793,0.839 0.207,0.235 0.347,0.434 0.429,0.594 0.082,0.164 0.125,0.328 0.125,0.484 0,0.258 -0.09,0.465 -0.269,0.629 -0.18,0.161 -0.414,0.243 -0.699,0.243 -0.208,0 -0.422,-0.043 -0.649,-0.133 -0.226,-0.082 -0.469,-0.215 -0.726,-0.391 v 0.695 c 0.265,0.118 0.511,0.204 0.742,0.262 0.23,0.059 0.441,0.086 0.636,0.086 0.504,0 0.907,-0.125 1.207,-0.371 0.301,-0.25 0.454,-0.582 0.454,-1 0,-0.195 -0.039,-0.383 -0.118,-0.559 -0.074,-0.179 -0.211,-0.386 -0.41,-0.625 -0.054,-0.062 -0.226,-0.242 -0.519,-0.539 -0.293,-0.297 -0.707,-0.714 -1.242,-1.246"
         style="fill:#000000;fill-opacity:1;fill-rule:nonzero;stroke:none"
         id="path138"
         inkscape:connector-curvature="0" />
      <path
         d="m 232.07,6.188 h 4.344 V 5.23 h -1.562 V 1.41 h -1.215 v 3.82 h -1.567 v 0.958"
         style="fill:#000000;fill-opacity:1;fill-rule:nonzero;stroke:none"
         id="path140"
         inkscape:connector-curvature="0" />
      <path
         d="m 239.051,4.016 c -0.106,0.058 -0.207,0.101 -0.309,0.129 -0.101,0.031 -0.207,0.043 -0.308,0.043 -0.305,0 -0.539,-0.098 -0.7,-0.293 -0.168,-0.192 -0.246,-0.473 -0.246,-0.836 V 1.41 h -1.129 v 3.649 h 1.129 v -0.61 c 0.149,0.242 0.324,0.418 0.52,0.528 0.199,0.113 0.433,0.168 0.711,0.168 0.035,0 0.078,-0.004 0.125,-0.004 0.047,-0.004 0.113,-0.012 0.203,-0.024 l 0.004,-1.101"
         style="fill:#000000;fill-opacity:1;fill-rule:nonzero;stroke:none"
         id="path142"
         inkscape:connector-curvature="0" />
      <path
         d="m 239.66,5.059 h 1.129 V 1.41 h -1.129 v 3.649 m 0,1.386 h 1.129 V 5.492 h -1.129 v 0.953"
         style="fill:#000000;fill-opacity:1;fill-rule:nonzero;stroke:none"
         id="path144"
         inkscape:connector-curvature="0" />
      <path
         d="m 243.594,3.059 c -0.254,0 -0.442,-0.039 -0.571,-0.121 -0.128,-0.083 -0.191,-0.204 -0.191,-0.364 0,-0.148 0.051,-0.262 0.156,-0.344 0.102,-0.085 0.242,-0.125 0.426,-0.125 0.227,0 0.418,0.079 0.574,0.235 0.157,0.156 0.235,0.351 0.235,0.586 v 0.133 h -0.629 M 245.352,3.5 V 1.41 h -1.129 V 1.93 C 244.066,1.719 243.891,1.566 243.691,1.469 243.5,1.371 243.262,1.324 242.98,1.324 c -0.378,0 -0.687,0.11 -0.921,0.332 -0.239,0.219 -0.356,0.504 -0.356,0.856 0,0.429 0.145,0.742 0.438,0.941 0.289,0.203 0.746,0.301 1.367,0.301 h 0.715 v 0.098 c 0,0.175 -0.071,0.304 -0.215,0.386 -0.145,0.082 -0.367,0.125 -0.676,0.125 -0.246,0 -0.477,-0.023 -0.687,-0.066 -0.211,-0.043 -0.411,-0.109 -0.594,-0.195 v 0.867 c 0.242,0.058 0.484,0.101 0.726,0.133 0.246,0.027 0.489,0.043 0.731,0.043 0.652,0 1.121,-0.129 1.41,-0.387 0.289,-0.258 0.434,-0.676 0.434,-1.258"
         style="fill:#000000;fill-opacity:1;fill-rule:nonzero;stroke:none"
         id="path146"
         inkscape:connector-curvature="0" />
      <path
         d="M 250.145,3.637 V 1.41 h -1.129 v 1.707 c 0,0.313 -0.008,0.531 -0.024,0.653 -0.015,0.121 -0.039,0.207 -0.074,0.265 -0.047,0.074 -0.113,0.133 -0.195,0.176 -0.082,0.043 -0.176,0.066 -0.282,0.066 -0.253,0 -0.453,-0.097 -0.597,-0.285 -0.145,-0.187 -0.219,-0.449 -0.219,-0.781 V 1.41 h -1.129 v 3.649 h 1.129 V 4.535 c 0.18,0.207 0.367,0.363 0.566,0.461 0.2,0.098 0.418,0.149 0.657,0.149 0.425,0 0.746,-0.129 0.968,-0.387 0.219,-0.258 0.329,-0.629 0.329,-1.121"
         style="fill:#000000;fill-opacity:1;fill-rule:nonzero;stroke:none"
         id="path148"
         inkscape:connector-curvature="0" />
      <path
         d="m 253.785,2.02 c -0.164,-0.211 -0.344,-0.364 -0.539,-0.465 -0.195,-0.098 -0.422,-0.145 -0.68,-0.145 -0.449,0 -0.824,0.176 -1.117,0.528 -0.297,0.351 -0.445,0.796 -0.445,1.339 0,0.547 0.148,0.993 0.445,1.344 0.293,0.348 0.668,0.524 1.117,0.524 0.258,0 0.485,-0.051 0.68,-0.149 0.195,-0.098 0.375,-0.25 0.539,-0.461 v 0.524 h 1.129 V 1.77 c 0,-0.567 -0.187,-1 -0.559,-1.301 -0.371,-0.297 -0.906,-0.449 -1.609,-0.449 -0.23,0 -0.453,0.023 -0.664,0.066 -0.215,0.043 -0.426,0.105 -0.641,0.195 v 0.867 c 0.207,-0.117 0.411,-0.203 0.61,-0.257 0.199,-0.059 0.402,-0.09 0.601,-0.09 0.391,0 0.676,0.078 0.86,0.234 0.179,0.16 0.273,0.403 0.273,0.735 V 2.02 M 253,4.277 c -0.246,0 -0.438,-0.089 -0.574,-0.261 -0.137,-0.176 -0.203,-0.422 -0.203,-0.739 0,-0.328 0.066,-0.578 0.199,-0.746 0.133,-0.168 0.324,-0.254 0.578,-0.254 0.25,0 0.441,0.09 0.578,0.262 0.137,0.176 0.207,0.422 0.207,0.738 0,0.317 -0.07,0.563 -0.207,0.739 -0.137,0.172 -0.328,0.261 -0.578,0.261"
         style="fill:#000000;fill-opacity:1;fill-rule:nonzero;stroke:none"
         id="path150"
         inkscape:connector-curvature="0" />
      <path
         d="m 256.059,1.41 h 1.129 v 5.035 h -1.129 z"
         style="fill:#000000;fill-opacity:1;fill-rule:nonzero;stroke:none"
         id="path152"
         inkscape:connector-curvature="0" />
      <path
         d="m 262.012,3.293 v -0.32 h -2.778 c 0.028,-0.289 0.129,-0.508 0.305,-0.653 0.172,-0.144 0.41,-0.215 0.723,-0.215 0.25,0 0.508,0.036 0.769,0.106 0.262,0.074 0.531,0.184 0.809,0.328 V 1.672 c -0.274,-0.117 -0.551,-0.203 -0.828,-0.262 -0.274,-0.058 -0.547,-0.086 -0.824,-0.086 -0.657,0 -1.168,0.168 -1.536,0.5 -0.363,0.336 -0.547,0.805 -0.547,1.41 0,0.594 0.18,1.059 0.54,1.399 0.359,0.34 0.851,0.512 1.48,0.512 0.57,0 1.031,-0.168 1.375,-0.504 0.34,-0.336 0.512,-0.786 0.512,-1.348 m -1.129,0.375 c 0,0.207 -0.071,0.375 -0.207,0.504 -0.141,0.129 -0.324,0.191 -0.547,0.191 -0.246,0 -0.441,-0.058 -0.598,-0.179 -0.152,-0.122 -0.246,-0.293 -0.285,-0.516 h 1.637"
         style="fill:#000000;fill-opacity:1;fill-rule:nonzero;stroke:none"
         id="path154"
         inkscape:connector-curvature="0" />
      <path
         d="M 265.793,4.883 V 4.016 c -0.246,0.117 -0.484,0.203 -0.711,0.261 -0.23,0.055 -0.445,0.086 -0.648,0.086 -0.215,0 -0.375,-0.027 -0.485,-0.086 -0.101,-0.058 -0.156,-0.144 -0.156,-0.261 0,-0.098 0.043,-0.172 0.125,-0.223 0.086,-0.055 0.238,-0.09 0.457,-0.117 l 0.211,-0.028 c 0.578,-0.074 0.965,-0.199 1.164,-0.367 0.199,-0.172 0.301,-0.441 0.301,-0.804 0,-0.383 -0.141,-0.672 -0.426,-0.864 -0.281,-0.195 -0.703,-0.289 -1.266,-0.289 -0.238,0 -0.484,0.02 -0.738,0.063 -0.254,0.043 -0.516,0.109 -0.785,0.195 v 0.871 c 0.238,-0.117 0.476,-0.203 0.726,-0.262 0.247,-0.058 0.497,-0.086 0.754,-0.086 0.227,0 0.403,0.032 0.52,0.094 0.113,0.063 0.172,0.153 0.172,0.278 0,0.101 -0.039,0.179 -0.121,0.23 -0.082,0.051 -0.246,0.09 -0.492,0.117 l -0.215,0.028 c -0.528,0.062 -0.899,0.183 -1.11,0.359 -0.211,0.176 -0.32,0.441 -0.32,0.797 0,0.387 0.133,0.672 0.395,0.855 0.261,0.188 0.667,0.282 1.21,0.282 0.211,0 0.434,-0.024 0.668,-0.063 0.235,-0.043 0.493,-0.109 0.77,-0.199"
         style="fill:#000000;fill-opacity:1;fill-rule:nonzero;stroke:none"
         id="path156"
         inkscape:connector-curvature="0" />
      <path
         d="m 165.617,20.082 c -0.586,-0.711 -1.019,-1.391 -1.308,-2.035 -0.286,-0.641 -0.43,-1.258 -0.43,-1.856 0,-0.339 0.043,-0.679 0.125,-1.015 0.082,-0.332 0.211,-0.668 0.379,-0.996 h -0.531 c -0.196,0.371 -0.34,0.73 -0.438,1.082 -0.094,0.351 -0.144,0.695 -0.144,1.031 0,0.641 0.152,1.277 0.449,1.906 0.301,0.629 0.754,1.258 1.359,1.883 h 0.539"
         style="fill:#000000;fill-opacity:1;fill-rule:nonzero;stroke:none"
         id="path158"
         inkscape:connector-curvature="0" />
      <path
         d="m 168.008,19.91 c 0.441,0 0.777,-0.144 1.008,-0.43 0.234,-0.289 0.351,-0.703 0.351,-1.242 0,-0.406 -0.058,-0.816 -0.168,-1.218 -0.105,-0.403 -0.261,-0.766 -0.457,-1.086 -0.199,-0.321 -0.437,-0.563 -0.707,-0.727 -0.273,-0.164 -0.574,-0.246 -0.902,-0.246 -0.422,0 -0.75,0.144 -0.981,0.434 -0.234,0.289 -0.347,0.703 -0.347,1.238 0,0.402 0.054,0.808 0.168,1.215 0.109,0.406 0.265,0.765 0.465,1.086 0.199,0.32 0.429,0.562 0.699,0.726 0.265,0.168 0.554,0.25 0.871,0.25 m -0.024,-0.519 c -0.172,0 -0.332,-0.043 -0.484,-0.129 -0.152,-0.086 -0.293,-0.215 -0.414,-0.383 -0.207,-0.277 -0.371,-0.629 -0.492,-1.047 -0.121,-0.418 -0.184,-0.848 -0.184,-1.289 0,-0.348 0.067,-0.613 0.199,-0.793 0.129,-0.18 0.321,-0.27 0.579,-0.27 0.175,0 0.343,0.043 0.492,0.129 0.152,0.086 0.289,0.215 0.414,0.379 0.203,0.282 0.363,0.629 0.484,1.047 0.117,0.418 0.18,0.848 0.18,1.293 0,0.348 -0.067,0.613 -0.199,0.793 -0.129,0.18 -0.321,0.27 -0.575,0.27"
         style="fill:#000000;fill-opacity:1;fill-rule:nonzero;stroke:none"
         id="path160"
         inkscape:connector-curvature="0" />
      <path
         d="m 170.25,15.828 h 0.68 l -0.11,-0.547 -0.75,-1.015 h -0.429 l 0.519,1.015 0.09,0.547"
         style="fill:#000000;fill-opacity:1;fill-rule:nonzero;stroke:none"
         id="path162"
         inkscape:connector-curvature="0" />
      <path
         d="m 174.402,19.91 c 0.438,0 0.774,-0.144 1.008,-0.43 0.231,-0.289 0.348,-0.703 0.348,-1.242 0,-0.406 -0.055,-0.816 -0.164,-1.218 -0.11,-0.403 -0.262,-0.766 -0.457,-1.086 -0.203,-0.321 -0.438,-0.563 -0.711,-0.727 -0.27,-0.164 -0.571,-0.246 -0.899,-0.246 -0.425,0 -0.754,0.144 -0.984,0.434 -0.231,0.289 -0.344,0.703 -0.344,1.238 0,0.402 0.055,0.808 0.164,1.215 0.114,0.406 0.266,0.765 0.465,1.086 0.199,0.32 0.434,0.562 0.699,0.726 0.27,0.168 0.559,0.25 0.875,0.25 m -0.027,-0.519 c -0.168,0 -0.332,-0.043 -0.484,-0.129 -0.153,-0.086 -0.289,-0.215 -0.414,-0.383 -0.204,-0.277 -0.368,-0.629 -0.489,-1.047 -0.121,-0.418 -0.183,-0.848 -0.183,-1.289 0,-0.348 0.066,-0.613 0.195,-0.793 0.133,-0.18 0.324,-0.27 0.578,-0.27 0.18,0 0.344,0.043 0.496,0.129 0.153,0.086 0.289,0.215 0.414,0.379 0.203,0.282 0.364,0.629 0.485,1.047 0.117,0.418 0.175,0.848 0.175,1.293 0,0.348 -0.062,0.613 -0.195,0.793 -0.129,0.18 -0.324,0.27 -0.578,0.27"
         style="fill:#000000;fill-opacity:1;fill-rule:nonzero;stroke:none"
         id="path164"
         inkscape:connector-curvature="0" />
      <path
         d="m 176.641,15.828 h 0.679 l -0.109,-0.547 -0.75,-1.015 h -0.426 l 0.52,1.015 0.086,0.547"
         style="fill:#000000;fill-opacity:1;fill-rule:nonzero;stroke:none"
         id="path166"
         inkscape:connector-curvature="0" />
      <path
         d="m 178.605,15.566 h 1.028 l 0.695,3.739 -1.164,-0.262 0.109,0.519 1.172,0.262 h 0.641 l -0.828,-4.258 h 1.058 l -0.101,-0.519 h -2.711 l 0.101,0.519"
         style="fill:#000000;fill-opacity:1;fill-rule:nonzero;stroke:none"
         id="path168"
         inkscape:connector-curvature="0" />
      <path
         d="m 181.992,14.18 c 0.586,0.715 1.024,1.39 1.309,2.031 0.285,0.644 0.429,1.262 0.429,1.859 0,0.34 -0.042,0.68 -0.121,1.016 -0.082,0.336 -0.207,0.668 -0.371,0.996 h 0.52 c 0.195,-0.371 0.34,-0.73 0.437,-1.078 0.094,-0.348 0.141,-0.692 0.141,-1.027 0,-0.645 -0.148,-1.282 -0.449,-1.915 -0.301,-0.632 -0.754,-1.261 -1.352,-1.882 h -0.543"
         style="fill:#000000;fill-opacity:1;fill-rule:nonzero;stroke:none"
         id="path170"
         inkscape:connector-curvature="0" />
      <path
         d="m 239.047,136 c -0.582,-0.715 -1.02,-1.395 -1.305,-2.035 -0.289,-0.641 -0.433,-1.262 -0.433,-1.856 0,-0.343 0.043,-0.679 0.125,-1.015 0.086,-0.336 0.211,-0.668 0.378,-1 h -0.527 c -0.195,0.371 -0.344,0.734 -0.437,1.082 -0.098,0.351 -0.145,0.695 -0.145,1.031 0,0.645 0.149,1.277 0.449,1.906 0.297,0.629 0.75,1.258 1.356,1.887 h 0.539"
         style="fill:#000000;fill-opacity:1;fill-rule:nonzero;stroke:none"
         id="path172"
         inkscape:connector-curvature="0" />
      <path
         d="m 241.441,135.828 c 0.438,0 0.774,-0.144 1.004,-0.433 0.235,-0.286 0.352,-0.7 0.352,-1.239 0,-0.41 -0.055,-0.816 -0.164,-1.218 -0.11,-0.407 -0.262,-0.766 -0.461,-1.086 -0.199,-0.321 -0.438,-0.563 -0.707,-0.727 -0.27,-0.168 -0.57,-0.25 -0.899,-0.25 -0.425,0 -0.754,0.145 -0.984,0.434 -0.23,0.293 -0.348,0.703 -0.348,1.238 0,0.406 0.055,0.808 0.168,1.215 0.114,0.406 0.266,0.769 0.465,1.086 0.199,0.32 0.434,0.562 0.699,0.73 0.266,0.164 0.559,0.25 0.875,0.25 m -0.027,-0.523 c -0.168,0 -0.332,-0.043 -0.484,-0.129 -0.153,-0.086 -0.289,-0.211 -0.414,-0.379 -0.204,-0.281 -0.368,-0.629 -0.489,-1.047 -0.125,-0.418 -0.183,-0.852 -0.183,-1.289 0,-0.352 0.066,-0.617 0.195,-0.793 0.129,-0.18 0.324,-0.27 0.578,-0.27 0.18,0 0.344,0.043 0.496,0.129 0.153,0.086 0.289,0.211 0.41,0.379 0.204,0.278 0.368,0.625 0.485,1.043 0.121,0.422 0.18,0.852 0.18,1.293 0,0.352 -0.067,0.617 -0.196,0.793 -0.133,0.18 -0.324,0.27 -0.578,0.27"
         style="fill:#000000;fill-opacity:1;fill-rule:nonzero;stroke:none"
         id="path174"
         inkscape:connector-curvature="0" />
      <path
         d="m 243.68,131.746 h 0.679 l -0.109,-0.547 -0.75,-1.019 h -0.43 l 0.524,1.019 0.086,0.547"
         style="fill:#000000;fill-opacity:1;fill-rule:nonzero;stroke:none"
         id="path176"
         inkscape:connector-curvature="0" />
      <path
         d="m 245.645,131.484 h 1.027 l 0.691,3.735 -1.16,-0.262 0.109,0.523 1.172,0.258 h 0.641 l -0.828,-4.254 h 1.058 l -0.105,-0.519 h -2.707 l 0.102,0.519"
         style="fill:#000000;fill-opacity:1;fill-rule:nonzero;stroke:none"
         id="path178"
         inkscape:connector-curvature="0" />
      <path
         d="m 250.074,131.746 h 0.68 l -0.109,-0.547 -0.754,-1.019 h -0.426 l 0.519,1.019 0.09,0.547"
         style="fill:#000000;fill-opacity:1;fill-rule:nonzero;stroke:none"
         id="path180"
         inkscape:connector-curvature="0" />
      <path
         d="m 254.227,135.828 c 0.437,0 0.773,-0.144 1.007,-0.433 0.231,-0.286 0.348,-0.7 0.348,-1.239 0,-0.41 -0.055,-0.816 -0.164,-1.218 -0.109,-0.407 -0.262,-0.766 -0.457,-1.086 -0.203,-0.321 -0.438,-0.563 -0.711,-0.727 -0.27,-0.168 -0.57,-0.25 -0.898,-0.25 -0.426,0 -0.754,0.145 -0.985,0.434 -0.23,0.293 -0.347,0.703 -0.347,1.238 0,0.406 0.058,0.808 0.168,1.215 0.113,0.406 0.265,0.769 0.464,1.086 0.2,0.32 0.434,0.562 0.7,0.73 0.269,0.164 0.558,0.25 0.875,0.25 m -0.028,-0.523 c -0.168,0 -0.332,-0.043 -0.484,-0.129 -0.153,-0.086 -0.289,-0.211 -0.414,-0.379 -0.203,-0.281 -0.367,-0.629 -0.489,-1.047 -0.121,-0.418 -0.183,-0.852 -0.183,-1.289 0,-0.352 0.066,-0.617 0.195,-0.793 0.133,-0.18 0.324,-0.27 0.578,-0.27 0.18,0 0.344,0.043 0.496,0.129 0.153,0.086 0.29,0.211 0.411,0.379 0.207,0.278 0.367,0.625 0.488,1.043 0.117,0.422 0.176,0.852 0.176,1.293 0,0.352 -0.063,0.617 -0.196,0.793 -0.129,0.18 -0.324,0.27 -0.578,0.27"
         style="fill:#000000;fill-opacity:1;fill-rule:nonzero;stroke:none"
         id="path182"
         inkscape:connector-curvature="0" />
      <path
         d="m 255.422,130.094 c 0.586,0.715 1.023,1.394 1.308,2.035 0.286,0.641 0.43,1.262 0.43,1.859 0,0.34 -0.039,0.676 -0.121,1.012 -0.082,0.336 -0.207,0.668 -0.371,1 h 0.52 c 0.195,-0.375 0.343,-0.734 0.437,-1.082 0.094,-0.348 0.145,-0.688 0.145,-1.023 0,-0.645 -0.153,-1.286 -0.454,-1.918 -0.3,-0.633 -0.75,-1.262 -1.351,-1.883 h -0.543"
         style="fill:#000000;fill-opacity:1;fill-rule:nonzero;stroke:none"
         id="path184"
         inkscape:connector-curvature="0" />
      <path
         d="m 312.477,20.082 c -0.582,-0.711 -1.02,-1.391 -1.305,-2.035 -0.289,-0.641 -0.43,-1.258 -0.43,-1.856 0,-0.339 0.039,-0.679 0.125,-1.015 0.082,-0.332 0.207,-0.668 0.375,-0.996 h -0.527 c -0.195,0.371 -0.344,0.73 -0.438,1.082 -0.097,0.351 -0.144,0.695 -0.144,1.031 0,0.641 0.148,1.277 0.449,1.906 0.301,0.629 0.75,1.258 1.356,1.883 h 0.539"
         style="fill:#000000;fill-opacity:1;fill-rule:nonzero;stroke:none"
         id="path186"
         inkscape:connector-curvature="0" />
      <path
         d="m 312.684,15.566 h 1.023 l 0.695,3.739 -1.16,-0.262 0.11,0.519 1.171,0.262 h 0.641 l -0.828,-4.258 h 1.055 l -0.102,-0.519 h -2.711 l 0.106,0.519"
         style="fill:#000000;fill-opacity:1;fill-rule:nonzero;stroke:none"
         id="path188"
         inkscape:connector-curvature="0" />
      <path
         d="m 317.109,15.828 h 0.68 l -0.109,-0.547 -0.75,-1.015 h -0.426 l 0.519,1.015 0.086,0.547"
         style="fill:#000000;fill-opacity:1;fill-rule:nonzero;stroke:none"
         id="path190"
         inkscape:connector-curvature="0" />
      <path
         d="m 321.266,19.91 c 0.437,0 0.773,-0.144 1.004,-0.43 0.234,-0.289 0.351,-0.703 0.351,-1.242 0,-0.406 -0.055,-0.816 -0.164,-1.218 -0.109,-0.403 -0.262,-0.766 -0.461,-1.086 -0.199,-0.321 -0.437,-0.563 -0.707,-0.727 -0.273,-0.164 -0.57,-0.246 -0.898,-0.246 -0.426,0 -0.754,0.144 -0.985,0.434 -0.23,0.289 -0.347,0.703 -0.347,1.238 0,0.402 0.054,0.808 0.168,1.215 0.109,0.406 0.265,0.765 0.464,1.086 0.2,0.32 0.434,0.562 0.7,0.726 0.265,0.168 0.558,0.25 0.875,0.25 m -0.028,-0.519 c -0.168,0 -0.332,-0.043 -0.484,-0.129 -0.152,-0.086 -0.289,-0.215 -0.414,-0.383 -0.207,-0.277 -0.367,-0.629 -0.492,-1.047 -0.121,-0.418 -0.18,-0.848 -0.18,-1.289 0,-0.348 0.062,-0.613 0.195,-0.793 0.129,-0.18 0.325,-0.27 0.578,-0.27 0.18,0 0.344,0.043 0.497,0.129 0.148,0.086 0.289,0.215 0.41,0.379 0.203,0.282 0.367,0.629 0.484,1.047 0.121,0.418 0.18,0.848 0.18,1.293 0,0.348 -0.067,0.613 -0.196,0.793 -0.132,0.18 -0.324,0.27 -0.578,0.27"
         style="fill:#000000;fill-opacity:1;fill-rule:nonzero;stroke:none"
         id="path192"
         inkscape:connector-curvature="0" />
      <path
         d="m 323.504,15.828 h 0.68 l -0.11,-0.547 -0.75,-1.015 h -0.429 l 0.523,1.015 0.086,0.547"
         style="fill:#000000;fill-opacity:1;fill-rule:nonzero;stroke:none"
         id="path194"
         inkscape:connector-curvature="0" />
      <path
         d="m 327.656,19.91 c 0.442,0 0.778,-0.144 1.008,-0.43 0.231,-0.289 0.348,-0.703 0.348,-1.242 0,-0.406 -0.055,-0.816 -0.164,-1.218 -0.11,-0.403 -0.262,-0.766 -0.457,-1.086 -0.203,-0.321 -0.438,-0.563 -0.711,-0.727 -0.27,-0.164 -0.571,-0.246 -0.899,-0.246 -0.422,0 -0.75,0.144 -0.984,0.434 -0.231,0.289 -0.344,0.703 -0.344,1.238 0,0.402 0.055,0.808 0.168,1.215 0.109,0.406 0.266,0.765 0.465,1.086 0.199,0.32 0.43,0.562 0.699,0.726 0.266,0.168 0.555,0.25 0.871,0.25 m -0.023,-0.519 c -0.172,0 -0.332,-0.043 -0.485,-0.129 -0.152,-0.086 -0.293,-0.215 -0.414,-0.383 -0.207,-0.277 -0.371,-0.629 -0.492,-1.047 -0.121,-0.418 -0.183,-0.848 -0.183,-1.289 0,-0.348 0.066,-0.613 0.195,-0.793 0.133,-0.18 0.324,-0.27 0.578,-0.27 0.18,0 0.348,0.043 0.496,0.129 0.152,0.086 0.289,0.215 0.414,0.379 0.203,0.282 0.363,0.629 0.485,1.047 0.117,0.418 0.179,0.848 0.179,1.293 0,0.348 -0.066,0.613 -0.199,0.793 -0.129,0.18 -0.32,0.27 -0.574,0.27"
         style="fill:#000000;fill-opacity:1;fill-rule:nonzero;stroke:none"
         id="path196"
         inkscape:connector-curvature="0" />
      <path
         d="m 328.855,14.18 c 0.586,0.715 1.02,1.39 1.305,2.031 0.289,0.644 0.43,1.262 0.43,1.859 0,0.34 -0.039,0.68 -0.121,1.016 -0.082,0.336 -0.203,0.668 -0.371,0.996 h 0.523 c 0.195,-0.371 0.34,-0.73 0.434,-1.078 0.097,-0.348 0.144,-0.692 0.144,-1.027 0,-0.645 -0.152,-1.282 -0.453,-1.915 -0.301,-0.632 -0.75,-1.261 -1.351,-1.882 h -0.54"
         style="fill:#000000;fill-opacity:1;fill-rule:nonzero;stroke:none"
         id="path198"
         inkscape:connector-curvature="0" />
    </g>
  </g>
</svg>
