<?xml version="1.0" encoding="UTF-8" standalone="no"?>
<!-- Created with Inkscape (http://www.inkscape.org/) -->

<svg
   xmlns:dc="http://purl.org/dc/elements/1.1/"
   xmlns:cc="http://creativecommons.org/ns#"
   xmlns:rdf="http://www.w3.org/1999/02/22-rdf-syntax-ns#"
   xmlns:svg="http://www.w3.org/2000/svg"
   xmlns="http://www.w3.org/2000/svg"
   xmlns:xlink="http://www.w3.org/1999/xlink"
   xmlns:sodipodi="http://sodipodi.sourceforge.net/DTD/sodipodi-0.dtd"
   xmlns:inkscape="http://www.inkscape.org/namespaces/inkscape"
   width="193.73108"
   height="73.3125"
   id="svg2"
   inkscape:label="Pozadí"
   version="1.1"
   inkscape:version="0.48.3.1 r9886"
   sodipodi:docname="Nový dokument 5">
  <sodipodi:namedview
     id="base"
     pagecolor="#ffffff"
     bordercolor="#666666"
     borderopacity="1.0"
     inkscape:pageopacity="0.0"
     inkscape:pageshadow="2"
     inkscape:zoom="5.6"
     inkscape:cx="88.689145"
     inkscape:cy="25.645903"
     inkscape:document-units="px"
     inkscape:current-layer="layer1"
     showgrid="false"
     inkscape:window-width="1919"
     inkscape:window-height="1052"
     inkscape:window-x="1"
     inkscape:window-y="0"
     inkscape:window-maximized="1"
     fit-margin-top="0"
     fit-margin-left="0"
     fit-margin-right="0"
     fit-margin-bottom="0" />
  <defs
     id="defs4666">
    <defs
       id="defs5589">
      <g
         id="g5591">
        <symbol
           style="overflow:visible"
           overflow="visible"
           id="textext-2106932c-0">
          <path
             inkscape:connector-curvature="0"
             style="stroke:none"
             d="m 3.015625,-3.15625 1.703125,0 c 1.40625,0 2.796875,-1.03125 2.796875,-2.140625 0,-0.78125 -0.65625,-1.515625 -1.96875,-1.515625 l -3.21875,0 c -0.1875,0 -0.296875,0 -0.296875,0.1875 0,0.125 0.078125,0.125 0.28125,0.125 0.125,0 0.3125,0.015625 0.421875,0.015625 0.171875,0.03125 0.21875,0.046875 0.21875,0.171875 0,0.03125 0,0.0625 -0.03125,0.1875 l -1.34375,5.34375 c -0.09375,0.390625 -0.109375,0.46875 -0.90625,0.46875 -0.15625,0 -0.265625,0 -0.265625,0.1875 C 0.40625,0 0.515625,0 0.546875,0 0.828125,0 1.53125,-0.03125 1.8125,-0.03125 c 0.21875,0 0.4375,0.015625 0.640625,0.015625 0.21875,0 0.4375,0.015625 0.640625,0.015625 0.078125,0 0.203125,0 0.203125,-0.203125 0,-0.109375 -0.09375,-0.109375 -0.28125,-0.109375 -0.359375,0 -0.640625,0 -0.640625,-0.171875 0,-0.0625 0.015625,-0.109375 0.03125,-0.171875 z M 3.734375,-6.125 C 3.828125,-6.46875 3.84375,-6.5 4.28125,-6.5 l 0.953125,0 c 0.828125,0 1.359375,0.265625 1.359375,0.953125 0,0.390625 -0.203125,1.25 -0.59375,1.609375 -0.5,0.453125 -1.09375,0.53125 -1.53125,0.53125 l -1.40625,0 z m 0,0"
             id="path5594" />
        </symbol>
        <symbol
           style="overflow:visible"
           overflow="visible"
           id="textext-2106932c-1">
          <path
             inkscape:connector-curvature="0"
             style="stroke:none"
             d="M 3.59375,-2.21875 C 3.59375,-2.984375 3.5,-3.546875 3.1875,-4.03125 2.96875,-4.34375 2.53125,-4.625 1.984375,-4.625 c -1.625,0 -1.625,1.90625 -1.625,2.40625 0,0.5 0,2.359375 1.625,2.359375 1.609375,0 1.609375,-1.859375 1.609375,-2.359375 z M 1.984375,-0.0625 c -0.328125,0 -0.75,-0.1875 -0.890625,-0.75 C 1,-1.21875 1,-1.796875 1,-2.3125 1,-2.828125 1,-3.359375 1.09375,-3.734375 1.25,-4.28125 1.6875,-4.4375 1.984375,-4.4375 c 0.375,0 0.734375,0.234375 0.859375,0.640625 0.109375,0.375 0.125,0.875 0.125,1.484375 0,0.515625 0,1.03125 -0.09375,1.46875 -0.140625,0.640625 -0.609375,0.78125 -0.890625,0.78125 z m 0,0"
             id="path5597" />
        </symbol>
        <symbol
           style="overflow:visible"
           overflow="visible"
           id="textext-2106932c-2">
          <path
             inkscape:connector-curvature="0"
             style="stroke:none"
             d="m 2.328125,-4.4375 c 0,-0.1875 0,-0.1875 -0.203125,-0.1875 -0.453125,0.4375 -1.078125,0.4375 -1.359375,0.4375 l 0,0.25 c 0.15625,0 0.625,0 1,-0.1875 l 0,3.546875 c 0,0.234375 0,0.328125 -0.6875,0.328125 l -0.265625,0 0,0.25 c 0.125,0 0.984375,-0.03125 1.234375,-0.03125 0.21875,0 1.09375,0.03125 1.25,0.03125 l 0,-0.25 -0.265625,0 c -0.703125,0 -0.703125,-0.09375 -0.703125,-0.328125 z m 0,0"
             id="path5600" />
        </symbol>
        <symbol
           style="overflow:visible"
           overflow="visible"
           id="textext-2106932c-3">
          <path
             inkscape:connector-curvature="0"
             style="stroke:none"
             d="m 3.515625,-1.265625 -0.234375,0 c -0.015625,0.15625 -0.09375,0.5625 -0.1875,0.625 -0.046875,0.046875 -0.578125,0.046875 -0.6875,0.046875 l -1.28125,0 c 0.734375,-0.640625 0.984375,-0.84375 1.390625,-1.171875 0.515625,-0.40625 1,-0.84375 1,-1.5 0,-0.84375 -0.734375,-1.359375 -1.625,-1.359375 -0.859375,0 -1.453125,0.609375 -1.453125,1.25 0,0.34375 0.296875,0.390625 0.375,0.390625 0.15625,0 0.359375,-0.125 0.359375,-0.375 0,-0.125 -0.046875,-0.375 -0.40625,-0.375 C 0.984375,-4.21875 1.453125,-4.375 1.78125,-4.375 c 0.703125,0 1.0625,0.546875 1.0625,1.109375 0,0.609375 -0.4375,1.078125 -0.65625,1.328125 L 0.515625,-0.265625 C 0.4375,-0.203125 0.4375,-0.1875 0.4375,0 l 2.875,0 z m 0,0"
             id="path5603" />
        </symbol>
        <symbol
           style="overflow:visible"
           overflow="visible"
           id="textext-2106932c-4">
          <path
             inkscape:connector-curvature="0"
             style="stroke:none"
             d="m 1.90625,-2.328125 c 0.546875,0 0.9375,0.375 0.9375,1.125 0,0.859375 -0.515625,1.125 -0.90625,1.125 -0.28125,0 -0.90625,-0.078125 -1.1875,-0.5 0.328125,0 0.40625,-0.234375 0.40625,-0.390625 0,-0.21875 -0.171875,-0.375 -0.390625,-0.375 -0.1875,0 -0.390625,0.125 -0.390625,0.40625 0,0.65625 0.71875,1.078125 1.5625,1.078125 0.96875,0 1.640625,-0.65625 1.640625,-1.34375 0,-0.546875 -0.4375,-1.09375 -1.203125,-1.25 0.71875,-0.265625 0.984375,-0.78125 0.984375,-1.21875 0,-0.546875 -0.625,-0.953125 -1.40625,-0.953125 -0.765625,0 -1.359375,0.375 -1.359375,0.9375 0,0.234375 0.15625,0.359375 0.359375,0.359375 0.21875,0 0.359375,-0.15625 0.359375,-0.34375 0,-0.203125 -0.140625,-0.359375 -0.359375,-0.375 0.25,-0.296875 0.71875,-0.375 0.984375,-0.375 0.3125,0 0.75,0.15625 0.75,0.75 0,0.296875 -0.09375,0.625 -0.28125,0.828125 -0.21875,0.265625 -0.421875,0.28125 -0.765625,0.3125 -0.171875,0.015625 -0.1875,0.015625 -0.21875,0.015625 -0.015625,0 -0.078125,0.015625 -0.078125,0.09375 0,0.09375 0.0625,0.09375 0.1875,0.09375 z m 0,0"
             id="path5606" />
        </symbol>
      </g>
    </defs>
  </defs>
  <metadata
     id="metadata4669">
    <rdf:RDF>
      <cc:Work
         rdf:about="">
        <dc:format>image/svg+xml</dc:format>
        <dc:type
           rdf:resource="http://purl.org/dc/dcmitype/StillImage" />
        <dc:title></dc:title>
      </cc:Work>
    </rdf:RDF>
  </metadata>
  <g
     id="layer1"
     inkscape:groupmode="layer"
     inkscape:label="Vrstva 1"
     transform="translate(-142.28231,-91.973214)">
    <g
       id="g5852"
       transform="translate(-25.892857,-20.714286)">
      <path
         sodipodi:nodetypes="cc"
         style="fill:#ececec;stroke:#7d7d7d;stroke-width:0.5;stroke-linecap:butt;stroke-linejoin:miter;stroke-miterlimit:4;stroke-opacity:1;stroke-dasharray:0.5, 0.5;stroke-dashoffset:0"
         d="M 349.18077,128.72155 171.67914,173.07119"
         id="path4747"
         inkscape:connector-curvature="0" />
      <path
         style="fill:#ececec;stroke:#7d7d7d;stroke-width:0.5;stroke-linecap:butt;stroke-linejoin:miter;stroke-miterlimit:4;stroke-opacity:1;stroke-dasharray:0.5, 0.5;stroke-dashoffset:0"
         d="M 350.41218,185.76949 229.32323,130.06809"
         id="path4747-7"
         inkscape:connector-curvature="0"
         sodipodi:nodetypes="cc" />
      <path
         sodipodi:type="arc"
         style="color:#000000;fill:#00ff00;fill-opacity:1;fill-rule:nonzero;stroke:none;stroke-width:1;marker:none;visibility:visible;display:inline;overflow:visible;enable-background:accumulate"
         id="path4672-7"
         sodipodi:cx="194.95944"
         sodipodi:cy="158.37718"
         sodipodi:rx="3.0304577"
         sodipodi:ry="3.0304577"
         d="m 197.9899,158.37718 c 0,1.67368 -1.35678,3.03046 -3.03046,3.03046 -1.67367,0 -3.03046,-1.35678 -3.03046,-3.03046 0,-1.67367 1.35679,-3.03046 3.03046,-3.03046 1.67368,0 3.03046,1.35679 3.03046,3.03046 z"
         transform="matrix(0.6759094,0,0,0.6759094,200.85901,70.849268)" />
      <path
         sodipodi:type="arc"
         style="color:#000000;fill:#00ff00;fill-opacity:1;fill-rule:nonzero;stroke:none;stroke-width:1;marker:none;visibility:visible;display:inline;overflow:visible;enable-background:accumulate"
         id="path4672-0"
         sodipodi:cx="194.95944"
         sodipodi:cy="158.37718"
         sodipodi:rx="3.0304577"
         sodipodi:ry="3.0304577"
         d="m 197.9899,158.37718 c 0,1.67368 -1.35678,3.03046 -3.03046,3.03046 -1.67367,0 -3.03046,-1.35678 -3.03046,-3.03046 0,-1.67367 1.35679,-3.03046 3.03046,-3.03046 1.67368,0 3.03046,1.35679 3.03046,3.03046 z"
         transform="matrix(0.6759094,0,0,0.6759094,54.028652,62.858197)" />
      <path
         sodipodi:nodetypes="cc"
         style="fill:#ececec;stroke:#7d7d7d;stroke-width:0.5;stroke-linecap:butt;stroke-linejoin:miter;stroke-miterlimit:4;stroke-opacity:1;stroke-dasharray:0.5, 0.5;stroke-dashoffset:0"
         d="M 345.6768,115.43109 168.17517,159.78073"
         id="path4747-9"
         inkscape:connector-curvature="0" />
      <path
         style="fill:#ececec;stroke:#7d7d7d;stroke-width:0.5;stroke-linecap:butt;stroke-linejoin:miter;stroke-miterlimit:4;stroke-opacity:1;stroke-dasharray:0.5, 0.5;stroke-dashoffset:0"
         d="M 361.79447,168.60574 240.70552,112.90434"
         id="path4747-7-0"
         inkscape:connector-curvature="0"
         sodipodi:nodetypes="cc" />
      <path
         style="fill:none;stroke:#ff000a;stroke-width:1px;stroke-linecap:butt;stroke-linejoin:miter;stroke-opacity:1"
         d="m 249.76022,139.56309 c 30.71715,-8.06659 41.82438,-3.63975 52.08599,1.32582"
         id="path5571"
         inkscape:connector-curvature="0"
         sodipodi:nodetypes="cc" />
      <path
         sodipodi:type="arc"
         style="color:#000000;fill:#00ff00;fill-opacity:1;fill-rule:nonzero;stroke:none;stroke-width:1;marker:none;visibility:visible;display:inline;overflow:visible;enable-background:accumulate"
         id="path4672-3"
         sodipodi:cx="194.95944"
         sodipodi:cy="158.37718"
         sodipodi:rx="3.0304577"
         sodipodi:ry="3.0304577"
         d="m 197.9899,158.37718 c 0,1.67368 -1.35678,3.03046 -3.03046,3.03046 -1.67367,0 -3.03046,-1.35678 -3.03046,-3.03046 0,-1.67367 1.35679,-3.03046 3.03046,-3.03046 1.67368,0 3.03046,1.35679 3.03046,3.03046 z"
         transform="matrix(0.6759094,0,0,0.6759094,118.22508,32.501054)" />
      <path
         sodipodi:type="arc"
         style="color:#000000;fill:#00ff00;fill-opacity:1;fill-rule:nonzero;stroke:none;stroke-width:1;marker:none;visibility:visible;display:inline;overflow:visible;enable-background:accumulate"
         id="path4672-6"
         sodipodi:cx="194.95944"
         sodipodi:cy="158.37718"
         sodipodi:rx="3.0304577"
         sodipodi:ry="3.0304577"
         d="m 197.9899,158.37718 c 0,1.67368 -1.35678,3.03046 -3.03046,3.03046 -1.67367,0 -3.03046,-1.35678 -3.03046,-3.03046 0,-1.67367 1.35679,-3.03046 3.03046,-3.03046 1.67368,0 3.03046,1.35679 3.03046,3.03046 z"
         transform="matrix(0.6759094,0,0,0.6759094,169.96615,33.840339)" />
      <g
         transform="translate(-73.392857,85.178572)"
         id="g5792">
        <g
           id="g5609"
           style="fill:#00ff00;fill-opacity:1"
           transform="translate(26.785714,-39.285714)">
          <use
             id="use5611"
             y="134.765"
             x="223.43201"
             xlink:href="#textext-2106932c-0"
             width="744.09448"
             height="1052.3622"
             style="fill:#00ff00" />
        </g>
        <g
           id="g5613"
           style="fill:#00ff00;fill-opacity:1"
           transform="translate(26.785714,-39.285714)">
          <use
             id="use5615"
             y="136.259"
             x="229.828"
             xlink:href="#textext-2106932c-1"
             width="744.09448"
             height="1052.3622"
             style="fill:#00ff00" />
        </g>
      </g>
      <g
         transform="translate(-22.857143,38.75)"
         id="g5798">
        <g
           id="g5617"
           style="fill:#00ff00;fill-opacity:1"
           transform="translate(26.785714,-39.285714)">
          <use
             id="use5619"
             y="134.765"
             x="237.618"
             xlink:href="#textext-2106932c-0"
             width="744.09448"
             height="1052.3622"
             style="fill:#00ff00" />
        </g>
        <g
           id="g5621"
           style="fill:#00ff00;fill-opacity:1"
           transform="translate(26.785714,-39.285714)">
          <use
             id="use5623"
             y="136.259"
             x="244.015"
             xlink:href="#textext-2106932c-2"
             width="744.09448"
             height="1052.3622"
             style="fill:#00ff00" />
        </g>
      </g>
      <g
         transform="translate(20.892857,40.714286)"
         id="g5804">
        <g
           id="g5625"
           style="fill:#00ff00;fill-opacity:1"
           transform="translate(26.785714,-39.285714)">
          <use
             id="use5627"
             y="134.765"
             x="251.80499"
             xlink:href="#textext-2106932c-0"
             width="744.09448"
             height="1052.3622"
             style="fill:#00ff00" />
        </g>
        <g
           id="g5629"
           style="fill:#00ff00;fill-opacity:1"
           transform="translate(26.785714,-39.285714)">
          <use
             id="use5631"
             y="136.259"
             x="258.20099"
             xlink:href="#textext-2106932c-3"
             width="744.09448"
             height="1052.3622"
             style="fill:#00ff00" />
        </g>
      </g>
      <g
         transform="translate(43.571429,82.142857)"
         id="g5810">
        <g
           id="g5633"
           style="fill:#00ff00;fill-opacity:1"
           transform="translate(26.785714,-39.285714)">
          <use
             id="use5635"
             y="134.765"
             x="265.991"
             xlink:href="#textext-2106932c-0"
             width="744.09448"
             height="1052.3622"
             style="fill:#00ff00" />
        </g>
        <g
           id="g5637"
           style="fill:#00ff00;fill-opacity:1"
           transform="translate(26.785714,-39.285714)">
          <use
             id="use5639"
             y="136.259"
             x="272.38699"
             xlink:href="#textext-2106932c-4"
             width="744.09448"
             height="1052.3622"
             style="fill:#00ff00" />
        </g>
      </g>
    </g>
  </g>
</svg>
