<?xml version="1.0" encoding="UTF-8" standalone="no"?>
<!-- Created with Inkscape (http://www.inkscape.org/) -->

<svg
   xmlns:ns0="http://www.iki.fi/pav/software/textext/"
   xmlns:dc="http://purl.org/dc/elements/1.1/"
   xmlns:cc="http://creativecommons.org/ns#"
   xmlns:rdf="http://www.w3.org/1999/02/22-rdf-syntax-ns#"
   xmlns:svg="http://www.w3.org/2000/svg"
   xmlns="http://www.w3.org/2000/svg"
   xmlns:sodipodi="http://sodipodi.sourceforge.net/DTD/sodipodi-0.dtd"
   xmlns:inkscape="http://www.inkscape.org/namespaces/inkscape"
   width="42.460453mm"
   height="24.138407mm"
   viewBox="0 0 42.460453 24.138407"
   version="1.1"
   id="svg257"
   inkscape:version="0.92.3 (2405546, 2018-03-11)"
   sodipodi:docname="catmullrom2.svg">
  <sodipodi:namedview
     id="base"
     pagecolor="#ffffff"
     bordercolor="#666666"
     borderopacity="1.0"
     inkscape:pageopacity="0.0"
     inkscape:pageshadow="2"
     inkscape:zoom="3.959798"
     inkscape:cx="48.658807"
     inkscape:cy="32.554414"
     inkscape:document-units="mm"
     inkscape:current-layer="layer1"
     showgrid="false"
     inkscape:window-width="1919"
     inkscape:window-height="1172"
     inkscape:window-x="1"
     inkscape:window-y="0"
     inkscape:window-maximized="1"
     fit-margin-top="0"
     fit-margin-left="0"
     fit-margin-right="0"
     fit-margin-bottom="0" />
  <defs
     id="defs251" />
  <metadata
     id="metadata254">
    <rdf:RDF>
      <cc:Work
         rdf:about="">
        <dc:format>image/svg+xml</dc:format>
        <dc:type
           rdf:resource="http://purl.org/dc/dcmitype/StillImage" />
        <dc:title></dc:title>
      </cc:Work>
    </rdf:RDF>
  </metadata>
  <g
     id="layer1"
     inkscape:groupmode="layer"
     inkscape:label="Layer 1"
     transform="translate(-65.704298,-70.261136)">
    <g
       id="g14"
       transform="matrix(0.35277777,0,0,0.35277777,65.704357,70.263732)">
      <path
         d="M 25.105,60.695 V 30.555"
         style="fill:none;stroke:#000000;stroke-width:0.80000001;stroke-linecap:butt;stroke-linejoin:miter;stroke-miterlimit:4;stroke-dasharray:none;stroke-opacity:1"
         id="path16"
         inkscape:connector-curvature="0" />
    </g>
    <g
       id="g18"
       transform="matrix(0.35277777,0,0,0.35277777,65.704357,70.263732)">
      <path
         d="M 1.746,33.156 120.34,21.133"
         style="fill:none;stroke:#808080;stroke-width:0.40000001;stroke-linecap:butt;stroke-linejoin:miter;stroke-miterlimit:4;stroke-dasharray:0.4, 0.4;stroke-dashoffset:0;stroke-opacity:1"
         id="path20"
         inkscape:connector-curvature="0" />
    </g>
    <g
       id="g22"
       transform="matrix(0.35277777,0,0,0.35277777,65.704357,70.263732)">
      <path
         d="m 25.586,6.133 91.117,44.953"
         style="fill:none;stroke:#808080;stroke-width:0.40000001;stroke-linecap:butt;stroke-linejoin:miter;stroke-miterlimit:4;stroke-dasharray:0.4, 0.4;stroke-dashoffset:0;stroke-opacity:1"
         id="path24"
         inkscape:connector-curvature="0" />
    </g>
    <g
       id="g26"
       transform="matrix(0.35277777,0,0,0.35277777,65.704357,70.263732)">
      <path
         d="M 51.82,60.695 V 18.84"
         style="fill:none;stroke:#000000;stroke-width:0.80000001;stroke-linecap:butt;stroke-linejoin:miter;stroke-miterlimit:4;stroke-dasharray:none;stroke-opacity:1"
         id="path28"
         inkscape:connector-curvature="0" />
    </g>
    <g
       id="g30"
       transform="matrix(0.35277777,0,0,0.35277777,65.704357,70.263732)">
      <path
         d="M 78.535,60.695 V 24.984"
         style="fill:none;stroke:#000000;stroke-width:0.80000001;stroke-linecap:butt;stroke-linejoin:miter;stroke-miterlimit:4;stroke-dasharray:none;stroke-opacity:1"
         id="path32"
         inkscape:connector-curvature="0" />
    </g>
    <g
       id="g34"
       transform="matrix(0.35277777,0,0,0.35277777,65.704357,70.263732)">
      <path
         d="M 105.25,60.695 V 45.41"
         style="fill:none;stroke:#000000;stroke-width:0.80000001;stroke-linecap:butt;stroke-linejoin:miter;stroke-miterlimit:4;stroke-dasharray:none;stroke-opacity:1"
         id="path36"
         inkscape:connector-curvature="0" />
    </g>
    <path
       d="m 74.888926,81.135095 c 0,0.1778 -0.143228,0.321027 -0.321028,0.321027 -0.176388,0 -0.319616,-0.143227 -0.319616,-0.321027 0,-0.176389 0.143228,-0.319617 0.319616,-0.319617 0.1778,0 0.321028,0.143228 0.321028,0.319617 z"
       style="fill:#00ff00;fill-opacity:1;fill-rule:nonzero;stroke:none;stroke-width:0.35277778"
       id="path38"
       inkscape:connector-curvature="0" />
    <g
       id="g40"
       transform="matrix(0.35277777,0,0,0.35277777,65.704357,70.263732)">
      <path
         d="M 0.02,24.242 118.609,12.223"
         style="fill:none;stroke:#808080;stroke-width:0.40000001;stroke-linecap:butt;stroke-linejoin:miter;stroke-miterlimit:4;stroke-dasharray:0.4, 0.4;stroke-dashoffset:0;stroke-opacity:1"
         id="path42"
         inkscape:connector-curvature="0" />
    </g>
    <g
       id="g44"
       transform="matrix(0.35277777,0,0,0.35277777,65.704357,70.263732)">
      <path
         d="m 28.012,0.172 91.117,44.953"
         style="fill:none;stroke:#808080;stroke-width:0.40000001;stroke-linecap:butt;stroke-linejoin:miter;stroke-miterlimit:4;stroke-dasharray:0.4, 0.4;stroke-dashoffset:0;stroke-opacity:1"
         id="path46"
         inkscape:connector-curvature="0" />
    </g>
    <g
       id="g48"
       transform="matrix(0.35277777,0,0,0.35277777,65.704357,70.263732)">
      <path
         d="m 51.805,18.945 c 12.23,-0.746 19.851,2.457 26.82,6.215"
         style="fill:none;stroke:#ff0000;stroke-width:0.40000001;stroke-linecap:butt;stroke-linejoin:miter;stroke-miterlimit:4;stroke-dasharray:none;stroke-opacity:1"
         id="path50"
         inkscape:connector-curvature="0" />
    </g>
    <path
       d="m 84.299626,76.934922 c 0,0.1778 -0.143228,0.321028 -0.319617,0.321028 -0.1778,0 -0.321027,-0.143228 -0.321027,-0.321028 0,-0.176388 0.143227,-0.319969 0.321027,-0.319969 0.176389,0 0.319617,0.143581 0.319617,0.319969 z"
       style="fill:#00ff00;fill-opacity:1;fill-rule:nonzero;stroke:none;stroke-width:0.35277778"
       id="path52"
       inkscape:connector-curvature="0" />
    <path
       d="m 93.743134,79.114736 c 0,0.1778 -0.143228,0.321381 -0.321028,0.321381 -0.176388,0 -0.319616,-0.143581 -0.319616,-0.321381 0,-0.1778 0.143228,-0.321027 0.319616,-0.321027 0.1778,0 0.321028,0.143227 0.321028,0.321027 z"
       style="fill:#00ff00;fill-opacity:1;fill-rule:nonzero;stroke:none;stroke-width:0.35277778"
       id="path54"
       inkscape:connector-curvature="0" />
    <path
       d="m 103.15807,86.300114 c 0,0.176389 -0.14323,0.319617 -0.32103,0.319617 -0.17639,0 -0.31962,-0.143228 -0.31962,-0.319617 0,-0.1778 0.14323,-0.321381 0.31962,-0.321381 0.1778,0 0.32103,0.143581 0.32103,0.321381 z"
       style="fill:#00ff00;fill-opacity:1;fill-rule:nonzero;stroke:none;stroke-width:0.35277778"
       id="path56"
       inkscape:connector-curvature="0" />
    <g
       id="g58"
       transform="matrix(0.35277777,0,0,0.35277777,65.704357,70.263732)">
      <path
         d="M 120.035,60.625 H 5.895"
         style="fill:none;stroke:#000000;stroke-width:0.80000001;stroke-linecap:butt;stroke-linejoin:miter;stroke-miterlimit:4;stroke-dasharray:none;stroke-opacity:1"
         id="path60"
         inkscape:connector-curvature="0" />
    </g>
    <path
       d="m 73.48346,79.393078 h 0.480836 c 0.396875,0 0.789516,-0.290689 0.789516,-0.60325 0,-0.220486 -0.185914,-0.428625 -0.556683,-0.428625 h -0.90805 c -0.05221,0 -0.08396,0 -0.08396,0.05362 0,0.03457 0.02187,0.03457 0.07973,0.03457 0.03598,0 0.08819,0.0053 0.118533,0.0053 0.04974,0.0085 0.06209,0.01235 0.06209,0.04833 0,0.0081 0,0.01799 -0.0081,0.05221 l -0.379236,1.509183 c -0.02752,0.110067 -0.03175,0.132292 -0.256117,0.132292 -0.0441,0 -0.07444,0 -0.07444,0.05221 0,0.03598 0.03034,0.03598 0.03845,0.03598 0.08008,0 0.278342,-0.0099 0.358422,-0.0099 0.06068,0 0.122767,0.0042 0.180622,0.0042 0.06174,0 0.122414,0.0056 0.18027,0.0056 0.02223,0 0.05786,0 0.05786,-0.05785 0,-0.03034 -0.02752,-0.03034 -0.07973,-0.03034 -0.101953,0 -0.180623,0 -0.180623,-0.04974 0,-0.01658 0.0042,-0.03034 0.0081,-0.04833 z m 0.202494,-0.837847 c 0.02611,-0.09631 0.03175,-0.105834 0.154164,-0.105834 h 0.268817 c 0.234244,0 0.384527,0.07585 0.384527,0.269875 0,0.11042 -0.05785,0.352778 -0.167922,0.45332 -0.140758,0.128411 -0.309033,0.150283 -0.431447,0.150283 h -0.396875 z"
       style="fill:#00ff00;fill-opacity:1;fill-rule:nonzero;stroke:none;stroke-width:0.35277778"
       id="path70"
       inkscape:connector-curvature="0" />
    <path
       d="m 75.451254,80.079584 c 0,-0.216606 -0.02611,-0.375003 -0.1143,-0.511175 -0.06209,-0.08819 -0.184856,-0.168275 -0.339019,-0.168275 -0.458964,0 -0.458964,0.538691 -0.458964,0.67945 0,0.141816 0,0.665338 0.458964,0.665338 0.453319,0 0.453319,-0.523522 0.453319,-0.665338 z m -0.453319,0.608894 c -0.09243,0 -0.212373,-0.05362 -0.252237,-0.212019 -0.02611,-0.1143 -0.02611,-0.276931 -0.02611,-0.422981 0,-0.146403 0,-0.294922 0.02611,-0.401108 0.0441,-0.154517 0.167923,-0.198614 0.252237,-0.198614 0.106186,0 0.206727,0.06632 0.242358,0.180622 0.03034,0.106186 0.03457,0.246592 0.03457,0.4191 0,0.14605 0,0.290689 -0.02611,0.414514 -0.04022,0.180622 -0.172509,0.220486 -0.250825,0.220486 z"
       style="fill:#00ff00;fill-opacity:1;fill-rule:nonzero;stroke:none;stroke-width:0.35277778"
       id="path72"
       inkscape:connector-curvature="0" />
    <path
       d="m 82.778096,75.059203 h 0.481188 c 0.396875,0 0.789517,-0.290689 0.789517,-0.603603 0,-0.220486 -0.184503,-0.428272 -0.555272,-0.428272 h -0.90805 c -0.05398,0 -0.08431,0 -0.08431,0.05362 0,0.03457 0.02223,0.03457 0.07867,0.03457 0.03598,0 0.08819,0.0053 0.119945,0.0053 0.04798,0.0085 0.06209,0.01235 0.06209,0.04833 0,0.0081 0,0.01799 -0.0099,0.05221 l -0.378883,1.509183 c -0.02611,0.110067 -0.03034,0.132292 -0.25647,0.132292 -0.0441,0 -0.07444,0 -0.07444,0.05221 0,0.03598 0.03034,0.03598 0.04022,0.03598 0.07832,0 0.27693,-0.0099 0.357011,-0.0099 0.06174,0 0.123825,0.0042 0.180269,0.0042 0.06209,0 0.124178,0.0056 0.180623,0.0056 0.02187,0 0.05786,0 0.05786,-0.05786 0,-0.03034 -0.02611,-0.03034 -0.08008,-0.03034 -0.100542,0 -0.18027,0 -0.18027,-0.04974 0,-0.01658 0.0039,-0.03034 0.0095,-0.04833 z m 0.204258,-0.837847 c 0.02611,-0.09631 0.02999,-0.105833 0.154164,-0.105833 h 0.268816 c 0.232834,0 0.383117,0.07549 0.383117,0.269875 0,0.110419 -0.05644,0.352777 -0.166864,0.453319 C 83.47977,74.967128 83.312907,74.989 83.188729,74.989 h -0.396522 z"
       style="fill:#00ff00;fill-opacity:1;fill-rule:nonzero;stroke:none;stroke-width:0.35277778"
       id="path74"
       inkscape:connector-curvature="0" />
    <path
       d="m 84.390643,75.119881 c 0,-0.05362 0,-0.05362 -0.05786,-0.05362 -0.128411,0.123825 -0.3048,0.123825 -0.383117,0.123825 v 0.07055 c 0.0441,0 0.176389,0 0.281164,-0.05256 v 1.000478 c 0,0.06632 0,0.09243 -0.192969,0.09243 h -0.07585 v 0.0702 c 0.03563,0 0.278341,-0.0081 0.348544,-0.0081 0.06209,0 0.308681,0.0081 0.352778,0.0081 v -0.0702 h -0.07444 c -0.198261,0 -0.198261,-0.02611 -0.198261,-0.09243 z"
       style="fill:#00ff00;fill-opacity:1;fill-rule:nonzero;stroke:none;stroke-width:0.35277778"
       id="path76"
       inkscape:connector-curvature="0" />
    <path
       d="m 93.333912,77.327564 h 0.481189 c 0.396875,0 0.789516,-0.290689 0.789516,-0.605014 0,-0.220486 -0.185913,-0.427214 -0.555272,-0.427214 h -0.909461 c -0.05256,0 -0.0829,0 -0.0829,0.05256 0,0.03563 0.02223,0.03563 0.07867,0.03563 0.03563,0 0.08819,0.0042 0.119944,0.0042 0.04798,0.0095 0.06068,0.01376 0.06068,0.04833 0,0.0095 0,0.01764 -0.0085,0.05362 l -0.378883,1.507419 c -0.02611,0.11042 -0.03175,0.132292 -0.256469,0.132292 -0.0441,0 -0.07444,0 -0.07444,0.05397 0,0.03422 0.03034,0.03422 0.04022,0.03422 0.07832,0 0.276931,-0.0081 0.356659,-0.0081 0.06209,0 0.122766,0.0042 0.180622,0.0042 0.06209,0 0.124178,0.0039 0.180622,0.0039 0.02187,0 0.05786,0 0.05786,-0.05644 0,-0.03175 -0.02611,-0.03175 -0.08008,-0.03175 -0.100542,0 -0.180269,0 -0.180269,-0.04798 0,-0.01799 0.0039,-0.03034 0.0081,-0.04833 z m 0.202847,-0.837847 c 0.02752,-0.09772 0.0314,-0.106186 0.154164,-0.106186 h 0.270228 c 0.232833,0 0.383116,0.07444 0.383116,0.268817 0,0.110066 -0.05786,0.352777 -0.168275,0.45473 -0.140405,0.128058 -0.30868,0.150283 -0.431447,0.150283 H 93.34767 Z"
       style="fill:#00ff00;fill-opacity:1;fill-rule:nonzero;stroke:none;stroke-width:0.35277778"
       id="path78"
       inkscape:connector-curvature="0" />
    <path
       d="m 95.279834,78.282534 h -0.06632 c -0.0039,0.0441 -0.02611,0.158397 -0.05221,0.176388 -0.01376,0.01376 -0.162631,0.01376 -0.194381,0.01376 h -0.360891 c 0.206727,-0.182034 0.27693,-0.238478 0.392641,-0.330553 0.144639,-0.116064 0.281164,-0.238478 0.281164,-0.424744 0,-0.236714 -0.206728,-0.382764 -0.457553,-0.382764 -0.242358,0 -0.410633,0.172155 -0.410633,0.352777 0,0.09631 0.08396,0.110067 0.106186,0.110067 0.0441,0 0.100542,-0.03598 0.100542,-0.106186 0,-0.03422 -0.01235,-0.106186 -0.1143,-0.106186 0.06174,-0.136172 0.19438,-0.18027 0.286455,-0.18027 0.198614,0 0.300567,0.154164 0.300567,0.312562 0,0.172508 -0.124178,0.3048 -0.186267,0.375002 l -0.470958,0.472723 c -0.02223,0.01799 -0.02223,0.02187 -0.02223,0.07444 h 0.811742 z"
       style="fill:#00ff00;fill-opacity:1;fill-rule:nonzero;stroke:none;stroke-width:0.35277778"
       id="path80"
       inkscape:connector-curvature="0" />
    <path
       d="m 102.27612,84.684745 h 0.48084 c 0.39687,0 0.78987,-0.290689 0.78987,-0.60325 0,-0.220487 -0.18486,-0.428625 -0.55563,-0.428625 h -0.90805 c -0.0536,0 -0.084,0 -0.084,0.05362 0,0.03457 0.0219,0.03457 0.0783,0.03457 0.036,0 0.0882,0.0053 0.11994,0.0053 0.0483,0.0085 0.0621,0.01235 0.0621,0.04833 0,0.0081 0,0.01799 -0.01,0.05221 l -0.37889,1.509184 c -0.0264,0.110066 -0.0303,0.132291 -0.25647,0.132291 -0.0441,0 -0.0744,0 -0.0744,0.05221 0,0.03598 0.0303,0.03598 0.0399,0.03598 0.0787,0 0.27693,-0.0099 0.35701,-0.0099 0.0621,0 0.12418,0.0042 0.18063,0.0042 0.0621,0 0.12382,0.0056 0.18027,0.0056 0.0222,0 0.0582,0 0.0582,-0.05786 0,-0.03034 -0.0264,-0.03034 -0.0801,-0.03034 -0.10054,0 -0.18062,0 -0.18062,-0.04974 0,-0.01658 0.004,-0.03034 0.01,-0.04833 z m 0.20391,-0.837848 c 0.0261,-0.09631 0.0303,-0.105833 0.15452,-0.105833 h 0.26846 c 0.23283,0 0.38312,0.07585 0.38312,0.269875 0,0.110419 -0.0564,0.352778 -0.16652,0.453319 -0.14216,0.128412 -0.30868,0.150284 -0.43285,0.150284 h -0.39688 z"
       style="fill:#00ff00;fill-opacity:1;fill-rule:nonzero;stroke:none;stroke-width:0.35277778"
       id="path82"
       inkscape:connector-curvature="0" />
    <path
       d="m 103.76837,85.340911 c 0.15452,0 0.26459,0.106186 0.26459,0.316795 0,0.242711 -0.14464,0.318558 -0.25471,0.318558 -0.0801,0 -0.25647,-0.02223 -0.3362,-0.142169 0.0935,0 0.11571,-0.06597 0.11571,-0.110067 0,-0.06209 -0.0497,-0.106186 -0.11041,-0.106186 -0.0536,0 -0.11007,0.03598 -0.11007,0.115711 0,0.184855 0.20249,0.303036 0.44097,0.303036 0.2727,0 0.46285,-0.184503 0.46285,-0.378883 0,-0.154164 -0.12383,-0.308681 -0.34044,-0.352778 0.20285,-0.07444 0.27835,-0.220486 0.27835,-0.3429 0,-0.154517 -0.17639,-0.270228 -0.39653,-0.270228 -0.2166,0 -0.38452,0.106186 -0.38452,0.264583 0,0.06597 0.0441,0.101953 0.10195,0.101953 0.0617,0 0.10195,-0.0441 0.10195,-0.09631 0,-0.05786 -0.0402,-0.101953 -0.10195,-0.106186 0.0702,-0.08396 0.20249,-0.106186 0.27834,-0.106186 0.0882,0 0.21061,0.0441 0.21061,0.212372 0,0.08255 -0.0261,0.176389 -0.0783,0.232833 -0.0621,0.07585 -0.11994,0.07973 -0.21625,0.08819 -0.0483,0.0039 -0.054,0.0039 -0.0621,0.0039 -0.004,0 -0.0222,0.0056 -0.0222,0.02787 0,0.02611 0.018,0.02611 0.0526,0.02611 z"
       style="fill:#00ff00;fill-opacity:1;fill-rule:nonzero;stroke:none;stroke-width:0.35277778"
       id="path84"
       inkscape:connector-curvature="0" />
    <g
       id="g86"
       transform="matrix(0.35277777,0,0,0.35277777,65.704357,70.263732)">
      <path
         d="M 25.105,60.695 V 30.555"
         style="fill:none;stroke:#000000;stroke-width:0.80000001;stroke-linecap:butt;stroke-linejoin:miter;stroke-miterlimit:4;stroke-dasharray:none;stroke-opacity:1"
         id="path88"
         inkscape:connector-curvature="0" />
    </g>
    <g
       id="g90"
       transform="matrix(0.35277777,0,0,0.35277777,65.704357,70.263732)">
      <path
         d="M 1.746,33.156 120.34,21.133"
         style="fill:none;stroke:#808080;stroke-width:0.40000001;stroke-linecap:butt;stroke-linejoin:miter;stroke-miterlimit:4;stroke-dasharray:0.4, 0.4;stroke-dashoffset:0;stroke-opacity:1"
         id="path92"
         inkscape:connector-curvature="0" />
    </g>
    <g
       id="g94"
       transform="matrix(0.35277777,0,0,0.35277777,65.704357,70.263732)">
      <path
         d="m 25.586,6.133 91.117,44.953"
         style="fill:none;stroke:#808080;stroke-width:0.40000001;stroke-linecap:butt;stroke-linejoin:miter;stroke-miterlimit:4;stroke-dasharray:0.4, 0.4;stroke-dashoffset:0;stroke-opacity:1"
         id="path96"
         inkscape:connector-curvature="0" />
    </g>
    <g
       id="g98"
       transform="matrix(0.35277777,0,0,0.35277777,65.704357,70.263732)">
      <path
         d="M 51.82,60.695 V 18.84"
         style="fill:none;stroke:#000000;stroke-width:0.80000001;stroke-linecap:butt;stroke-linejoin:miter;stroke-miterlimit:4;stroke-dasharray:none;stroke-opacity:1"
         id="path100"
         inkscape:connector-curvature="0" />
    </g>
    <g
       id="g102"
       transform="matrix(0.35277777,0,0,0.35277777,65.704357,70.263732)">
      <path
         d="M 78.535,60.695 V 24.984"
         style="fill:none;stroke:#000000;stroke-width:0.80000001;stroke-linecap:butt;stroke-linejoin:miter;stroke-miterlimit:4;stroke-dasharray:none;stroke-opacity:1"
         id="path104"
         inkscape:connector-curvature="0" />
    </g>
    <g
       id="g106"
       transform="matrix(0.35277777,0,0,0.35277777,65.704357,70.263732)">
      <path
         d="M 105.25,60.695 V 45.41"
         style="fill:none;stroke:#000000;stroke-width:0.80000001;stroke-linecap:butt;stroke-linejoin:miter;stroke-miterlimit:4;stroke-dasharray:none;stroke-opacity:1"
         id="path108"
         inkscape:connector-curvature="0" />
    </g>
    <path
       d="m 74.888926,81.135095 c 0,0.1778 -0.143228,0.321027 -0.321028,0.321027 -0.176388,0 -0.319616,-0.143227 -0.319616,-0.321027 0,-0.176389 0.143228,-0.319617 0.319616,-0.319617 0.1778,0 0.321028,0.143228 0.321028,0.319617 z"
       style="fill:#00ff00;fill-opacity:1;fill-rule:nonzero;stroke:none;stroke-width:0.35277778"
       id="path110"
       inkscape:connector-curvature="0" />
    <g
       id="g112"
       transform="matrix(0.35277777,0,0,0.35277777,65.704357,70.263732)">
      <path
         d="M 0.02,24.242 118.609,12.223"
         style="fill:none;stroke:#808080;stroke-width:0.40000001;stroke-linecap:butt;stroke-linejoin:miter;stroke-miterlimit:4;stroke-dasharray:0.4, 0.4;stroke-dashoffset:0;stroke-opacity:1"
         id="path114"
         inkscape:connector-curvature="0" />
    </g>
    <g
       id="g116"
       transform="matrix(0.35277777,0,0,0.35277777,65.704357,70.263732)">
      <path
         d="m 28.012,0.172 91.117,44.953"
         style="fill:none;stroke:#808080;stroke-width:0.40000001;stroke-linecap:butt;stroke-linejoin:miter;stroke-miterlimit:4;stroke-dasharray:0.4, 0.4;stroke-dashoffset:0;stroke-opacity:1"
         id="path118"
         inkscape:connector-curvature="0" />
    </g>
    <g
       id="g120"
       transform="matrix(0.35277777,0,0,0.35277777,65.704357,70.263732)">
      <path
         d="m 51.805,18.945 c 12.23,-0.746 19.851,2.457 26.82,6.215"
         style="fill:none;stroke:#ff0000;stroke-width:0.40000001;stroke-linecap:butt;stroke-linejoin:miter;stroke-miterlimit:4;stroke-dasharray:none;stroke-opacity:1"
         id="path122"
         inkscape:connector-curvature="0" />
    </g>
    <path
       d="m 84.299626,76.934922 c 0,0.1778 -0.143228,0.321028 -0.319617,0.321028 -0.1778,0 -0.321027,-0.143228 -0.321027,-0.321028 0,-0.176388 0.143227,-0.319969 0.321027,-0.319969 0.176389,0 0.319617,0.143581 0.319617,0.319969 z"
       style="fill:#00ff00;fill-opacity:1;fill-rule:nonzero;stroke:none;stroke-width:0.35277778"
       id="path124"
       inkscape:connector-curvature="0" />
    <path
       d="m 93.743134,79.114736 c 0,0.1778 -0.143228,0.321381 -0.321028,0.321381 -0.176388,0 -0.319616,-0.143581 -0.319616,-0.321381 0,-0.1778 0.143228,-0.321027 0.319616,-0.321027 0.1778,0 0.321028,0.143227 0.321028,0.321027 z"
       style="fill:#00ff00;fill-opacity:1;fill-rule:nonzero;stroke:none;stroke-width:0.35277778"
       id="path126"
       inkscape:connector-curvature="0" />
    <path
       d="m 103.15807,86.300114 c 0,0.176389 -0.14323,0.319617 -0.32103,0.319617 -0.17639,0 -0.31962,-0.143228 -0.31962,-0.319617 0,-0.1778 0.14323,-0.321381 0.31962,-0.321381 0.1778,0 0.32103,0.143581 0.32103,0.321381 z"
       style="fill:#00ff00;fill-opacity:1;fill-rule:nonzero;stroke:none;stroke-width:0.35277778"
       id="path128"
       inkscape:connector-curvature="0" />
    <g
       id="g130"
       transform="matrix(0.35277777,0,0,0.35277777,65.704357,70.263732)">
      <path
         d="M 120.035,60.625 H 5.895"
         style="fill:none;stroke:#000000;stroke-width:0.80000001;stroke-linecap:butt;stroke-linejoin:miter;stroke-miterlimit:4;stroke-dasharray:none;stroke-opacity:1"
         id="path132"
         inkscape:connector-curvature="0" />
    </g>
    <path
       d="m 73.48346,79.393078 h 0.480836 c 0.396875,0 0.789516,-0.290689 0.789516,-0.60325 0,-0.220486 -0.185914,-0.428625 -0.556683,-0.428625 h -0.90805 c -0.05221,0 -0.08396,0 -0.08396,0.05362 0,0.03457 0.02187,0.03457 0.07973,0.03457 0.03598,0 0.08819,0.0053 0.118533,0.0053 0.04974,0.0085 0.06209,0.01235 0.06209,0.04833 0,0.0081 0,0.01799 -0.0081,0.05221 l -0.379236,1.509183 c -0.02752,0.110067 -0.03175,0.132292 -0.256117,0.132292 -0.0441,0 -0.07444,0 -0.07444,0.05221 0,0.03598 0.03034,0.03598 0.03845,0.03598 0.08008,0 0.278342,-0.0099 0.358422,-0.0099 0.06068,0 0.122767,0.0042 0.180622,0.0042 0.06174,0 0.122414,0.0056 0.18027,0.0056 0.02223,0 0.05786,0 0.05786,-0.05785 0,-0.03034 -0.02752,-0.03034 -0.07973,-0.03034 -0.101953,0 -0.180623,0 -0.180623,-0.04974 0,-0.01658 0.0042,-0.03034 0.0081,-0.04833 z m 0.202494,-0.837847 c 0.02611,-0.09631 0.03175,-0.105834 0.154164,-0.105834 h 0.268817 c 0.234244,0 0.384527,0.07585 0.384527,0.269875 0,0.11042 -0.05785,0.352778 -0.167922,0.45332 -0.140758,0.128411 -0.309033,0.150283 -0.431447,0.150283 h -0.396875 z"
       style="fill:#00ff00;fill-opacity:1;fill-rule:nonzero;stroke:none;stroke-width:0.35277778"
       id="path142"
       inkscape:connector-curvature="0" />
    <path
       d="m 75.451254,80.079584 c 0,-0.216606 -0.02611,-0.375003 -0.1143,-0.511175 -0.06209,-0.08819 -0.184856,-0.168275 -0.339019,-0.168275 -0.458964,0 -0.458964,0.538691 -0.458964,0.67945 0,0.141816 0,0.665338 0.458964,0.665338 0.453319,0 0.453319,-0.523522 0.453319,-0.665338 z m -0.453319,0.608894 c -0.09243,0 -0.212373,-0.05362 -0.252237,-0.212019 -0.02611,-0.1143 -0.02611,-0.276931 -0.02611,-0.422981 0,-0.146403 0,-0.294922 0.02611,-0.401108 0.0441,-0.154517 0.167923,-0.198614 0.252237,-0.198614 0.106186,0 0.206727,0.06632 0.242358,0.180622 0.03034,0.106186 0.03457,0.246592 0.03457,0.4191 0,0.14605 0,0.290689 -0.02611,0.414514 -0.04022,0.180622 -0.172509,0.220486 -0.250825,0.220486 z"
       style="fill:#00ff00;fill-opacity:1;fill-rule:nonzero;stroke:none;stroke-width:0.35277778"
       id="path144"
       inkscape:connector-curvature="0" />
    <path
       d="m 82.778096,75.059203 h 0.481188 c 0.396875,0 0.789517,-0.290689 0.789517,-0.603603 0,-0.220486 -0.184503,-0.428272 -0.555272,-0.428272 h -0.90805 c -0.05398,0 -0.08431,0 -0.08431,0.05362 0,0.03457 0.02223,0.03457 0.07867,0.03457 0.03598,0 0.08819,0.0053 0.119945,0.0053 0.04798,0.0085 0.06209,0.01235 0.06209,0.04833 0,0.0081 0,0.01799 -0.0099,0.05221 l -0.378883,1.509183 c -0.02611,0.110067 -0.03034,0.132292 -0.25647,0.132292 -0.0441,0 -0.07444,0 -0.07444,0.05221 0,0.03598 0.03034,0.03598 0.04022,0.03598 0.07832,0 0.27693,-0.0099 0.357011,-0.0099 0.06174,0 0.123825,0.0042 0.180269,0.0042 0.06209,0 0.124178,0.0056 0.180623,0.0056 0.02187,0 0.05786,0 0.05786,-0.05786 0,-0.03034 -0.02611,-0.03034 -0.08008,-0.03034 -0.100542,0 -0.18027,0 -0.18027,-0.04974 0,-0.01658 0.0039,-0.03034 0.0095,-0.04833 z m 0.204258,-0.837847 c 0.02611,-0.09631 0.02999,-0.105833 0.154164,-0.105833 h 0.268816 c 0.232834,0 0.383117,0.07549 0.383117,0.269875 0,0.110419 -0.05644,0.352777 -0.166864,0.453319 C 83.47977,74.967128 83.312907,74.989 83.188729,74.989 h -0.396522 z"
       style="fill:#00ff00;fill-opacity:1;fill-rule:nonzero;stroke:none;stroke-width:0.35277778"
       id="path146"
       inkscape:connector-curvature="0" />
    <path
       d="m 84.390643,75.119881 c 0,-0.05362 0,-0.05362 -0.05786,-0.05362 -0.128411,0.123825 -0.3048,0.123825 -0.383117,0.123825 v 0.07055 c 0.0441,0 0.176389,0 0.281164,-0.05256 v 1.000478 c 0,0.06632 0,0.09243 -0.192969,0.09243 h -0.07585 v 0.0702 c 0.03563,0 0.278341,-0.0081 0.348544,-0.0081 0.06209,0 0.308681,0.0081 0.352778,0.0081 v -0.0702 h -0.07444 c -0.198261,0 -0.198261,-0.02611 -0.198261,-0.09243 z"
       style="fill:#00ff00;fill-opacity:1;fill-rule:nonzero;stroke:none;stroke-width:0.35277778"
       id="path148"
       inkscape:connector-curvature="0" />
    <path
       d="m 93.333912,77.327564 h 0.481189 c 0.396875,0 0.789516,-0.290689 0.789516,-0.605014 0,-0.220486 -0.185913,-0.427214 -0.555272,-0.427214 h -0.909461 c -0.05256,0 -0.0829,0 -0.0829,0.05256 0,0.03563 0.02223,0.03563 0.07867,0.03563 0.03563,0 0.08819,0.0042 0.119944,0.0042 0.04798,0.0095 0.06068,0.01376 0.06068,0.04833 0,0.0095 0,0.01764 -0.0085,0.05362 l -0.378883,1.507419 c -0.02611,0.11042 -0.03175,0.132292 -0.256469,0.132292 -0.0441,0 -0.07444,0 -0.07444,0.05397 0,0.03422 0.03034,0.03422 0.04022,0.03422 0.07832,0 0.276931,-0.0081 0.356659,-0.0081 0.06209,0 0.122766,0.0042 0.180622,0.0042 0.06209,0 0.124178,0.0039 0.180622,0.0039 0.02187,0 0.05786,0 0.05786,-0.05644 0,-0.03175 -0.02611,-0.03175 -0.08008,-0.03175 -0.100542,0 -0.180269,0 -0.180269,-0.04798 0,-0.01799 0.0039,-0.03034 0.0081,-0.04833 z m 0.202847,-0.837847 c 0.02752,-0.09772 0.0314,-0.106186 0.154164,-0.106186 h 0.270228 c 0.232833,0 0.383116,0.07444 0.383116,0.268817 0,0.110066 -0.05786,0.352777 -0.168275,0.45473 -0.140405,0.128058 -0.30868,0.150283 -0.431447,0.150283 H 93.34767 Z"
       style="fill:#00ff00;fill-opacity:1;fill-rule:nonzero;stroke:none;stroke-width:0.35277778"
       id="path150"
       inkscape:connector-curvature="0" />
    <path
       d="m 95.279834,78.282534 h -0.06632 c -0.0039,0.0441 -0.02611,0.158397 -0.05221,0.176388 -0.01376,0.01376 -0.162631,0.01376 -0.194381,0.01376 h -0.360891 c 0.206727,-0.182034 0.27693,-0.238478 0.392641,-0.330553 0.144639,-0.116064 0.281164,-0.238478 0.281164,-0.424744 0,-0.236714 -0.206728,-0.382764 -0.457553,-0.382764 -0.242358,0 -0.410633,0.172155 -0.410633,0.352777 0,0.09631 0.08396,0.110067 0.106186,0.110067 0.0441,0 0.100542,-0.03598 0.100542,-0.106186 0,-0.03422 -0.01235,-0.106186 -0.1143,-0.106186 0.06174,-0.136172 0.19438,-0.18027 0.286455,-0.18027 0.198614,0 0.300567,0.154164 0.300567,0.312562 0,0.172508 -0.124178,0.3048 -0.186267,0.375002 l -0.470958,0.472723 c -0.02223,0.01799 -0.02223,0.02187 -0.02223,0.07444 h 0.811742 z"
       style="fill:#00ff00;fill-opacity:1;fill-rule:nonzero;stroke:none;stroke-width:0.35277778"
       id="path152"
       inkscape:connector-curvature="0" />
    <path
       d="m 102.27612,84.684745 h 0.48084 c 0.39687,0 0.78987,-0.290689 0.78987,-0.60325 0,-0.220487 -0.18486,-0.428625 -0.55563,-0.428625 h -0.90805 c -0.0536,0 -0.084,0 -0.084,0.05362 0,0.03457 0.0219,0.03457 0.0783,0.03457 0.036,0 0.0882,0.0053 0.11994,0.0053 0.0483,0.0085 0.0621,0.01235 0.0621,0.04833 0,0.0081 0,0.01799 -0.01,0.05221 l -0.37889,1.509184 c -0.0264,0.110066 -0.0303,0.132291 -0.25647,0.132291 -0.0441,0 -0.0744,0 -0.0744,0.05221 0,0.03598 0.0303,0.03598 0.0399,0.03598 0.0787,0 0.27693,-0.0099 0.35701,-0.0099 0.0621,0 0.12418,0.0042 0.18063,0.0042 0.0621,0 0.12382,0.0056 0.18027,0.0056 0.0222,0 0.0582,0 0.0582,-0.05786 0,-0.03034 -0.0264,-0.03034 -0.0801,-0.03034 -0.10054,0 -0.18062,0 -0.18062,-0.04974 0,-0.01658 0.004,-0.03034 0.01,-0.04833 z m 0.20391,-0.837848 c 0.0261,-0.09631 0.0303,-0.105833 0.15452,-0.105833 h 0.26846 c 0.23283,0 0.38312,0.07585 0.38312,0.269875 0,0.110419 -0.0564,0.352778 -0.16652,0.453319 -0.14216,0.128412 -0.30868,0.150284 -0.43285,0.150284 h -0.39688 z"
       style="fill:#00ff00;fill-opacity:1;fill-rule:nonzero;stroke:none;stroke-width:0.35277778"
       id="path154"
       inkscape:connector-curvature="0" />
    <path
       d="m 103.76837,85.340911 c 0.15452,0 0.26459,0.106186 0.26459,0.316795 0,0.242711 -0.14464,0.318558 -0.25471,0.318558 -0.0801,0 -0.25647,-0.02223 -0.3362,-0.142169 0.0935,0 0.11571,-0.06597 0.11571,-0.110067 0,-0.06209 -0.0497,-0.106186 -0.11041,-0.106186 -0.0536,0 -0.11007,0.03598 -0.11007,0.115711 0,0.184855 0.20249,0.303036 0.44097,0.303036 0.2727,0 0.46285,-0.184503 0.46285,-0.378883 0,-0.154164 -0.12383,-0.308681 -0.34044,-0.352778 0.20285,-0.07444 0.27835,-0.220486 0.27835,-0.3429 0,-0.154517 -0.17639,-0.270228 -0.39653,-0.270228 -0.2166,0 -0.38452,0.106186 -0.38452,0.264583 0,0.06597 0.0441,0.101953 0.10195,0.101953 0.0617,0 0.10195,-0.0441 0.10195,-0.09631 0,-0.05786 -0.0402,-0.101953 -0.10195,-0.106186 0.0702,-0.08396 0.20249,-0.106186 0.27834,-0.106186 0.0882,0 0.21061,0.0441 0.21061,0.212372 0,0.08255 -0.0261,0.176389 -0.0783,0.232833 -0.0621,0.07585 -0.11994,0.07973 -0.21625,0.08819 -0.0483,0.0039 -0.054,0.0039 -0.0621,0.0039 -0.004,0 -0.0222,0.0056 -0.0222,0.02787 0,0.02611 0.018,0.02611 0.0526,0.02611 z"
       style="fill:#00ff00;fill-opacity:1;fill-rule:nonzero;stroke:none;stroke-width:0.35277778"
       id="path156"
       inkscape:connector-curvature="0" />
    <path
       d="m 87.77484,73.263564 h 0.242711 c 0.05786,0 0.08396,0 0.08396,-0.05786 0,-0.03034 -0.02611,-0.03034 -0.07444,-0.03034 h -0.234244 l 0.05785,-0.322439 c 0.01235,-0.05644 0.05256,-0.254706 0.07056,-0.290689 0.02187,-0.05221 0.0702,-0.09631 0.132291,-0.09631 0.0081,0 0.08396,0 0.136173,0.05221 -0.123825,0.0085 -0.154164,0.110419 -0.154164,0.150283 0,0.06597 0.05221,0.100542 0.106186,0.100542 0.07408,0 0.154164,-0.06597 0.154164,-0.170745 0,-0.128411 -0.128059,-0.19438 -0.242359,-0.19438 -0.09807,0 -0.274461,0.05221 -0.357011,0.330553 -0.01799,0.0568 -0.02752,0.08819 -0.09384,0.440972 h -0.192969 c -0.05786,0 -0.08819,0 -0.08819,0.05256 0,0.03563 0.02646,0.03563 0.07867,0.03563 h 0.185914 l -0.207786,1.110897 c -0.05256,0.274109 -0.100895,0.529167 -0.246945,0.529167 -0.01376,0 -0.07973,0 -0.136172,-0.05256 0.132292,-0.0095 0.158397,-0.110066 0.158397,-0.14993 0,-0.06632 -0.05256,-0.101953 -0.106186,-0.101953 -0.07444,0 -0.154517,0.06597 -0.154517,0.172155 0,0.123825 0.124178,0.194381 0.238478,0.194381 0.154517,0 0.268817,-0.168275 0.317147,-0.27305 0.09349,-0.176389 0.154164,-0.516819 0.159809,-0.538692 z"
       style="fill:#ff0000;fill-opacity:1;fill-rule:nonzero;stroke:none;stroke-width:0.35277778"
       id="path158"
       inkscape:connector-curvature="0" />
    <path
       d="m 89.352815,75.062025 c 0,-0.0081 0,-0.01235 -0.04833,-0.06068 -0.348544,-0.352778 -0.440972,-0.887237 -0.440972,-1.318684 0,-0.489303 0.106186,-0.979664 0.455083,-1.32715 0.03422,-0.03563 0.03422,-0.03986 0.03422,-0.04939 0,-0.02222 -0.0081,-0.03034 -0.02611,-0.03034 -0.03034,0 -0.282575,0.194028 -0.449086,0.551039 -0.142169,0.308681 -0.176389,0.621595 -0.176389,0.855839 0,0.220486 0.02999,0.559506 0.184503,0.881945 0.172156,0.343252 0.410633,0.529166 0.440972,0.529166 0.01799,0 0.02611,-0.0095 0.02611,-0.03175 z"
       style="fill:#ff0000;fill-opacity:1;fill-rule:nonzero;stroke:none;stroke-width:0.35277778"
       id="path160"
       inkscape:connector-curvature="0" />
    <path
       d="m 90.094354,73.263564 h 0.264583 c 0.05644,0 0.08819,0 0.08819,-0.05786 0,-0.03034 -0.03175,-0.03034 -0.08008,-0.03034 h -0.246592 c 0.100542,-0.400756 0.1143,-0.454731 0.1143,-0.47237 0,-0.04833 -0.03563,-0.07444 -0.08396,-0.07444 -0.0085,0 -0.08819,0 -0.110419,0.101953 l -0.110067,0.444853 h -0.264583 c -0.05644,0 -0.08396,0 -0.08396,0.05256 0,0.03563 0.02187,0.03563 0.07973,0.03563 h 0.246592 c -0.202494,0.797984 -0.216253,0.846314 -0.216253,0.894645 0,0.154164 0.106186,0.26035 0.26035,0.26035 0.286809,0 0.445206,-0.409223 0.445206,-0.431448 0,-0.03175 -0.02187,-0.03175 -0.03034,-0.03175 -0.02611,0 -0.03034,0.0099 -0.0441,0.04022 -0.118534,0.294922 -0.268817,0.360892 -0.366536,0.360892 -0.05644,0 -0.08819,-0.03457 -0.08819,-0.126647 0,-0.07161 0.0095,-0.08819 0.01799,-0.137937 z"
       style="fill:#ff0000;fill-opacity:1;fill-rule:nonzero;stroke:none;stroke-width:0.35277778"
       id="path162"
       inkscape:connector-curvature="0" />
    <path
       d="m 91.342834,73.682664 c 0,-0.216253 -0.03034,-0.555272 -0.184855,-0.877711 -0.167923,-0.344664 -0.410634,-0.529167 -0.436739,-0.529167 -0.01799,0 -0.03175,0.01376 -0.03175,0.03034 0,0.0095 0,0.01376 0.05397,0.06597 0.27693,0.278341 0.436739,0.723547 0.436739,1.310569 0,0.48507 -0.101953,0.978253 -0.450498,1.331031 -0.04022,0.03598 -0.04022,0.04022 -0.04022,0.04833 0,0.01799 0.01376,0.03175 0.03175,0.03175 0.02611,0 0.282575,-0.19438 0.445205,-0.551391 0.14605,-0.308681 0.176389,-0.621242 0.176389,-0.85972 z"
       style="fill:#ff0000;fill-opacity:1;fill-rule:nonzero;stroke:none;stroke-width:0.35277778"
       id="path164"
       inkscape:connector-curvature="0" />
    <g
       ns0:jacobian_sqrt="0.352778"
       ns0:alignment="middle center"
       ns0:scale="1.0"
       ns0:preamble="/home/dormon/.config/inkscape/extensions/default_packages.tex"
       ns0:text="$t$"
       ns0:pdfconverter="pstoedit"
       ns0:texconverter="pdflatex"
       ns0:version="0.8.1"
       word-spacing="normal"
       letter-spacing="normal"
       font-size-adjust="none"
       font-stretch="normal"
       font-weight="normal"
       font-variant="normal"
       font-style="normal"
       stroke-miterlimit="10.433"
       xml:space="preserve"
       transform="matrix(0.352778,0,0,-0.352778,53.914848,326.22055)"
       id="content"
       style="font-style:normal;font-variant:normal;font-weight:normal;font-stretch:normal;letter-spacing:normal;word-spacing:normal;text-anchor:start;fill:none;fill-opacity:1;fill-rule:evenodd;stroke:#000000;stroke-linecap:butt;stroke-linejoin:miter;stroke-miterlimit:10.43299961;stroke-dasharray:none;stroke-dashoffset:0;stroke-opacity:1">
<path
   id="path497"
   d="m 150.77,661.21 h 0.93 c 0.2,0 0.3,0 0.3,0.2 0,0.11 -0.1,0.11 -0.28,0.11 h -0.87 c 0.36,1.41 0.41,1.61 0.41,1.66 0,0.17 -0.13,0.27 -0.29,0.27 -0.03,0 -0.31,-0.01 -0.4,-0.35 l -0.39,-1.58 h -0.94 c -0.2,0 -0.3,0 -0.3,-0.19 0,-0.12 0.08,-0.12 0.28,-0.12 h 0.88 c -0.72,-2.82 -0.76,-2.99 -0.76,-3.17 0,-0.54 0.38,-0.91 0.92,-0.91 1.01,0 1.58,1.45 1.58,1.53 0,0.1 -0.08,0.1 -0.12,0.1 -0.09,0 -0.1,-0.04 -0.15,-0.14 -0.42,-1.04 -0.95,-1.28 -1.29,-1.28 -0.21,0 -0.31,0.13 -0.31,0.46 0,0.24 0.02,0.31 0.06,0.48 z"
   inkscape:connector-curvature="0"
   style="fill:#000000;stroke-width:0" />
</g>    <text
       xml:space="preserve"
       style="font-style:normal;font-weight:normal;font-size:2.28843641px;line-height:1.25;font-family:sans-serif;letter-spacing:0px;word-spacing:0px;fill:#000000;fill-opacity:1;stroke:none;stroke-width:0.17163272"
       x="73.203773"
       y="93.715965"
       id="text907"><tspan
         sodipodi:role="line"
         id="tspan905"
         x="73.203773"
         y="93.715965"
         style="stroke-width:0.17163272">0</tspan></text>
    <text
       xml:space="preserve"
       style="font-style:normal;font-weight:normal;font-size:2.28843641px;line-height:1.25;font-family:sans-serif;letter-spacing:0px;word-spacing:0px;fill:#000000;fill-opacity:1;stroke:none;stroke-width:0.17163272"
       x="82.557098"
       y="93.748367"
       id="text911"><tspan
         sodipodi:role="line"
         id="tspan909"
         x="82.557098"
         y="93.748367"
         style="stroke-width:0.17163272">1</tspan></text>
    <text
       xml:space="preserve"
       style="font-style:normal;font-weight:normal;font-size:2.28843641px;line-height:1.25;font-family:sans-serif;letter-spacing:0px;word-spacing:0px;fill:#000000;fill-opacity:1;stroke:none;stroke-width:0.17163272"
       x="91.981934"
       y="93.748367"
       id="text915"><tspan
         sodipodi:role="line"
         id="tspan913"
         x="91.981934"
         y="93.748367"
         style="stroke-width:0.17163272">2</tspan></text>
    <text
       xml:space="preserve"
       style="font-style:normal;font-weight:normal;font-size:2.28843641px;line-height:1.25;font-family:sans-serif;letter-spacing:0px;word-spacing:0px;fill:#000000;fill-opacity:1;stroke:none;stroke-width:0.17163272"
       x="101.32967"
       y="93.715965"
       id="text919"><tspan
         sodipodi:role="line"
         id="tspan917"
         x="101.32967"
         y="93.715965"
         style="stroke-width:0.17163272">3</tspan></text>
  </g>
</svg>
