<?xml version="1.0" encoding="UTF-8" standalone="no"?>
<!-- Created with Inkscape (http://www.inkscape.org/) -->

<svg
   xmlns:ns0="http://www.iki.fi/pav/software/textext/"
   xmlns:dc="http://purl.org/dc/elements/1.1/"
   xmlns:cc="http://creativecommons.org/ns#"
   xmlns:rdf="http://www.w3.org/1999/02/22-rdf-syntax-ns#"
   xmlns:svg="http://www.w3.org/2000/svg"
   xmlns="http://www.w3.org/2000/svg"
   xmlns:xlink="http://www.w3.org/1999/xlink"
   xmlns:sodipodi="http://sodipodi.sourceforge.net/DTD/sodipodi-0.dtd"
   xmlns:inkscape="http://www.inkscape.org/namespaces/inkscape"
   width="182.44914"
   height="155.83604"
   id="svg2"
   inkscape:label="Pozadí"
   version="1.1"
   inkscape:version="0.48.3.1 r9886"
   sodipodi:docname="bezier2.svg">
  <sodipodi:namedview
     id="base"
     pagecolor="#ffffff"
     bordercolor="#666666"
     borderopacity="1.0"
     inkscape:pageopacity="0.0"
     inkscape:pageshadow="2"
     inkscape:zoom="2.8"
     inkscape:cx="201.38167"
     inkscape:cy="42.350612"
     inkscape:document-units="px"
     inkscape:current-layer="layer1"
     showgrid="false"
     inkscape:window-width="1919"
     inkscape:window-height="1052"
     inkscape:window-x="1"
     inkscape:window-y="0"
     inkscape:window-maximized="1"
     fit-margin-top="0"
     fit-margin-left="0"
     fit-margin-right="0"
     fit-margin-bottom="0" />
  <defs
     id="defs4627">
    <defs
       id="defs5960">
      <g
         id="g5962">
        <symbol
           style="overflow:visible"
           id="textext-a1abe941-0"
           overflow="visible">
          <path
             inkscape:connector-curvature="0"
             id="path5965"
             d="m 3.015625,-3.15625 1.703125,0 c 1.40625,0 2.796875,-1.03125 2.796875,-2.140625 0,-0.78125 -0.65625,-1.515625 -1.96875,-1.515625 l -3.21875,0 c -0.1875,0 -0.296875,0 -0.296875,0.1875 0,0.125 0.078125,0.125 0.28125,0.125 0.125,0 0.3125,0.015625 0.421875,0.015625 0.171875,0.03125 0.21875,0.046875 0.21875,0.171875 0,0.03125 0,0.0625 -0.03125,0.1875 l -1.34375,5.34375 c -0.09375,0.390625 -0.109375,0.46875 -0.90625,0.46875 -0.15625,0 -0.265625,0 -0.265625,0.1875 C 0.40625,0 0.515625,0 0.546875,0 0.828125,0 1.53125,-0.03125 1.8125,-0.03125 c 0.21875,0 0.4375,0.015625 0.640625,0.015625 0.21875,0 0.4375,0.015625 0.640625,0.015625 0.078125,0 0.203125,0 0.203125,-0.203125 0,-0.109375 -0.09375,-0.109375 -0.28125,-0.109375 -0.359375,0 -0.640625,0 -0.640625,-0.171875 0,-0.0625 0.015625,-0.109375 0.03125,-0.171875 z M 3.734375,-6.125 C 3.828125,-6.46875 3.84375,-6.5 4.28125,-6.5 l 0.953125,0 c 0.828125,0 1.359375,0.265625 1.359375,0.953125 0,0.390625 -0.203125,1.25 -0.59375,1.609375 -0.5,0.453125 -1.09375,0.53125 -1.53125,0.53125 l -1.40625,0 z m 0,0"
             style="stroke:none" />
        </symbol>
        <symbol
           style="overflow:visible"
           id="textext-a1abe941-1"
           overflow="visible">
          <path
             inkscape:connector-curvature="0"
             id="path5968"
             d="M 3.59375,-2.21875 C 3.59375,-2.984375 3.5,-3.546875 3.1875,-4.03125 2.96875,-4.34375 2.53125,-4.625 1.984375,-4.625 c -1.625,0 -1.625,1.90625 -1.625,2.40625 0,0.5 0,2.359375 1.625,2.359375 1.609375,0 1.609375,-1.859375 1.609375,-2.359375 z M 1.984375,-0.0625 c -0.328125,0 -0.75,-0.1875 -0.890625,-0.75 C 1,-1.21875 1,-1.796875 1,-2.3125 1,-2.828125 1,-3.359375 1.09375,-3.734375 1.25,-4.28125 1.6875,-4.4375 1.984375,-4.4375 c 0.375,0 0.734375,0.234375 0.859375,0.640625 0.109375,0.375 0.125,0.875 0.125,1.484375 0,0.515625 0,1.03125 -0.09375,1.46875 -0.140625,0.640625 -0.609375,0.78125 -0.890625,0.78125 z m 0,0"
             style="stroke:none" />
        </symbol>
        <symbol
           style="overflow:visible"
           id="textext-a1abe941-2"
           overflow="visible">
          <path
             inkscape:connector-curvature="0"
             id="path5971"
             d="m 2.328125,-4.4375 c 0,-0.1875 0,-0.1875 -0.203125,-0.1875 -0.453125,0.4375 -1.078125,0.4375 -1.359375,0.4375 l 0,0.25 c 0.15625,0 0.625,0 1,-0.1875 l 0,3.546875 c 0,0.234375 0,0.328125 -0.6875,0.328125 l -0.265625,0 0,0.25 c 0.125,0 0.984375,-0.03125 1.234375,-0.03125 0.21875,0 1.09375,0.03125 1.25,0.03125 l 0,-0.25 -0.265625,0 c -0.703125,0 -0.703125,-0.09375 -0.703125,-0.328125 z m 0,0"
             style="stroke:none" />
        </symbol>
        <symbol
           style="overflow:visible"
           id="textext-a1abe941-3"
           overflow="visible">
          <path
             inkscape:connector-curvature="0"
             id="path5974"
             d="m 1.90625,-2.328125 c 0.546875,0 0.9375,0.375 0.9375,1.125 0,0.859375 -0.515625,1.125 -0.90625,1.125 -0.28125,0 -0.90625,-0.078125 -1.1875,-0.5 0.328125,0 0.40625,-0.234375 0.40625,-0.390625 0,-0.21875 -0.171875,-0.375 -0.390625,-0.375 -0.1875,0 -0.390625,0.125 -0.390625,0.40625 0,0.65625 0.71875,1.078125 1.5625,1.078125 0.96875,0 1.640625,-0.65625 1.640625,-1.34375 0,-0.546875 -0.4375,-1.09375 -1.203125,-1.25 0.71875,-0.265625 0.984375,-0.78125 0.984375,-1.21875 0,-0.546875 -0.625,-0.953125 -1.40625,-0.953125 -0.765625,0 -1.359375,0.375 -1.359375,0.9375 0,0.234375 0.15625,0.359375 0.359375,0.359375 0.21875,0 0.359375,-0.15625 0.359375,-0.34375 0,-0.203125 -0.140625,-0.359375 -0.359375,-0.375 0.25,-0.296875 0.71875,-0.375 0.984375,-0.375 0.3125,0 0.75,0.15625 0.75,0.75 0,0.296875 -0.09375,0.625 -0.28125,0.828125 -0.21875,0.265625 -0.421875,0.28125 -0.765625,0.3125 -0.171875,0.015625 -0.1875,0.015625 -0.21875,0.015625 -0.015625,0 -0.078125,0.015625 -0.078125,0.09375 0,0.09375 0.0625,0.09375 0.1875,0.09375 z m 0,0"
             style="stroke:none" />
        </symbol>
        <symbol
           style="overflow:visible"
           id="textext-a1abe941-4"
           overflow="visible">
          <path
             inkscape:connector-curvature="0"
             id="path5977"
             d="m 1.46875,-0.109375 c 0,0.375 -0.0625,0.828125 -0.546875,1.265625 C 0.90625,1.1875 0.875,1.21875 0.875,1.25 c 0,0.046875 0.0625,0.09375 0.09375,0.09375 0.109375,0 0.703125,-0.5625 0.703125,-1.390625 0,-0.421875 -0.171875,-0.75 -0.5,-0.75 -0.21875,0 -0.390625,0.171875 -0.390625,0.390625 C 0.78125,-0.1875 0.9375,0 1.1875,0 1.359375,0 1.46875,-0.109375 1.46875,-0.109375 z m 0,0"
             style="stroke:none" />
        </symbol>
      </g>
    </defs>
    <defs
       id="defs7420">
      <g
         id="g7422">
        <symbol
           id="textext-c2c48216-0"
           overflow="visible"
           style="overflow:visible">
          <path
             id="path7425"
             d="m 3.734375,-6.125 c 0.0625,-0.234375 0.09375,-0.328125 0.28125,-0.359375 C 4.109375,-6.5 4.421875,-6.5 4.625,-6.5 c 0.703125,0 1.8125,0 1.8125,0.984375 0,0.34375 -0.15625,1.03125 -0.546875,1.421875 -0.265625,0.25 -0.78125,0.578125 -1.6875,0.578125 l -1.109375,0 z m 1.4375,2.734375 c 1.015625,-0.21875 2.1875,-0.921875 2.1875,-1.921875 0,-0.859375 -0.890625,-1.5 -2.203125,-1.5 l -2.828125,0 c -0.203125,0 -0.296875,0 -0.296875,0.203125 C 2.03125,-6.5 2.125,-6.5 2.3125,-6.5 c 0.015625,0 0.203125,0 0.375,0.015625 0.1875,0.03125 0.265625,0.03125 0.265625,0.171875 0,0.03125 0,0.0625 -0.03125,0.1875 l -1.34375,5.34375 C 1.484375,-0.390625 1.46875,-0.3125 0.671875,-0.3125 0.5,-0.3125 0.40625,-0.3125 0.40625,-0.109375 0.40625,0 0.53125,0 0.546875,0 c 0.28125,0 0.984375,-0.03125 1.25,-0.03125 0.28125,0 1,0.03125 1.28125,0.03125 0.078125,0 0.1875,0 0.1875,-0.203125 0,-0.109375 -0.078125,-0.109375 -0.28125,-0.109375 -0.359375,0 -0.640625,0 -0.640625,-0.171875 0,-0.0625 0.015625,-0.109375 0.03125,-0.171875 l 0.65625,-2.640625 1.1875,0 c 0.90625,0 1.078125,0.5625 1.078125,0.90625 0,0.140625 -0.078125,0.453125 -0.140625,0.6875 C 5.09375,-1.421875 5,-1.0625 5,-0.859375 5,0.21875 6.203125,0.21875 6.328125,0.21875 c 0.84375,0 1.203125,-1 1.203125,-1.140625 0,-0.125 -0.109375,-0.125 -0.125,-0.125 -0.09375,0 -0.109375,0.0625 -0.125,0.140625 C 7.03125,-0.171875 6.59375,0 6.375,0 6.046875,0 5.96875,-0.21875 5.96875,-0.609375 c 0,-0.3125 0.0625,-0.8125 0.109375,-1.140625 0.015625,-0.140625 0.03125,-0.328125 0.03125,-0.46875 0,-0.765625 -0.671875,-1.078125 -0.9375,-1.171875 z m 0,0"
             style="stroke:none"
             inkscape:connector-curvature="0" />
        </symbol>
        <symbol
           id="textext-c2c48216-1"
           overflow="visible"
           style="overflow:visible">
          <path
             id="path7428"
             d="m 6.4375,-6.921875 c 0,-0.03125 -0.03125,-0.109375 -0.125,-0.109375 -0.046875,0 -0.046875,0.015625 -0.171875,0.15625 L 5.65625,-6.3125 c -0.25,-0.46875 -0.765625,-0.71875 -1.421875,-0.71875 -1.265625,0 -2.453125,1.15625 -2.453125,2.359375 0,0.796875 0.515625,1.265625 1.03125,1.40625 l 1.0625,0.28125 c 0.375,0.09375 0.921875,0.25 0.921875,1.0625 0,0.890625 -0.8125,1.828125 -1.796875,1.828125 -0.640625,0 -1.75,-0.21875 -1.75,-1.453125 0,-0.234375 0.0625,-0.484375 0.0625,-0.53125 0.015625,-0.046875 0.015625,-0.0625 0.015625,-0.078125 0,-0.09375 -0.0625,-0.109375 -0.109375,-0.109375 -0.046875,0 -0.078125,0.015625 -0.109375,0.046875 -0.03125,0.03125 -0.59375,2.3125 -0.59375,2.34375 0,0.046875 0.046875,0.09375 0.109375,0.09375 0.046875,0 0.0625,-0.015625 0.1875,-0.15625 L 1.296875,-0.5 c 0.421875,0.578125 1.109375,0.71875 1.6875,0.71875 1.359375,0 2.53125,-1.328125 2.53125,-2.5625 0,-0.6875 -0.34375,-1.03125 -0.484375,-1.171875 C 4.796875,-3.734375 4.640625,-3.78125 3.765625,-4 3.53125,-4.0625 3.1875,-4.171875 3.09375,-4.1875 2.828125,-4.28125 2.484375,-4.5625 2.484375,-5.09375 c 0,-0.8125 0.796875,-1.65625 1.75,-1.65625 0.8125,0 1.421875,0.4375 1.421875,1.546875 0,0.3125 -0.03125,0.5 -0.03125,0.5625 0,0 0,0.09375 0.109375,0.09375 0.109375,0 0.125,-0.03125 0.15625,-0.203125 z m 0,0"
             style="stroke:none"
             inkscape:connector-curvature="0" />
        </symbol>
        <symbol
           id="textext-c2c48216-2"
           overflow="visible"
           style="overflow:visible">
          <path
             id="path7431"
             d="M 3.59375,-2.21875 C 3.59375,-2.984375 3.5,-3.546875 3.1875,-4.03125 2.96875,-4.34375 2.53125,-4.625 1.984375,-4.625 c -1.625,0 -1.625,1.90625 -1.625,2.40625 0,0.5 0,2.359375 1.625,2.359375 1.609375,0 1.609375,-1.859375 1.609375,-2.359375 z M 1.984375,-0.0625 c -0.328125,0 -0.75,-0.1875 -0.890625,-0.75 C 1,-1.21875 1,-1.796875 1,-2.3125 1,-2.828125 1,-3.359375 1.09375,-3.734375 1.25,-4.28125 1.6875,-4.4375 1.984375,-4.4375 c 0.375,0 0.734375,0.234375 0.859375,0.640625 0.109375,0.375 0.125,0.875 0.125,1.484375 0,0.515625 0,1.03125 -0.09375,1.46875 -0.140625,0.640625 -0.609375,0.78125 -0.890625,0.78125 z m 0,0"
             style="stroke:none"
             inkscape:connector-curvature="0" />
        </symbol>
        <symbol
           id="textext-c2c48216-3"
           overflow="visible"
           style="overflow:visible">
          <path
             id="path7434"
             d="m 1.46875,-0.109375 c 0,0.375 -0.0625,0.828125 -0.546875,1.265625 C 0.90625,1.1875 0.875,1.21875 0.875,1.25 c 0,0.046875 0.0625,0.09375 0.09375,0.09375 0.109375,0 0.703125,-0.5625 0.703125,-1.390625 0,-0.421875 -0.171875,-0.75 -0.5,-0.75 -0.21875,0 -0.390625,0.171875 -0.390625,0.390625 C 0.78125,-0.1875 0.9375,0 1.1875,0 1.359375,0 1.46875,-0.109375 1.46875,-0.109375 z m 0,0"
             style="stroke:none"
             inkscape:connector-curvature="0" />
        </symbol>
      </g>
    </defs>
    <defs
       id="defs4045">
      <g
         id="g4047">
        <symbol
           overflow="visible"
           id="textext-b9cbe61d-0"
           style="overflow:visible">
          <path
             style="stroke:none"
             d="M 4.359375,-0.0625 C 5.90625,-0.640625 7.375,-2.421875 7.375,-4.34375 c 0,-1.609375 -1.0625,-2.6875 -2.546875,-2.6875 -2.140625,0 -4.34375,2.265625 -4.34375,4.59375 0,1.65625 1.125,2.65625 2.5625,2.65625 0.25,0 0.578125,-0.046875 0.96875,-0.15625 -0.03125,0.625 -0.03125,0.640625 -0.03125,0.78125 0,0.3125 0,1.09375 0.828125,1.09375 1.171875,0 1.65625,-1.828125 1.65625,-1.9375 0,-0.0625 -0.0625,-0.09375 -0.109375,-0.09375 -0.078125,0 -0.09375,0.046875 -0.125,0.109375 C 6,0.71875 5.421875,0.96875 5.078125,0.96875 c -0.46875,0 -0.609375,-0.265625 -0.71875,-1.03125 z m -1.875,-0.078125 c -0.78125,-0.3125 -1.125,-1.078125 -1.125,-1.984375 0,-0.6875 0.265625,-2.109375 1.015625,-3.171875 C 3.109375,-6.3125 4.046875,-6.78125 4.78125,-6.78125 5.765625,-6.78125 6.5,-6 6.5,-4.671875 c 0,1 -0.515625,3.34375 -2.1875,4.265625 -0.046875,-0.34375 -0.140625,-1.0625 -0.875,-1.0625 -0.53125,0 -1.015625,0.484375 -1.015625,1.015625 0,0.1875 0.0625,0.296875 0.0625,0.3125 z M 3.09375,-0.03125 c -0.140625,0 -0.453125,0 -0.453125,-0.421875 0,-0.40625 0.375,-0.796875 0.796875,-0.796875 0.421875,0 0.609375,0.234375 0.609375,0.84375 0,0.140625 -0.015625,0.15625 -0.109375,0.203125 C 3.671875,-0.09375 3.375,-0.03125 3.09375,-0.03125 z m 0,0"
             id="path4050"
             inkscape:connector-curvature="0" />
        </symbol>
        <symbol
           overflow="visible"
           id="textext-b9cbe61d-1"
           style="overflow:visible">
          <path
             style="stroke:none"
             d="m 2.328125,-4.4375 c 0,-0.1875 0,-0.1875 -0.203125,-0.1875 -0.453125,0.4375 -1.078125,0.4375 -1.359375,0.4375 l 0,0.25 c 0.15625,0 0.625,0 1,-0.1875 l 0,3.546875 c 0,0.234375 0,0.328125 -0.6875,0.328125 l -0.265625,0 0,0.25 c 0.125,0 0.984375,-0.03125 1.234375,-0.03125 0.21875,0 1.09375,0.03125 1.25,0.03125 l 0,-0.25 -0.265625,0 c -0.703125,0 -0.703125,-0.09375 -0.703125,-0.328125 z m 0,0"
             id="path4053"
             inkscape:connector-curvature="0" />
        </symbol>
        <symbol
           overflow="visible"
           id="textext-b9cbe61d-2"
           style="overflow:visible">
          <path
             style="stroke:none"
             d="M 3.59375,-2.21875 C 3.59375,-2.984375 3.5,-3.546875 3.1875,-4.03125 2.96875,-4.34375 2.53125,-4.625 1.984375,-4.625 c -1.625,0 -1.625,1.90625 -1.625,2.40625 0,0.5 0,2.359375 1.625,2.359375 1.609375,0 1.609375,-1.859375 1.609375,-2.359375 z M 1.984375,-0.0625 c -0.328125,0 -0.75,-0.1875 -0.890625,-0.75 C 1,-1.21875 1,-1.796875 1,-2.3125 1,-2.828125 1,-3.359375 1.09375,-3.734375 1.25,-4.28125 1.6875,-4.4375 1.984375,-4.4375 c 0.375,0 0.734375,0.234375 0.859375,0.640625 0.109375,0.375 0.125,0.875 0.125,1.484375 0,0.515625 0,1.03125 -0.09375,1.46875 -0.140625,0.640625 -0.609375,0.78125 -0.890625,0.78125 z m 0,0"
             id="path4056"
             inkscape:connector-curvature="0" />
        </symbol>
        <symbol
           overflow="visible"
           id="textext-b9cbe61d-3"
           style="overflow:visible">
          <path
             style="stroke:none"
             d="m 1.90625,-2.328125 c 0.546875,0 0.9375,0.375 0.9375,1.125 0,0.859375 -0.515625,1.125 -0.90625,1.125 -0.28125,0 -0.90625,-0.078125 -1.1875,-0.5 0.328125,0 0.40625,-0.234375 0.40625,-0.390625 0,-0.21875 -0.171875,-0.375 -0.390625,-0.375 -0.1875,0 -0.390625,0.125 -0.390625,0.40625 0,0.65625 0.71875,1.078125 1.5625,1.078125 0.96875,0 1.640625,-0.65625 1.640625,-1.34375 0,-0.546875 -0.4375,-1.09375 -1.203125,-1.25 0.71875,-0.265625 0.984375,-0.78125 0.984375,-1.21875 0,-0.546875 -0.625,-0.953125 -1.40625,-0.953125 -0.765625,0 -1.359375,0.375 -1.359375,0.9375 0,0.234375 0.15625,0.359375 0.359375,0.359375 0.21875,0 0.359375,-0.15625 0.359375,-0.34375 0,-0.203125 -0.140625,-0.359375 -0.359375,-0.375 0.25,-0.296875 0.71875,-0.375 0.984375,-0.375 0.3125,0 0.75,0.15625 0.75,0.75 0,0.296875 -0.09375,0.625 -0.28125,0.828125 -0.21875,0.265625 -0.421875,0.28125 -0.765625,0.3125 -0.171875,0.015625 -0.1875,0.015625 -0.21875,0.015625 -0.015625,0 -0.078125,0.015625 -0.078125,0.09375 0,0.09375 0.0625,0.09375 0.1875,0.09375 z m 0,0"
             id="path4059"
             inkscape:connector-curvature="0" />
        </symbol>
        <symbol
           overflow="visible"
           id="textext-b9cbe61d-4"
           style="overflow:visible">
          <path
             style="stroke:none"
             d="m 1.46875,-0.109375 c 0,0.375 -0.0625,0.828125 -0.546875,1.265625 C 0.90625,1.1875 0.875,1.21875 0.875,1.25 c 0,0.046875 0.0625,0.09375 0.09375,0.09375 0.109375,0 0.703125,-0.5625 0.703125,-1.390625 0,-0.421875 -0.171875,-0.75 -0.5,-0.75 -0.21875,0 -0.390625,0.171875 -0.390625,0.390625 C 0.78125,-0.1875 0.9375,0 1.1875,0 1.359375,0 1.46875,-0.109375 1.46875,-0.109375 z m 0,0"
             id="path4062"
             inkscape:connector-curvature="0" />
        </symbol>
      </g>
    </defs>
  </defs>
  <metadata
     id="metadata4630">
    <rdf:RDF>
      <cc:Work
         rdf:about="">
        <dc:format>image/svg+xml</dc:format>
        <dc:type
           rdf:resource="http://purl.org/dc/dcmitype/StillImage" />
        <dc:title></dc:title>
      </cc:Work>
    </rdf:RDF>
  </metadata>
  <g
     inkscape:label="Vrstva 1"
     inkscape:groupmode="layer"
     id="layer1"
     transform="translate(-256.12044,-201.22235)">
    <g
       id="g4494">
      <path
         transform="translate(151.64915,-59.662135)"
         d="m 164.28571,294.14789 c 0,1.18347 -0.95939,2.14286 -2.14286,2.14286 -1.18346,0 -2.14285,-0.95939 -2.14285,-2.14286 0,-1.18347 0.95939,-2.14286 2.14285,-2.14286 1.18347,0 2.14286,0.95939 2.14286,2.14286 z"
         sodipodi:ry="2.1428571"
         sodipodi:rx="2.1428571"
         sodipodi:cy="294.14789"
         sodipodi:cx="162.14285"
         id="path4692"
         style="color:#000000;fill:#00ffff;fill-opacity:1;fill-rule:nonzero;stroke:none;stroke-width:1;marker:none;visibility:visible;display:inline;overflow:visible;enable-background:accumulate"
         sodipodi:type="arc" />
      <g
         transform="translate(1.5152245,2.0203051)"
         id="g5553">
        <path
           transform="translate(103.02219,47.571978)"
           sodipodi:type="arc"
           style="color:#000000;fill:#ff0000;fill-opacity:1;fill-rule:nonzero;stroke:none;stroke-width:1;marker:none;visibility:visible;display:inline;overflow:visible;enable-background:accumulate"
           id="path4692-73"
           sodipodi:cx="162.14285"
           sodipodi:cy="294.14789"
           sodipodi:rx="2.1428571"
           sodipodi:ry="2.1428571"
           d="m 164.28571,294.14789 c 0,1.18347 -0.95939,2.14286 -2.14286,2.14286 -1.18346,0 -2.14285,-0.95939 -2.14285,-2.14286 0,-1.18347 0.95939,-2.14286 2.14285,-2.14286 1.18347,0 2.14286,0.95939 2.14286,2.14286 z" />
        <path
           transform="translate(147.72144,48.329592)"
           sodipodi:type="arc"
           style="color:#000000;fill:#ff0000;fill-opacity:1;fill-rule:nonzero;stroke:none;stroke-width:1;marker:none;visibility:visible;display:inline;overflow:visible;enable-background:accumulate"
           id="path4692-67"
           sodipodi:cx="162.14285"
           sodipodi:cy="294.14789"
           sodipodi:rx="2.1428571"
           sodipodi:ry="2.1428571"
           d="m 164.28571,294.14789 c 0,1.18347 -0.95939,2.14286 -2.14286,2.14286 -1.18346,0 -2.14285,-0.95939 -2.14285,-2.14286 0,-1.18347 0.95939,-2.14286 2.14285,-2.14286 1.18347,0 2.14286,0.95939 2.14286,2.14286 z" />
        <path
           transform="translate(207.0679,45.804211)"
           sodipodi:type="arc"
           style="color:#000000;fill:#ff0000;fill-opacity:1;fill-rule:nonzero;stroke:none;stroke-width:1;marker:none;visibility:visible;display:inline;overflow:visible;enable-background:accumulate"
           id="path4692-39"
           sodipodi:cx="162.14285"
           sodipodi:cy="294.14789"
           sodipodi:rx="2.1428571"
           sodipodi:ry="2.1428571"
           d="m 164.28571,294.14789 c 0,1.18347 -0.95939,2.14286 -2.14286,2.14286 -1.18346,0 -2.14285,-0.95939 -2.14285,-2.14286 0,-1.18347 0.95939,-2.14286 2.14285,-2.14286 1.18347,0 2.14286,0.95939 2.14286,2.14286 z" />
        <path
           transform="translate(265.40421,47.824516)"
           sodipodi:type="arc"
           style="color:#000000;fill:#ff0000;fill-opacity:1;fill-rule:nonzero;stroke:none;stroke-width:1;marker:none;visibility:visible;display:inline;overflow:visible;enable-background:accumulate"
           id="path4692-44"
           sodipodi:cx="162.14285"
           sodipodi:cy="294.14789"
           sodipodi:rx="2.1428571"
           sodipodi:ry="2.1428571"
           d="m 164.28571,294.14789 c 0,1.18347 -0.95939,2.14286 -2.14286,2.14286 -1.18346,0 -2.14285,-0.95939 -2.14285,-2.14286 0,-1.18347 0.95939,-2.14286 2.14285,-2.14286 1.18347,0 2.14286,0.95939 2.14286,2.14286 z" />
        <path
           transform="translate(249.49431,4.6404948)"
           sodipodi:type="arc"
           style="color:#000000;fill:#ff0000;fill-opacity:1;fill-rule:nonzero;stroke:none;stroke-width:1;marker:none;visibility:visible;display:inline;overflow:visible;enable-background:accumulate"
           id="path4692-63"
           sodipodi:cx="162.14285"
           sodipodi:cy="294.14789"
           sodipodi:rx="2.1428571"
           sodipodi:ry="2.1428571"
           d="m 164.28571,294.14789 c 0,1.18347 -0.95939,2.14286 -2.14286,2.14286 -1.18346,0 -2.14285,-0.95939 -2.14285,-2.14286 0,-1.18347 0.95939,-2.14286 2.14285,-2.14286 1.18347,0 2.14286,0.95939 2.14286,2.14286 z" />
        <path
           transform="translate(200.24937,2.1151134)"
           sodipodi:type="arc"
           style="color:#000000;fill:#ff0000;fill-opacity:1;fill-rule:nonzero;stroke:none;stroke-width:1;marker:none;visibility:visible;display:inline;overflow:visible;enable-background:accumulate"
           id="path4692-60"
           sodipodi:cx="162.14285"
           sodipodi:cy="294.14789"
           sodipodi:rx="2.1428571"
           sodipodi:ry="2.1428571"
           d="m 164.28571,294.14789 c 0,1.18347 -0.95939,2.14286 -2.14286,2.14286 -1.18346,0 -2.14285,-0.95939 -2.14285,-2.14286 0,-1.18347 0.95939,-2.14286 2.14285,-2.14286 1.18347,0 2.14286,0.95939 2.14286,2.14286 z" />
        <path
           transform="translate(166.6618,-0.15772979)"
           sodipodi:type="arc"
           style="color:#000000;fill:#ff0000;fill-opacity:1;fill-rule:nonzero;stroke:none;stroke-width:1;marker:none;visibility:visible;display:inline;overflow:visible;enable-background:accumulate"
           id="path4692-00"
           sodipodi:cx="162.14285"
           sodipodi:cy="294.14789"
           sodipodi:rx="2.1428571"
           sodipodi:ry="2.1428571"
           d="m 164.28571,294.14789 c 0,1.18347 -0.95939,2.14286 -2.14286,2.14286 -1.18346,0 -2.14285,-0.95939 -2.14285,-2.14286 0,-1.18347 0.95939,-2.14286 2.14285,-2.14286 1.18347,0 2.14286,0.95939 2.14286,2.14286 z" />
        <path
           transform="translate(135.59961,3.125266)"
           sodipodi:type="arc"
           style="color:#000000;fill:#ff0000;fill-opacity:1;fill-rule:nonzero;stroke:none;stroke-width:1;marker:none;visibility:visible;display:inline;overflow:visible;enable-background:accumulate"
           id="path4692-35"
           sodipodi:cx="162.14285"
           sodipodi:cy="294.14789"
           sodipodi:rx="2.1428571"
           sodipodi:ry="2.1428571"
           d="m 164.28571,294.14789 c 0,1.18347 -0.95939,2.14286 -2.14286,2.14286 -1.18346,0 -2.14285,-0.95939 -2.14285,-2.14286 0,-1.18347 0.95939,-2.14286 2.14285,-2.14286 1.18347,0 2.14286,0.95939 2.14286,2.14286 z" />
        <path
           transform="translate(131.559,-43.341751)"
           sodipodi:type="arc"
           style="color:#000000;fill:#ff0000;fill-opacity:1;fill-rule:nonzero;stroke:none;stroke-width:1;marker:none;visibility:visible;display:inline;overflow:visible;enable-background:accumulate"
           id="path4692-82"
           sodipodi:cx="162.14285"
           sodipodi:cy="294.14789"
           sodipodi:rx="2.1428571"
           sodipodi:ry="2.1428571"
           d="m 164.28571,294.14789 c 0,1.18347 -0.95939,2.14286 -2.14286,2.14286 -1.18346,0 -2.14285,-0.95939 -2.14285,-2.14286 0,-1.18347 0.95939,-2.14286 2.14285,-2.14286 1.18347,0 2.14286,0.95939 2.14286,2.14286 z" />
        <path
           transform="translate(156.81281,-50.412819)"
           sodipodi:type="arc"
           style="color:#000000;fill:#ff0000;fill-opacity:1;fill-rule:nonzero;stroke:none;stroke-width:1;marker:none;visibility:visible;display:inline;overflow:visible;enable-background:accumulate"
           id="path4692-85"
           sodipodi:cx="162.14285"
           sodipodi:cy="294.14789"
           sodipodi:rx="2.1428571"
           sodipodi:ry="2.1428571"
           d="m 164.28571,294.14789 c 0,1.18347 -0.95939,2.14286 -2.14286,2.14286 -1.18346,0 -2.14285,-0.95939 -2.14285,-2.14286 0,-1.18347 0.95939,-2.14286 2.14285,-2.14286 1.18347,0 2.14286,0.95939 2.14286,2.14286 z" />
        <path
           transform="translate(206.56283,-42.07906)"
           sodipodi:type="arc"
           style="color:#000000;fill:#ff0000;fill-opacity:1;fill-rule:nonzero;stroke:none;stroke-width:1;marker:none;visibility:visible;display:inline;overflow:visible;enable-background:accumulate"
           id="path4692-26"
           sodipodi:cx="162.14285"
           sodipodi:cy="294.14789"
           sodipodi:rx="2.1428571"
           sodipodi:ry="2.1428571"
           d="m 164.28571,294.14789 c 0,1.18347 -0.95939,2.14286 -2.14286,2.14286 -1.18346,0 -2.14285,-0.95939 -2.14285,-2.14286 0,-1.18347 0.95939,-2.14286 2.14285,-2.14286 1.18347,0 2.14286,0.95939 2.14286,2.14286 z" />
        <path
           transform="translate(244.44355,-34.502916)"
           sodipodi:type="arc"
           style="color:#000000;fill:#ff0000;fill-opacity:1;fill-rule:nonzero;stroke:none;stroke-width:1;marker:none;visibility:visible;display:inline;overflow:visible;enable-background:accumulate"
           id="path4692-22"
           sodipodi:cx="162.14285"
           sodipodi:cy="294.14789"
           sodipodi:rx="2.1428571"
           sodipodi:ry="2.1428571"
           d="m 164.28571,294.14789 c 0,1.18347 -0.95939,2.14286 -2.14286,2.14286 -1.18346,0 -2.14285,-0.95939 -2.14285,-2.14286 0,-1.18347 0.95939,-2.14286 2.14285,-2.14286 1.18347,0 2.14286,0.95939 2.14286,2.14286 z" />
        <g
           id="g5546">
          <path
             inkscape:connector-curvature="0"
             id="path5536"
             d="m 268.21429,212.18361 41.875,-9.82143 45.86321,9.80562 53.79063,7.32361 -3.15673,40.15356 4.92449,39.01714 16.16244,43.56283 -58.21004,-2.52538 -59.85153,2.77792 -44.82552,-0.88388 32.70369,-44.06791 -3.78808,-46.84582 z"
             style="fill:none;stroke:#ff0000;stroke-width:1px;stroke-linecap:butt;stroke-linejoin:miter;stroke-opacity:1" />
          <path
             inkscape:connector-curvature="0"
             id="path5538"
             d="m 293.82812,250.67987 25.12755,-6.9448 50.00255,8.20749 37.50191,8.08122"
             style="fill:none;stroke:#ff0000;stroke-width:1px;stroke-linecap:butt;stroke-linejoin:miter;stroke-opacity:1" />
          <path
             inkscape:connector-curvature="0"
             id="path5540"
             d="m 297.995,297.52569 30.80965,-3.40926 33.58758,2.39911 49.24493,2.14657"
             style="fill:none;stroke:#ff0000;stroke-width:1px;stroke-linecap:butt;stroke-linejoin:miter;stroke-opacity:1" />
          <path
             inkscape:connector-curvature="0"
             id="path5542"
             d="m 310.11683,202.06628 8.83884,41.79506 9.84898,50.25509 -19.06663,48.36105"
             style="fill:none;stroke:#ff0000;stroke-width:1px;stroke-linecap:butt;stroke-linejoin:miter;stroke-opacity:1" />
          <path
             inkscape:connector-curvature="0"
             id="path5544"
             d="m 369.21076,339.69956 -6.81853,-43.56283 6.43972,-44.0679 -12.75318,-39.90103"
             style="fill:none;stroke:#ff0000;stroke-width:1px;stroke-linecap:butt;stroke-linejoin:miter;stroke-opacity:1" />
        </g>
        <path
           transform="translate(247.72654,-74.65648)"
           sodipodi:type="arc"
           style="color:#000000;fill:#ff0000;fill-opacity:1;fill-rule:nonzero;stroke:none;stroke-width:1;marker:none;visibility:visible;display:inline;overflow:visible;enable-background:accumulate"
           id="path4692-47"
           sodipodi:cx="162.14285"
           sodipodi:cy="294.14789"
           sodipodi:rx="2.1428571"
           sodipodi:ry="2.1428571"
           d="m 164.28571,294.14789 c 0,1.18347 -0.95939,2.14286 -2.14286,2.14286 -1.18346,0 -2.14285,-0.95939 -2.14285,-2.14286 0,-1.18347 0.95939,-2.14286 2.14285,-2.14286 1.18347,0 2.14286,0.95939 2.14286,2.14286 z" />
        <path
           transform="translate(193.93592,-81.980086)"
           sodipodi:type="arc"
           style="color:#000000;fill:#ff0000;fill-opacity:1;fill-rule:nonzero;stroke:none;stroke-width:1;marker:none;visibility:visible;display:inline;overflow:visible;enable-background:accumulate"
           id="path4692-21"
           sodipodi:cx="162.14285"
           sodipodi:cy="294.14789"
           sodipodi:rx="2.1428571"
           sodipodi:ry="2.1428571"
           d="m 164.28571,294.14789 c 0,1.18347 -0.95939,2.14286 -2.14286,2.14286 -1.18346,0 -2.14285,-0.95939 -2.14285,-2.14286 0,-1.18347 0.95939,-2.14286 2.14285,-2.14286 1.18347,0 2.14286,0.95939 2.14286,2.14286 z" />
        <path
           transform="translate(147.97398,-91.829073)"
           sodipodi:type="arc"
           style="color:#000000;fill:#ff0000;fill-opacity:1;fill-rule:nonzero;stroke:none;stroke-width:1;marker:none;visibility:visible;display:inline;overflow:visible;enable-background:accumulate"
           id="path4692-08"
           sodipodi:cx="162.14285"
           sodipodi:cy="294.14789"
           sodipodi:rx="2.1428571"
           sodipodi:ry="2.1428571"
           d="m 164.28571,294.14789 c 0,1.18347 -0.95939,2.14286 -2.14286,2.14286 -1.18346,0 -2.14285,-0.95939 -2.14285,-2.14286 0,-1.18347 0.95939,-2.14286 2.14285,-2.14286 1.18347,0 2.14286,0.95939 2.14286,2.14286 z" />
        <path
           transform="translate(106.05265,-81.980086)"
           sodipodi:type="arc"
           style="color:#000000;fill:#ff0000;fill-opacity:1;fill-rule:nonzero;stroke:none;stroke-width:1;marker:none;visibility:visible;display:inline;overflow:visible;enable-background:accumulate"
           id="path4692-16"
           sodipodi:cx="162.14285"
           sodipodi:cy="294.14789"
           sodipodi:rx="2.1428571"
           sodipodi:ry="2.1428571"
           d="m 164.28571,294.14789 c 0,1.18347 -0.95939,2.14286 -2.14286,2.14286 -1.18346,0 -2.14285,-0.95939 -2.14285,-2.14286 0,-1.18347 0.95939,-2.14286 2.14285,-2.14286 1.18347,0 2.14286,0.95939 2.14286,2.14286 z" />
      </g>
      <g
         id="g5696">
        <path
           transform="translate(140.89286,13.035721)"
           sodipodi:type="arc"
           style="color:#000000;fill:#0000ff;fill-opacity:1;fill-rule:nonzero;stroke:none;stroke-width:1;marker:none;visibility:visible;display:inline;overflow:visible;enable-background:accumulate"
           id="path4692-93"
           sodipodi:cx="162.14285"
           sodipodi:cy="294.14789"
           sodipodi:rx="2.1428571"
           sodipodi:ry="2.1428571"
           d="m 164.28571,294.14789 c 0,1.18347 -0.95939,2.14286 -2.14286,2.14286 -1.18346,0 -2.14285,-0.95939 -2.14285,-2.14286 0,-1.18347 0.95939,-2.14286 2.14285,-2.14286 1.18347,0 2.14286,0.95939 2.14286,2.14286 z" />
        <path
           transform="translate(174.73215,12.23215)"
           sodipodi:type="arc"
           style="color:#000000;fill:#0000ff;fill-opacity:1;fill-rule:nonzero;stroke:none;stroke-width:1;marker:none;visibility:visible;display:inline;overflow:visible;enable-background:accumulate"
           id="path4692-938"
           sodipodi:cx="162.14285"
           sodipodi:cy="294.14789"
           sodipodi:rx="2.1428571"
           sodipodi:ry="2.1428571"
           d="m 164.28571,294.14789 c 0,1.18347 -0.95939,2.14286 -2.14286,2.14286 -1.18346,0 -2.14285,-0.95939 -2.14285,-2.14286 0,-1.18347 0.95939,-2.14286 2.14285,-2.14286 1.18347,0 2.14286,0.95939 2.14286,2.14286 z" />
        <path
           transform="translate(214.37501,13.660721)"
           sodipodi:type="arc"
           style="color:#000000;fill:#0000ff;fill-opacity:1;fill-rule:nonzero;stroke:none;stroke-width:1;marker:none;visibility:visible;display:inline;overflow:visible;enable-background:accumulate"
           id="path4692-390"
           sodipodi:cx="162.14285"
           sodipodi:cy="294.14789"
           sodipodi:rx="2.1428571"
           sodipodi:ry="2.1428571"
           d="m 164.28571,294.14789 c 0,1.18347 -0.95939,2.14286 -2.14286,2.14286 -1.18346,0 -2.14285,-0.95939 -2.14285,-2.14286 0,-1.18347 0.95939,-2.14286 2.14285,-2.14286 1.18347,0 2.14286,0.95939 2.14286,2.14286 z" />
        <path
           transform="translate(215.44643,-29.374993)"
           sodipodi:type="arc"
           style="color:#000000;fill:#0000ff;fill-opacity:1;fill-rule:nonzero;stroke:none;stroke-width:1;marker:none;visibility:visible;display:inline;overflow:visible;enable-background:accumulate"
           id="path4692-87"
           sodipodi:cx="162.14285"
           sodipodi:cy="294.14789"
           sodipodi:rx="2.1428571"
           sodipodi:ry="2.1428571"
           d="m 164.28571,294.14789 c 0,1.18347 -0.95939,2.14286 -2.14286,2.14286 -1.18346,0 -2.14285,-0.95939 -2.14285,-2.14286 0,-1.18347 0.95939,-2.14286 2.14285,-2.14286 1.18347,0 2.14286,0.95939 2.14286,2.14286 z" />
        <path
           transform="translate(170.35715,-37.767851)"
           sodipodi:type="arc"
           style="color:#000000;fill:#0000ff;fill-opacity:1;fill-rule:nonzero;stroke:none;stroke-width:1;marker:none;visibility:visible;display:inline;overflow:visible;enable-background:accumulate"
           id="path4692-18"
           sodipodi:cx="162.14285"
           sodipodi:cy="294.14789"
           sodipodi:rx="2.1428571"
           sodipodi:ry="2.1428571"
           d="m 164.28571,294.14789 c 0,1.18347 -0.95939,2.14286 -2.14286,2.14286 -1.18346,0 -2.14285,-0.95939 -2.14285,-2.14286 0,-1.18347 0.95939,-2.14286 2.14285,-2.14286 1.18347,0 2.14286,0.95939 2.14286,2.14286 z" />
        <path
           transform="translate(141.69643,-35.267851)"
           sodipodi:type="arc"
           style="color:#000000;fill:#0000ff;fill-opacity:1;fill-rule:nonzero;stroke:none;stroke-width:1;marker:none;visibility:visible;display:inline;overflow:visible;enable-background:accumulate"
           id="path4692-69"
           sodipodi:cx="162.14285"
           sodipodi:cy="294.14789"
           sodipodi:rx="2.1428571"
           sodipodi:ry="2.1428571"
           d="m 164.28571,294.14789 c 0,1.18347 -0.95939,2.14286 -2.14286,2.14286 -1.18346,0 -2.14285,-0.95939 -2.14285,-2.14286 0,-1.18347 0.95939,-2.14286 2.14285,-2.14286 1.18347,0 2.14286,0.95939 2.14286,2.14286 z" />
        <path
           transform="translate(123.21429,-74.107136)"
           sodipodi:type="arc"
           style="color:#000000;fill:#0000ff;fill-opacity:1;fill-rule:nonzero;stroke:none;stroke-width:1;marker:none;visibility:visible;display:inline;overflow:visible;enable-background:accumulate"
           id="path4692-43"
           sodipodi:cx="162.14285"
           sodipodi:cy="294.14789"
           sodipodi:rx="2.1428571"
           sodipodi:ry="2.1428571"
           d="m 164.28571,294.14789 c 0,1.18347 -0.95939,2.14286 -2.14286,2.14286 -1.18346,0 -2.14285,-0.95939 -2.14285,-2.14286 0,-1.18347 0.95939,-2.14286 2.14285,-2.14286 1.18347,0 2.14286,0.95939 2.14286,2.14286 z" />
        <path
           transform="translate(164.46429,-77.857136)"
           sodipodi:type="arc"
           style="color:#000000;fill:#0000ff;fill-opacity:1;fill-rule:nonzero;stroke:none;stroke-width:1;marker:none;visibility:visible;display:inline;overflow:visible;enable-background:accumulate"
           id="path4692-492"
           sodipodi:cx="162.14285"
           sodipodi:cy="294.14789"
           sodipodi:rx="2.1428571"
           sodipodi:ry="2.1428571"
           d="m 164.28571,294.14789 c 0,1.18347 -0.95939,2.14286 -2.14286,2.14286 -1.18346,0 -2.14285,-0.95939 -2.14285,-2.14286 0,-1.18347 0.95939,-2.14286 2.14285,-2.14286 1.18347,0 2.14286,0.95939 2.14286,2.14286 z" />
        <path
           transform="translate(210.98215,-69.553565)"
           sodipodi:type="arc"
           style="color:#000000;fill:#0000ff;fill-opacity:1;fill-rule:nonzero;stroke:none;stroke-width:1;marker:none;visibility:visible;display:inline;overflow:visible;enable-background:accumulate"
           id="path4692-196"
           sodipodi:cx="162.14285"
           sodipodi:cy="294.14789"
           sodipodi:rx="2.1428571"
           sodipodi:ry="2.1428571"
           d="m 164.28571,294.14789 c 0,1.18347 -0.95939,2.14286 -2.14286,2.14286 -1.18346,0 -2.14285,-0.95939 -2.14285,-2.14286 0,-1.18347 0.95939,-2.14286 2.14285,-2.14286 1.18347,0 2.14286,0.95939 2.14286,2.14286 z" />
        <path
           style="fill:none;stroke:#0005ff;stroke-width:1px;stroke-linecap:butt;stroke-linejoin:miter;stroke-opacity:1"
           d="m 303.21429,307.18361 33.66071,-0.80357 39.73214,1.51785 0.89286,-43.21428 -4.19643,-40.35714 -46.78571,-8.125 -41.33929,3.92857 18.83929,38.83928 z"
           id="path5690"
           inkscape:connector-curvature="0" />
        <path
           style="fill:none;stroke:#0005ff;stroke-width:1px;stroke-linecap:butt;stroke-linejoin:miter;stroke-opacity:1"
           d="m 337.00893,306.60325 -4.46429,-50.13393 -6.02678,-40.3125"
           id="path5692"
           inkscape:connector-curvature="0" />
        <path
           style="fill:none;stroke:#0005ff;stroke-width:1px;stroke-linecap:butt;stroke-linejoin:miter;stroke-opacity:1"
           d="m 304.05592,259.01363 28.50524,-2.49382 44.88865,8.20749"
           id="path5694"
           inkscape:connector-curvature="0" />
      </g>
      <g
         id="g5762">
        <path
           transform="translate(150.08929,-27.14285)"
           sodipodi:type="arc"
           style="color:#000000;fill:#ff00ff;fill-opacity:1;fill-rule:nonzero;stroke:none;stroke-width:1;marker:none;visibility:visible;display:inline;overflow:visible;enable-background:accumulate"
           id="path4692-59"
           sodipodi:cx="162.14285"
           sodipodi:cy="294.14789"
           sodipodi:rx="2.1428571"
           sodipodi:ry="2.1428571"
           d="m 164.28571,294.14789 c 0,1.18347 -0.95939,2.14286 -2.14286,2.14286 -1.18346,0 -2.14285,-0.95939 -2.14285,-2.14286 0,-1.18347 0.95939,-2.14286 2.14285,-2.14286 1.18347,0 2.14286,0.95939 2.14286,2.14286 z" />
        <path
           transform="translate(181.16072,-27.589279)"
           sodipodi:type="arc"
           style="color:#000000;fill:#ff00ff;fill-opacity:1;fill-rule:nonzero;stroke:none;stroke-width:1;marker:none;visibility:visible;display:inline;overflow:visible;enable-background:accumulate"
           id="path4692-01"
           sodipodi:cx="162.14285"
           sodipodi:cy="294.14789"
           sodipodi:rx="2.1428571"
           sodipodi:ry="2.1428571"
           d="m 164.28571,294.14789 c 0,1.18347 -0.95939,2.14286 -2.14286,2.14286 -1.18346,0 -2.14285,-0.95939 -2.14285,-2.14286 0,-1.18347 0.95939,-2.14286 2.14285,-2.14286 1.18347,0 2.14286,0.95939 2.14286,2.14286 z" />
        <path
           transform="translate(175.35715,-69.464279)"
           sodipodi:type="arc"
           style="color:#000000;fill:#ff00ff;fill-opacity:1;fill-rule:nonzero;stroke:none;stroke-width:1;marker:none;visibility:visible;display:inline;overflow:visible;enable-background:accumulate"
           id="path4692-002"
           sodipodi:cx="162.14285"
           sodipodi:cy="294.14789"
           sodipodi:rx="2.1428571"
           sodipodi:ry="2.1428571"
           d="m 164.28571,294.14789 c 0,1.18347 -0.95939,2.14286 -2.14286,2.14286 -1.18346,0 -2.14285,-0.95939 -2.14285,-2.14286 0,-1.18347 0.95939,-2.14286 2.14285,-2.14286 1.18347,0 2.14286,0.95939 2.14286,2.14286 z" />
        <path
           transform="translate(135.26786,-68.392851)"
           sodipodi:type="arc"
           style="color:#000000;fill:#ff00ff;fill-opacity:1;fill-rule:nonzero;stroke:none;stroke-width:1;marker:none;visibility:visible;display:inline;overflow:visible;enable-background:accumulate"
           id="path4692-30"
           sodipodi:cx="162.14285"
           sodipodi:cy="294.14789"
           sodipodi:rx="2.1428571"
           sodipodi:ry="2.1428571"
           d="m 164.28571,294.14789 c 0,1.18347 -0.95939,2.14286 -2.14286,2.14286 -1.18346,0 -2.14285,-0.95939 -2.14285,-2.14286 0,-1.18347 0.95939,-2.14286 2.14285,-2.14286 1.18347,0 2.14286,0.95939 2.14286,2.14286 z" />
        <path
           style="fill:none;stroke:#ff00cc;stroke-width:1px;stroke-linecap:butt;stroke-linejoin:miter;stroke-opacity:1"
           d="m 297.23214,225.84432 15,41.25 31.25,-0.44643 -6.16071,-42.05357 z"
           id="path5760"
           inkscape:connector-curvature="0" />
      </g>
      <g
         style="fill:#ff0000"
         transform="translate(35.607877,219.45564)"
         ns0:text="$Q_{0,0}$"
         ns0:preamble=""
         id="g6840">
        <defs
           id="defs6842">
          <g
             id="g6844">
            <symbol
               style="overflow:visible"
               overflow="visible"
               id="textext-9e423279-0">
              <path
                 inkscape:connector-curvature="0"
                 style="stroke:none"
                 d="M 4.359375,-0.0625 C 5.90625,-0.640625 7.375,-2.421875 7.375,-4.34375 c 0,-1.609375 -1.0625,-2.6875 -2.546875,-2.6875 -2.140625,0 -4.34375,2.265625 -4.34375,4.59375 0,1.65625 1.125,2.65625 2.5625,2.65625 0.25,0 0.578125,-0.046875 0.96875,-0.15625 -0.03125,0.625 -0.03125,0.640625 -0.03125,0.78125 0,0.3125 0,1.09375 0.828125,1.09375 1.171875,0 1.65625,-1.828125 1.65625,-1.9375 0,-0.0625 -0.0625,-0.09375 -0.109375,-0.09375 -0.078125,0 -0.09375,0.046875 -0.125,0.109375 C 6,0.71875 5.421875,0.96875 5.078125,0.96875 c -0.46875,0 -0.609375,-0.265625 -0.71875,-1.03125 z m -1.875,-0.078125 c -0.78125,-0.3125 -1.125,-1.078125 -1.125,-1.984375 0,-0.6875 0.265625,-2.109375 1.015625,-3.171875 C 3.109375,-6.3125 4.046875,-6.78125 4.78125,-6.78125 5.765625,-6.78125 6.5,-6 6.5,-4.671875 c 0,1 -0.515625,3.34375 -2.1875,4.265625 -0.046875,-0.34375 -0.140625,-1.0625 -0.875,-1.0625 -0.53125,0 -1.015625,0.484375 -1.015625,1.015625 0,0.1875 0.0625,0.296875 0.0625,0.3125 z M 3.09375,-0.03125 c -0.140625,0 -0.453125,0 -0.453125,-0.421875 0,-0.40625 0.375,-0.796875 0.796875,-0.796875 0.421875,0 0.609375,0.234375 0.609375,0.84375 0,0.140625 -0.015625,0.15625 -0.109375,0.203125 C 3.671875,-0.09375 3.375,-0.03125 3.09375,-0.03125 z m 0,0"
                 id="path6847" />
            </symbol>
            <symbol
               style="overflow:visible"
               overflow="visible"
               id="textext-9e423279-1">
              <path
                 inkscape:connector-curvature="0"
                 style="stroke:none"
                 d="M 3.59375,-2.21875 C 3.59375,-2.984375 3.5,-3.546875 3.1875,-4.03125 2.96875,-4.34375 2.53125,-4.625 1.984375,-4.625 c -1.625,0 -1.625,1.90625 -1.625,2.40625 0,0.5 0,2.359375 1.625,2.359375 1.609375,0 1.609375,-1.859375 1.609375,-2.359375 z M 1.984375,-0.0625 c -0.328125,0 -0.75,-0.1875 -0.890625,-0.75 C 1,-1.21875 1,-1.796875 1,-2.3125 1,-2.828125 1,-3.359375 1.09375,-3.734375 1.25,-4.28125 1.6875,-4.4375 1.984375,-4.4375 c 0.375,0 0.734375,0.234375 0.859375,0.640625 0.109375,0.375 0.125,0.875 0.125,1.484375 0,0.515625 0,1.03125 -0.09375,1.46875 -0.140625,0.640625 -0.609375,0.78125 -0.890625,0.78125 z m 0,0"
                 id="path6850" />
            </symbol>
            <symbol
               style="overflow:visible"
               overflow="visible"
               id="textext-9e423279-2">
              <path
                 inkscape:connector-curvature="0"
                 style="stroke:none"
                 d="m 1.46875,-0.109375 c 0,0.375 -0.0625,0.828125 -0.546875,1.265625 C 0.90625,1.1875 0.875,1.21875 0.875,1.25 c 0,0.046875 0.0625,0.09375 0.09375,0.09375 0.109375,0 0.703125,-0.5625 0.703125,-1.390625 0,-0.421875 -0.171875,-0.75 -0.5,-0.75 -0.21875,0 -0.390625,0.171875 -0.390625,0.390625 C 0.78125,-0.1875 0.9375,0 1.1875,0 1.359375,0 1.46875,-0.109375 1.46875,-0.109375 z m 0,0"
                 id="path6853" />
            </symbol>
          </g>
        </defs>
        <g
           style="fill:#ff0000"
           id="textext-9e423279-3">
          <g
             style="fill:#ff0000;fill-opacity:1"
             id="g6856">
            <use
               height="220.4975"
               width="249.80219"
               style="fill:#ff0000"
               xlink:href="#textext-9e423279-0"
               x="223.43201"
               y="134.765"
               id="use6858" />
          </g>
          <g
             style="fill:#ff0000;fill-opacity:1"
             id="g6860">
            <use
               height="220.4975"
               width="249.80219"
               style="fill:#ff0000"
               xlink:href="#textext-9e423279-1"
               x="231.308"
               y="136.259"
               id="use6862" />
          </g>
          <g
             style="fill:#ff0000;fill-opacity:1"
             id="g6864">
            <use
               height="220.4975"
               width="249.80219"
               style="fill:#ff0000"
               xlink:href="#textext-9e423279-2"
               x="235.27901"
               y="136.259"
               id="use6866" />
          </g>
          <g
             style="fill:#ff0000;fill-opacity:1"
             id="g6868">
            <use
               height="220.4975"
               width="249.80219"
               style="fill:#ff0000"
               xlink:href="#textext-9e423279-1"
               x="237.645"
               y="136.259"
               id="use6870" />
          </g>
        </g>
      </g>
      <g
         id="g7437"
         style="fill:#0000ff;fill-opacity:1"
         transform="matrix(0.77534232,0,0,0.77534232,117.76325,211.43518)">
        <use
           style="fill:#0000ff"
           id="use7439"
           y="134.765"
           x="223.43201"
           xlink:href="#textext-c2c48216-0"
           width="249.80219"
           height="220.4975" />
      </g>
      <g
         id="g7441"
         style="fill:#0000ff;fill-opacity:1"
         transform="matrix(0.77534232,0,0,0.77534232,117.76325,211.43518)">
        <use
           style="fill:#0000ff"
           id="use7443"
           y="136.259"
           x="230.99699"
           xlink:href="#textext-c2c48216-2"
           width="249.80219"
           height="220.4975" />
      </g>
      <g
         id="g7445"
         style="fill:#0000ff;fill-opacity:1"
         transform="matrix(0.77534232,0,0,0.77534232,117.76325,211.43518)">
        <use
           style="fill:#0000ff"
           id="use7447"
           y="136.259"
           x="234.968"
           xlink:href="#textext-c2c48216-3"
           width="249.80219"
           height="220.4975" />
      </g>
      <g
         id="g7449"
         style="fill:#0000ff;fill-opacity:1"
         transform="matrix(0.77534232,0,0,0.77534232,117.76325,211.43518)">
        <use
           style="fill:#0000ff"
           id="use7451"
           y="136.259"
           x="237.334"
           xlink:href="#textext-c2c48216-2"
           width="249.80219"
           height="220.4975" />
      </g>
      <g
         id="g7453"
         style="fill:#ff00ff;fill-opacity:1"
         transform="matrix(0.74668161,0,0,0.74668161,121.79602,173.9266)">
        <use
           style="fill:#ff00ff"
           id="use7455"
           y="134.765"
           x="245.12399"
           xlink:href="#textext-c2c48216-1"
           width="249.80219"
           height="220.4975" />
      </g>
      <g
         id="g7457"
         style="fill:#ff00ff;fill-opacity:1"
         transform="matrix(0.74668161,0,0,0.74668161,121.79602,173.9266)">
        <use
           style="fill:#ff00ff"
           id="use7459"
           y="136.259"
           x="251.233"
           xlink:href="#textext-c2c48216-2"
           width="249.80219"
           height="220.4975" />
      </g>
      <g
         id="g7461"
         style="fill:#ff00ff;fill-opacity:1"
         transform="matrix(0.74668161,0,0,0.74668161,121.79602,173.9266)">
        <use
           style="fill:#ff00ff"
           id="use7463"
           y="136.259"
           x="255.205"
           xlink:href="#textext-c2c48216-3"
           width="249.80219"
           height="220.4975" />
      </g>
      <g
         id="g7465"
         style="fill:#ff00ff;fill-opacity:1"
         transform="matrix(0.74668161,0,0,0.74668161,121.79602,173.9266)">
        <use
           style="fill:#ff00ff"
           id="use7467"
           y="136.259"
           x="257.57101"
           xlink:href="#textext-c2c48216-2"
           width="249.80219"
           height="220.4975" />
      </g>
      <g
         style="fill:#ff0000"
         transform="translate(73.236059,219.45564)"
         id="g4434">
        <g
           id="g4065"
           style="fill:#ff0000;fill-opacity:1">
          <use
             style="fill:#ff0000"
             id="use4067"
             y="134.765"
             x="223.43201"
             xlink:href="#textext-b9cbe61d-0"
             width="249.80219"
             height="220.4975" />
        </g>
        <g
           id="g4069"
           style="fill:#ff0000;fill-opacity:1">
          <use
             style="fill:#ff0000"
             id="use4071"
             y="136.259"
             x="231.308"
             xlink:href="#textext-b9cbe61d-1"
             width="249.80219"
             height="220.4975" />
        </g>
        <g
           id="g4073"
           style="fill:#ff0000;fill-opacity:1">
          <use
             style="fill:#ff0000"
             id="use4075"
             y="136.259"
             x="235.27901"
             xlink:href="#textext-b9cbe61d-4"
             width="249.80219"
             height="220.4975" />
        </g>
        <g
           id="g4077"
           style="fill:#ff0000;fill-opacity:1">
          <use
             style="fill:#ff0000"
             id="use4079"
             y="136.259"
             x="237.645"
             xlink:href="#textext-b9cbe61d-2"
             width="249.80219"
             height="220.4975" />
        </g>
      </g>
      <g
         style="fill:#ff0000"
         transform="translate(29.546962,166.42263)"
         id="g4444">
        <g
           id="g4081"
           style="fill:#ff0000;fill-opacity:1">
          <use
             style="fill:#ff0000"
             id="use4083"
             y="134.765"
             x="245.436"
             xlink:href="#textext-b9cbe61d-0"
             width="249.80219"
             height="220.4975" />
        </g>
        <g
           id="g4085"
           style="fill:#ff0000;fill-opacity:1">
          <use
             style="fill:#ff0000"
             id="use4087"
             y="136.259"
             x="253.312"
             xlink:href="#textext-b9cbe61d-2"
             width="249.80219"
             height="220.4975" />
        </g>
        <g
           id="g4089"
           style="fill:#ff0000;fill-opacity:1">
          <use
             style="fill:#ff0000"
             id="use4091"
             y="136.259"
             x="257.28299"
             xlink:href="#textext-b9cbe61d-4"
             width="249.80219"
             height="220.4975" />
        </g>
        <g
           id="g4093"
           style="fill:#ff0000;fill-opacity:1">
          <use
             style="fill:#ff0000"
             id="use4095"
             y="136.259"
             x="259.64899"
             xlink:href="#textext-b9cbe61d-1"
             width="249.80219"
             height="220.4975" />
        </g>
      </g>
      <g
         style="fill:#ff0000"
         transform="translate(41.668792,156.82618)"
         id="g4454">
        <g
           id="g4097"
           style="fill:#ff0000;fill-opacity:1">
          <use
             style="fill:#ff0000"
             id="use4099"
             y="134.765"
             x="267.439"
             xlink:href="#textext-b9cbe61d-0"
             width="249.80219"
             height="220.4975" />
        </g>
        <g
           id="g4101"
           style="fill:#ff0000;fill-opacity:1">
          <use
             style="fill:#ff0000"
             id="use4103"
             y="136.259"
             x="275.315"
             xlink:href="#textext-b9cbe61d-1"
             width="249.80219"
             height="220.4975" />
        </g>
        <g
           id="g4105"
           style="fill:#ff0000;fill-opacity:1">
          <use
             style="fill:#ff0000"
             id="use4107"
             y="136.259"
             x="279.28699"
             xlink:href="#textext-b9cbe61d-4"
             width="249.80219"
             height="220.4975" />
        </g>
        <g
           id="g4109"
           style="fill:#ff0000;fill-opacity:1">
          <use
             style="fill:#ff0000"
             id="use4111"
             y="136.259"
             x="281.65302"
             xlink:href="#textext-b9cbe61d-1"
             width="249.80219"
             height="220.4975" />
        </g>
      </g>
      <g
         style="fill:#ff0000"
         transform="translate(131.31983,218.95056)"
         id="g4464">
        <g
           id="g4113"
           style="fill:#ff0000;fill-opacity:1">
          <use
             style="fill:#ff0000"
             id="use4115"
             y="134.765"
             x="289.44299"
             xlink:href="#textext-b9cbe61d-0"
             width="249.80219"
             height="220.4975" />
        </g>
        <g
           id="g4117"
           style="fill:#ff0000;fill-opacity:1">
          <use
             style="fill:#ff0000"
             id="use4119"
             y="136.259"
             x="297.319"
             xlink:href="#textext-b9cbe61d-3"
             width="249.80219"
             height="220.4975" />
        </g>
        <g
           id="g4121"
           style="fill:#ff0000;fill-opacity:1">
          <use
             style="fill:#ff0000"
             id="use4123"
             y="136.259"
             x="301.29001"
             xlink:href="#textext-b9cbe61d-4"
             width="249.80219"
             height="220.4975" />
        </g>
        <g
           id="g4125"
           style="fill:#ff0000;fill-opacity:1">
          <use
             style="fill:#ff0000"
             id="use4127"
             y="136.259"
             x="303.65601"
             xlink:href="#textext-b9cbe61d-2"
             width="249.80219"
             height="220.4975" />
        </g>
      </g>
      <g
         style="fill:#ff0000"
         transform="translate(-55.810928,73.488597)"
         id="g4474">
        <g
           id="g4129"
           style="fill:#ff0000;fill-opacity:1">
          <use
             style="fill:#ff0000"
             id="use4131"
             y="134.765"
             x="311.44699"
             xlink:href="#textext-b9cbe61d-0"
             width="249.80219"
             height="220.4975" />
        </g>
        <g
           id="g4133"
           style="fill:#ff0000;fill-opacity:1">
          <use
             style="fill:#ff0000"
             id="use4135"
             y="136.259"
             x="319.323"
             xlink:href="#textext-b9cbe61d-2"
             width="249.80219"
             height="220.4975" />
        </g>
        <g
           id="g4137"
           style="fill:#ff0000;fill-opacity:1">
          <use
             style="fill:#ff0000"
             id="use4139"
             y="136.259"
             x="323.29401"
             xlink:href="#textext-b9cbe61d-4"
             width="249.80219"
             height="220.4975" />
        </g>
        <g
           id="g4141"
           style="fill:#ff0000;fill-opacity:1">
          <use
             style="fill:#ff0000"
             id="use4143"
             y="136.259"
             x="325.66"
             xlink:href="#textext-b9cbe61d-3"
             width="249.80219"
             height="220.4975" />
        </g>
      </g>
      <g
         transform="translate(71.72083,79.802051)"
         style="fill:#ff0000"
         id="g4484">
        <g
           id="g4145"
           style="fill:#ff0000;fill-opacity:1">
          <use
             style="fill:#ff0000"
             id="use4147"
             y="134.765"
             x="333.45001"
             xlink:href="#textext-b9cbe61d-0"
             width="249.80219"
             height="220.4975" />
        </g>
        <g
           id="g4149"
           style="fill:#ff0000;fill-opacity:1">
          <use
             style="fill:#ff0000"
             id="use4151"
             y="136.259"
             x="341.32599"
             xlink:href="#textext-b9cbe61d-3"
             width="249.80219"
             height="220.4975" />
        </g>
        <g
           id="g4153"
           style="fill:#ff0000;fill-opacity:1">
          <use
             style="fill:#ff0000"
             id="use4155"
             y="136.259"
             x="345.297"
             xlink:href="#textext-b9cbe61d-4"
             width="249.80219"
             height="220.4975" />
        </g>
        <g
           id="g4157"
           style="fill:#ff0000;fill-opacity:1">
          <use
             style="fill:#ff0000"
             id="use4159"
             y="136.259"
             x="347.664"
             xlink:href="#textext-b9cbe61d-3"
             width="249.80219"
             height="220.4975" />
        </g>
      </g>
    </g>
  </g>
</svg>
